  0
SECTION
  2
HEADER
  9
$ACADVER
  1
AC1015
  9
$ACADMAINTVER
 70
     6
  9
$DWGCODEPAGE
  3
ANSI_1252
  9
$INSBASE
 10
0.0
 20
0.0
 30
0.0
  9
$EXTMIN
 10
-8.5
 20
-9.0
 30
0.0
  9
$EXTMAX
 10
8.5
 20
9.0
 30
0.0
  9
$LIMMIN
 10
0.0
 20
0.0
  9
$LIMMAX
 10
420.0
 20
297.0
  9
$ORTHOMODE
 70
     0
  9
$REGENMODE
 70
     1
  9
$FILLMODE
 70
     1
  9
$QTEXTMODE
 70
     0
  9
$MIRRTEXT
 70
     1
  9
$LTSCALE
 40
1.0
  9
$ATTMODE
 70
     1
  9
$TEXTSIZE
 40
3.5
  9
$TRACEWID
 40
1.0
  9
$TEXTSTYLE
  7
Standard
  9
$CLAYER
  8
0
  9
$CELTYPE
  6
ByLayer
  9
$CECOLOR
 62
   256
  9
$CELTSCALE
 40
1.0
  9
$DISPSILH
 70
     0
  9
$DIMSCALE
 40
1.0
  9
$DIMASZ
 40
3.302
  9
$DIMEXO
 40
0.0
  9
$DIMDLI
 40
3.75
  9
$DIMRND
 40
0.0
  9
$DIMDLE
 40
0.0
  9
$DIMEXE
 40
1.0
  9
$DIMTP
 40
0.0
  9
$DIMTM
 40
0.0
  9
$DIMTXT
 40
3.5
  9
$DIMCEN
 40
2.5
  9
$DIMTSZ
 40
0.0
  9
$DIMTOL
 70
     0
  9
$DIMLIM
 70
     0
  9
$DIMTIH
 70
     1
  9
$DIMTOH
 70
     1
  9
$DIMSE1
 70
     0
  9
$DIMSE2
 70
     0
  9
$DIMTAD
 70
     1
  9
$DIMZIN
 70
     1
  9
$DIMBLK
  1

  9
$DIMASO
 70
     1
  9
$DIMSHO
 70
     1
  9
$DIMPOST
  1

  9
$DIMAPOST
  1

  9
$DIMALT
 70
     0
  9
$DIMALTD
 70
     3
  9
$DIMALTF
 40
0.0393700787
  9
$DIMLFAC
 40
1.0
  9
$DIMTOFL
 70
     1
  9
$DIMTVP
 40
0.0
  9
$DIMTIX
 70
     0
  9
$DIMSOXD
 70
     0
  9
$DIMSAH
 70
     0
  9
$DIMBLK1
  1

  9
$DIMBLK2
  1

  9
$DIMSTYLE
  2
ISO-25
  9
$DIMCLRD
 70
     0
  9
$DIMCLRE
 70
     0
  9
$DIMCLRT
 70
     0
  9
$DIMTFAC
 40
1.0
  9
$DIMGAP
 40
1.524
  9
$DIMJUST
 70
     0
  9
$DIMSD1
 70
     0
  9
$DIMSD2
 70
     0
  9
$DIMTOLJ
 70
     0
  9
$DIMTZIN
 70
     1
  9
$DIMALTZ
 70
     0
  9
$DIMALTTZ
 70
     0
  9
$DIMUPT
 70
     0
  9
$DIMDEC
 70
     2
  9
$DIMTDEC
 70
     2
  9
$DIMALTU
 70
     2
  9
$DIMALTTD
 70
     3
  9
$DIMTXSTY
  7
Standard
  9
$DIMAUNIT
 70
     0
  9
$DIMADEC
 70
     2
  9
$DIMALTRND
 40
0.0
  9
$DIMAZIN
 70
     0
  9
$DIMDSEP
 70
    44
  9
$DIMATFIT
 70
     3
  9
$DIMFRAC
 70
     0
  9
$DIMLDRBLK
  1

  9
$DIMLUNIT
 70
     2
  9
$DIMLWD
 70
    -2
  9
$DIMLWE
 70
    -2
  9
$DIMTMOVE
 70
     0
  9
$LUNITS
 70
     2
  9
$LUPREC
 70
     2
  9
$SKETCHINC
 40
1.0
  9
$FILLETRAD
 40
10.0
  9
$AUNITS
 70
     0
  9
$AUPREC
 70
     2
  9
$MENU
  1
.
  9
$ELEVATION
 40
0.0
  9
$PELEVATION
 40
0.0
  9
$THICKNESS
 40
0.0
  9
$LIMCHECK
 70
     0
  9
$CHAMFERA
 40
0.0
  9
$CHAMFERB
 40
0.0
  9
$CHAMFERC
 40
0.0
  9
$CHAMFERD
 40
0.0
  9
$SKPOLY
 70
     0
  9
$TDCREATE
 40
2459753.587928796
  9
$TDUCREATE
 40
2459753.504595463
  9
$TDUPDATE
 40
2459753.588019548
  9
$TDUUPDATE
 40
2459753.504686215
  9
$TDINDWG
 40
0.0000000116
  9
$TDUSRTIMER
 40
0.0000000116
  9
$USRTIMER
 70
     1
  9
$ANGBASE
 50
0.0
  9
$ANGDIR
 70
     0
  9
$PDMODE
 70
     0
  9
$PDSIZE
 40
-1.0
  9
$PLINEWID
 40
0.0
  9
$SPLFRAME
 70
     0
  9
$SPLINETYPE
 70
     6
  9
$SPLINESEGS
 70
     8
  9
$HANDSEED
  5
276
  9
$SURFTAB1
 70
     6
  9
$SURFTAB2
 70
     6
  9
$SURFTYPE
 70
     6
  9
$SURFU
 70
     6
  9
$SURFV
 70
     6
  9
$UCSBASE
  2

  9
$UCSNAME
  2

  9
$UCSORG
 10
0.0
 20
0.0
 30
0.0
  9
$UCSXDIR
 10
1.0
 20
0.0
 30
0.0
  9
$UCSYDIR
 10
0.0
 20
1.0
 30
0.0
  9
$UCSORTHOREF
  2

  9
$UCSORTHOVIEW
 70
     0
  9
$UCSORGTOP
 10
0.0
 20
0.0
 30
0.0
  9
$UCSORGBOTTOM
 10
0.0
 20
0.0
 30
0.0
  9
$UCSORGLEFT
 10
0.0
 20
0.0
 30
0.0
  9
$UCSORGRIGHT
 10
0.0
 20
0.0
 30
0.0
  9
$UCSORGFRONT
 10
0.0
 20
0.0
 30
0.0
  9
$UCSORGBACK
 10
0.0
 20
0.0
 30
0.0
  9
$PUCSBASE
  2

  9
$PUCSNAME
  2

  9
$PUCSORG
 10
0.0
 20
0.0
 30
0.0
  9
$PUCSXDIR
 10
1.0
 20
0.0
 30
0.0
  9
$PUCSYDIR
 10
0.0
 20
1.0
 30
0.0
  9
$PUCSORTHOREF
  2

  9
$PUCSORTHOVIEW
 70
     0
  9
$PUCSORGTOP
 10
0.0
 20
0.0
 30
0.0
  9
$PUCSORGBOTTOM
 10
0.0
 20
0.0
 30
0.0
  9
$PUCSORGLEFT
 10
0.0
 20
0.0
 30
0.0
  9
$PUCSORGRIGHT
 10
0.0
 20
0.0
 30
0.0
  9
$PUCSORGFRONT
 10
0.0
 20
0.0
 30
0.0
  9
$PUCSORGBACK
 10
0.0
 20
0.0
 30
0.0
  9
$USERI1
 70
     0
  9
$USERI2
 70
     0
  9
$USERI3
 70
     0
  9
$USERI4
 70
     0
  9
$USERI5
 70
     0
  9
$USERR1
 40
0.0
  9
$USERR2
 40
0.0
  9
$USERR3
 40
0.0
  9
$USERR4
 40
0.0
  9
$USERR5
 40
0.0
  9
$WORLDVIEW
 70
     1
  9
$SHADEDGE
 70
     3
  9
$SHADEDIF
 70
    70
  9
$TILEMODE
 70
     1
  9
$MAXACTVP
 70
    64
  9
$PINSBASE
 10
0.0
 20
0.0
 30
0.0
  9
$PLIMCHECK
 70
     0
  9
$PEXTMIN
 10
1.0000000000E+20
 20
1.0000000000E+20
 30
1.0000000000E+20
  9
$PEXTMAX
 10
-1.0000000000E+20
 20
-1.0000000000E+20
 30
-1.0000000000E+20
  9
$PLIMMIN
 10
0.0
 20
0.0
  9
$PLIMMAX
 10
420.0
 20
297.0
  9
$UNITMODE
 70
     0
  9
$VISRETAIN
 70
     1
  9
$PLINEGEN
 70
     0
  9
$PSLTSCALE
 70
     1
  9
$TREEDEPTH
 70
  3020
  9
$CMLSTYLE
  2
Standard
  9
$CMLJUST
 70
     0
  9
$CMLSCALE
 40
20.0
  9
$PROXYGRAPHICS
 70
     1
  9
$MEASUREMENT
 70
     1
  9
$CELWEIGHT
370
    -1
  9
$ENDCAPS
280
     0
  9
$JOINSTYLE
280
     0
  9
$LWDISPLAY
290
     1
  9
$INSUNITS
 70
     4
  9
$HYPERLINKBASE
  1

  9
$STYLESHEET
  1

  9
$XEDIT
290
     1
  9
$CEPSNTYPE
380
     0
  9
$PSTYLEMODE
290
     1
  9
$FINGERPRINTGUID
  2
{02636720-2fef-464f-96dd-4bdd80a4f516}
  9
$VERSIONGUID
  2
{FAEB1C32-E019-11D5-929B-00C0DF256EC4}
  9
$EXTNAMES
290
     1
  9
$PSVPSCALE
 40
0.0
  9
$OLESTARTUP
290
     0
  0
ENDSEC
  0
SECTION
  2
CLASSES
  0
CLASS
  1
ACDBDICTIONARYWDFLT
  2
AcDbDictionaryWithDefault
  3
ObjectDBX Classes
 90
        0
280
     0
281
     0
  0
CLASS
  1
VISUALSTYLE
  2
AcDbVisualStyle
  3
ObjectDBX Classes
 90
     4095
280
     0
281
     0
  0
CLASS
  1
MATERIAL
  2
AcDbMaterial
  3
ObjectDBX Classes
 90
     1153
280
     0
281
     0
  0
CLASS
  1
SCALE
  2
AcDbScale
  3
ObjectDBX Classes
 90
     1153
280
     0
281
     0
  0
CLASS
  1
TABLESTYLE
  2
AcDbTableStyle
  3
ObjectDBX Classes
 90
     4095
280
     0
281
     0
  0
CLASS
  1
MLEADERSTYLE
  2
AcDbMLeaderStyle
  3
ACDB_MLEADERSTYLE_CLASS
 90
     4095
280
     0
281
     0
  0
CLASS
  1
SUN
  2
AcDbSun
  3
SCENEOE
 90
     1153
280
     0
281
     0
  0
CLASS
  1
ACDBPLACEHOLDER
  2
AcDbPlaceHolder
  3
ObjectDBX Classes
 90
        0
280
     0
281
     0
  0
CLASS
  1
LAYOUT
  2
AcDbLayout
  3
ObjectDBX Classes
 90
        0
280
     0
281
     0
  0
ENDSEC
  0
SECTION
  2
TABLES
  0
TABLE
  2
VPORT
  5
8
330
0
100
AcDbSymbolTable
 70
     1
  0
VPORT
  5
29
330
8
100
AcDbSymbolTableRecord
100
AcDbViewportTableRecord
  2
*Active
 70
     0
 10
0.0
 20
0.0
 11
1.0
 21
1.0
 12
0.0
 22
0.0
 13
0.0
 23
0.0
 14
10.0
 24
10.0
 15
10.0
 25
10.0
 16
0.0
 26
0.0
 36
1.0
 17
0.0
 27
0.0
 37
0.0
 40
18.36
 41
0.9444444444
 42
50.0
 43
0.0
 44
0.0
 50
0.0
 51
0.0
 71
     0
 72
   100
 73
     1
 74
     3
 75
     0
 76
     0
 77
     0
 78
     0
281
     0
 65
     1
110
0.0
120
0.0
130
0.0
111
1.0
121
0.0
131
0.0
112
0.0
122
1.0
132
0.0
 79
     0
146
0.0
  0
ENDTAB
  0
TABLE
  2
LTYPE
  5
5
330
0
100
AcDbSymbolTable
 70
     6
  0
LTYPE
  5
14
330
5
100
AcDbSymbolTableRecord
100
AcDbLinetypeTableRecord
  2
ByBlock
 70
     0
  3

 72
    65
 73
     0
 40
0.0
  0
LTYPE
  5
15
330
5
100
AcDbSymbolTableRecord
100
AcDbLinetypeTableRecord
  2
ByLayer
 70
     0
  3

 72
    65
 73
     0
 40
0.0
  0
LTYPE
  5
16
330
5
100
AcDbSymbolTableRecord
100
AcDbLinetypeTableRecord
  2
Continuous
 70
     0
  3
Solid line
 72
    65
 73
     0
 40
0.0
  0
LTYPE
  5
6E
330
5
100
AcDbSymbolTableRecord
100
AcDbLinetypeTableRecord
  2
HIDDEN
 70
     0
  3
Hidden __ __ __ __ __ __ __ __ __ __ __ __ __ __
 72
    65
 73
     2
 40
1.905
 49
1.27
 74
     0
 49
-0.635
 74
     0
  0
LTYPE
  5
6F
330
5
100
AcDbSymbolTableRecord
100
AcDbLinetypeTableRecord
  2
PHANTOM
 70
     0
  3
Phantom ______  __  __  ______  __  __  ______
 72
    65
 73
     6
 40
12.7
 49
6.35
 74
     0
 49
-1.27
 74
     0
 49
1.27
 74
     0
 49
-1.27
 74
     0
 49
1.27
 74
     0
 49
-1.27
 74
     0
  0
LTYPE
  5
70
330
5
100
AcDbSymbolTableRecord
100
AcDbLinetypeTableRecord
  2
CENTER
 70
     0
  3
Center ____ _ ____ _ ____ _ ____ _ ____ _ ____
 72
    65
 73
     4
 40
10.16
 49
6.35
 74
     0
 49
-1.27
 74
     0
 49
1.27
 74
     0
 49
-1.27
 74
     0
  0
LTYPE
  5
71
330
5
100
AcDbSymbolTableRecord
100
AcDbLinetypeTableRecord
  2
CENTERX2
 70
     0
  3
Center (2x) ________  __  ________  __  _____
 72
    65
 73
     4
 40
20.32
 49
12.7
 74
     0
 49
-2.54
 74
     0
 49
2.54
 74
     0
 49
-2.54
 74
     0
  0
LTYPE
  5
72
330
5
100
AcDbSymbolTableRecord
100
AcDbLinetypeTableRecord
  2
DOT2
 70
     0
  3
Dot (.5x) ........................................
 72
    65
 73
     2
 40
0.635
 49
0.0
 74
     0
 49
-0.635
 74
     0
  0
ENDTAB
  0
TABLE
  2
LAYER
  5
2
330
0
100
AcDbSymbolTable
 70
     1
  0
LAYER
  5
10
330
2
100
AcDbSymbolTableRecord
100
AcDbLayerTableRecord
  2
0
 70
     0
 62
     7
  6
Continuous
370
    -3
390
F
  0
ENDTAB
  0
TABLE
  2
STYLE
  5
3
330
0
100
AcDbSymbolTable
 70
     1
  0
STYLE
  5
11
330
3
100
AcDbSymbolTableRecord
100
AcDbTextStyleTableRecord
  2
Standard
 70
     0
 40
0.0
 41
1.0
 50
0.0
 71
     0
 42
3.5
  3
txt
  4

  0
ENDTAB
  0
TABLE
  2
VIEW
  5
6
330
0
100
AcDbSymbolTable
 70
     0
  0
ENDTAB
  0
TABLE
  2
UCS
  5
7
330
0
100
AcDbSymbolTable
 70
     0
  0
ENDTAB
  0
TABLE
  2
APPID
  5
9
330
0
100
AcDbSymbolTable
 70
     1
  0
APPID
  5
12
330
9
100
AcDbSymbolTableRecord
100
AcDbRegAppTableRecord
  2
ACAD
 70
     0
  0
ENDTAB
  0
TABLE
  2
DIMSTYLE
  5
A
330
0
100
AcDbSymbolTable
 70
     1
100
AcDbDimStyleTable
  0
DIMSTYLE
105
27
330
A
100
AcDbSymbolTableRecord
100
AcDbDimStyleTableRecord
  2
ISO-25
 70
     0
 41
2.5
 42
0.625
 43
3.75
 44
1.25
 73
     0
 74
     0
 77
     1
 78
     8
140
2.5
141
2.5
143
0.0393700787
147
0.625
171
     3
172
     1
178
     0
271
     2
272
     2
274
     3
278
    44
283
     0
284
     8
340
11
  0
ENDTAB
  0
TABLE
  2
BLOCK_RECORD
  5
1
330
0
100
AcDbSymbolTable
 70
     1
  0
BLOCK_RECORD
  5
1F
330
1
100
AcDbSymbolTableRecord
100
AcDbBlockTableRecord
  2
*Model_Space
340
22
  0
BLOCK_RECORD
  5
1B
330
1
100
AcDbSymbolTableRecord
100
AcDbBlockTableRecord
  2
*Paper_Space
340
1E
  0
BLOCK_RECORD
  5
23
330
1
100
AcDbSymbolTableRecord
100
AcDbBlockTableRecord
  2
*Paper_Space0
340
26
  0
ENDTAB
  0
ENDSEC
  0
SECTION
  2
BLOCKS
  0
BLOCK
  5
20
330
1F
100
AcDbEntity
  8
0
100
AcDbBlockBegin
  2
*Model_Space
 70
     0
 10
0.0
 20
0.0
 30
0.0
  3
*Model_Space
  1

  0
ENDBLK
  5
21
330
1F
100
AcDbEntity
  8
0
100
AcDbBlockEnd
  0
BLOCK
  5
1C
330
1B
100
AcDbEntity
 67
     1
  8
0
100
AcDbBlockBegin
  2
*Paper_Space
 70
     0
 10
0.0
 20
0.0
 30
0.0
  3
*Paper_Space
  1

  0
ENDBLK
  5
1D
330
1B
100
AcDbEntity
 67
     1
  8
0
100
AcDbBlockEnd
  0
BLOCK
  5
24
330
23
100
AcDbEntity
  8
0
100
AcDbBlockBegin
  2
*Paper_Space0
 70
     0
 10
0.0
 20
0.0
 30
0.0
  3
*Paper_Space0
  1

  0
ENDBLK
  5
25
330
23
100
AcDbEntity
  8
0
100
AcDbBlockEnd
  0
ENDSEC
  0
SECTION
  2
ENTITIES
  0
SPLINE
  5
A9
330
1F
100
AcDbEntity
  8
0
  6
Continuous
 62
     7
370
    25
100
AcDbSpline
210
0.0
220
0.0
230
1.0
 70
     8
 71
     3
 72
     9
 73
     5
 74
     0
 42
0.00000001
 43
0.00000001
 40
0.0
 40
0.0
 40
0.0
 40
0.0
 40
0.4625880278455608
 40
1.0
 40
1.0
 40
1.0
 40
1.0
 10
2.883066884815876
 20
-5.339159214988137
 30
0.0
 10
2.893769667133615
 20
-5.340499834530918
 30
0.0
 10
2.916906414462735
 20
-5.343397919786225
 30
0.0
 10
2.940226333256581
 20
-5.343652002264905
 30
0.0
 10
2.952758736806062
 20
-5.343788549230863
 30
0.0
  0
CIRCLE
  5
B2
330
1F
100
AcDbEntity
  8
0
  6
Continuous
 62
     7
370
    25
100
AcDbCircle
 10
4.7312539735
 20
5.6024823267
 30
0.0
 40
2.51604021989626
  0
SPLINE
  5
D6
330
1F
100
AcDbEntity
  8
0
  6
Continuous
 62
     7
370
    25
100
AcDbSpline
210
0.0
220
0.0
230
1.0
 70
     8
 71
     3
 72
    15
 73
    11
 74
     0
 42
0.00000001
 43
0.00000001
 40
0.0
 40
0.0
 40
0.0
 40
0.0
 40
0.1172719505823334
 40
0.2325916021717975
 40
0.3502024690399496
 40
0.4725237323429211
 40
0.5982508973847016
 40
0.7264244829822317
 40
0.8592061129987771
 40
1.0
 40
1.0
 40
1.0
 40
1.0
 10
3.39155784356328
 20
-5.93206093460003
 30
0.0
 10
3.390888220344813
 20
-5.919801884034455
 30
0.0
 10
3.389560121541465
 20
-5.895487866931529
 30
0.0
 10
3.380001484389237
 20
-5.859894834457076
 30
0.0
 10
3.364439005563214
 20
-5.826056000365904
 30
0.0
 10
3.34349594189076
 20
-5.793967046126504
 30
0.0
 10
3.317543820237091
 20
-5.76421697341361
 30
0.0
 10
3.286062547813096
 20
-5.738689184793357
 30
0.0
 10
3.250334709033139
 20
-5.716333583698001
 30
0.0
 10
3.223818367776159
 20
-5.705543318116193
 30
0.0
 10
3.210171902641713
 20
-5.699990177069074
 30
0.0
  0
SPLINE
  5
D7
330
1F
100
AcDbEntity
  8
0
  6
Continuous
 62
     7
370
    25
100
AcDbSpline
210
0.0
220
0.0
230
1.0
 70
     8
 71
     3
 72
    15
 73
    11
 74
     0
 42
0.00000001
 43
0.00000001
 40
0.0
 40
0.0
 40
0.0
 40
0.0
 40
0.1365491703518772
 40
0.2622832637426091
 40
0.3826657219239981
 40
0.5029375378300763
 40
0.623209353736158
 40
0.7429783093803966
 40
0.867428173586731
 40
1.0
 40
1.0
 40
1.0
 40
1.0
 10
3.72053984766682
 20
-2.470710333650448
 30
0.0
 10
3.720031401939424
 20
-2.462697905010359
 30
0.0
 10
3.719054780811125
 20
-2.447307654532735
 30
0.0
 10
3.713209613930301
 20
-2.425406903766312
 30
0.0
 10
3.703045132838231
 20
-2.406273802902374
 30
0.0
 10
3.689613371892745
 20
-2.389717479692262
 30
0.0
 10
3.673107468405591
 20
-2.376228511731739
 30
0.0
 10
3.65390866421212
 20
-2.366453384399057
 30
0.0
 10
3.632416417988331
 20
-2.360517524638945
 30
0.0
 10
3.617330700634096
 20
-2.359526952713764
 30
0.0
 10
3.609549485369405
 20
-2.359016015566792
 30
0.0
  0
SPLINE
  5
D8
330
1F
100
AcDbEntity
  8
0
  6
Continuous
 62
     7
370
    25
100
AcDbSpline
210
0.0
220
0.0
230
1.0
 70
     8
 71
     3
 72
    11
 73
     7
 74
     0
 42
0.00000001
 43
0.00000001
 40
0.0
 40
0.0
 40
0.0
 40
0.0
 40
0.2506913646453338
 40
0.5006767973354336
 40
0.7502857461208103
 40
1.0
 40
1.0
 40
1.0
 40
1.0
 10
4.715008509413055
 20
0.7935200122376727
 30
0.0
 10
4.780742431888486
 20
0.8061705059566647
 30
0.0
 10
4.912025174027833
 20
0.8314358703576192
 30
0.0
 10
5.107978694491005
 20
0.8732006175123392
 30
0.0
 10
5.302749282015003
 20
0.9190657294435745
 30
0.0
 10
5.431793326797767
 20
0.9526048917107316
 30
0.0
 10
5.496328956603315
 20
0.969378009476105
 30
0.0
  0
SPLINE
  5
D9
330
1F
100
AcDbEntity
  8
0
  6
Continuous
 62
     7
370
    25
100
AcDbSpline
210
0.0
220
0.0
230
1.0
 70
     8
 71
     3
 72
    11
 73
     7
 74
     0
 42
0.00000001
 43
0.00000001
 40
0.0
 40
0.0
 40
0.0
 40
0.0
 40
0.2447988735720897
 40
0.4953340302221465
 40
0.7483133662520091
 40
0.9999999999999999
 40
0.9999999999999999
 40
0.9999999999999999
 40
0.9999999999999999
 10
5.487319697690129
 20
0.6035633670299765
 30
0.0
 10
5.424832033975642
 20
0.6205836069192102
 30
0.0
 10
5.298392455822325
 20
0.6550229157961734
 30
0.0
 10
5.106205401906002
 20
0.7025719317234731
 30
0.0
 10
4.911400519698669
 20
0.7470422616042018
 30
0.0
 10
4.780360626578204
 20
0.7726475503755009
 30
0.0
 10
4.715008509413055
 20
0.7854174007774019
 30
0.0
  0
SPLINE
  5
DA
330
1F
100
AcDbEntity
  8
0
  6
Continuous
 62
     7
370
    25
100
AcDbSpline
210
0.0
220
0.0
230
1.0
 70
     8
 71
     3
 72
     9
 73
     5
 74
     0
 42
0.00000001
 43
0.00000001
 40
0.0
 40
0.0
 40
0.0
 40
0.0
 40
0.4896206349355116
 40
1.0
 40
1.0
 40
1.0
 40
1.0
 10
3.386967923511711
 20
-5.979190682827991
 30
0.0
 10
3.388293773660507
 20
-5.971555552355784
 30
0.0
 10
3.391001686796094
 20
-5.955961580354966
 30
0.0
 10
3.391369910025336
 20
-5.940137313745023
 30
0.0
 10
3.39155784356328
 20
-5.93206093460003
 30
0.0
  0
SPLINE
  5
DB
330
1F
100
AcDbEntity
  8
0
  6
Continuous
 62
     7
370
    25
100
AcDbSpline
210
0.0
220
0.0
230
1.0
 70
     8
 71
     3
 72
    11
 73
     7
 74
     0
 42
0.00000001
 43
0.00000001
 40
0.0
 40
0.0
 40
0.0
 40
0.0
 40
0.2303512572546754
 40
0.4702200042622282
 40
0.7247406266752578
 40
1.0
 40
1.0
 40
1.0
 40
1.0
 10
3.372508644164038
 20
-5.521033021101405
 30
0.0
 10
3.351720528781222
 20
-5.522112253655561
 30
0.0
 10
3.309285389418803
 20
-5.524315309728548
 30
0.0
 10
3.243812411605608
 20
-5.525980053676912
 30
0.0
 10
3.174275693511208
 20
-5.527298568975817
 30
0.0
 10
3.12640195882484
 20
-5.527290532859888
 30
0.0
 10
3.101528059631771
 20
-5.527286357511153
 30
0.0
  0
SPLINE
  5
DC
330
1F
100
AcDbEntity
  8
0
  6
Continuous
 62
     7
370
    25
100
AcDbSpline
210
0.0
220
0.0
230
1.0
 70
     8
 71
     3
 72
    15
 73
    11
 74
     0
 42
0.00000001
 43
0.00000001
 40
0.0
 40
0.0
 40
0.0
 40
0.0
 40
0.15232677891229
 40
0.2958835297122758
 40
0.4322056739276148
 40
0.5595047798529317
 40
0.6800078670317874
 40
0.7926234951865587
 40
0.8994336835133673
 40
1.0
 40
1.0
 40
1.0
 40
1.0
 10
6.136298824726642
 20
-1.299196356592311
 30
0.0
 10
6.135946546755018
 20
-1.31736907631684
 30
0.0
 10
6.135262272785409
 20
-1.352668243639625
 30
0.0
 10
6.131055048962306
 20
-1.404084786058627
 30
0.0
 10
6.124759183243937
 20
-1.452283797132246
 30
0.0
 10
6.115483894931625
 20
-1.497187813497302
 30
0.0
 10
6.10498441242324
 20
-1.538903471139287
 30
0.0
 10
6.092826143318533
 20
-1.577597256869827
 30
0.0
 10
6.080501548368481
 20
-1.613756041589619
 30
0.0
 10
6.070620272178766
 20
-1.636447354760224
 30
0.0
 10
6.065828391104867
 20
-1.647451406467361
 30
0.0
  0
SPLINE
  5
DD
330
1F
100
AcDbEntity
  8
0
  6
Continuous
 62
     7
370
    25
100
AcDbSpline
210
0.0
220
0.0
230
1.0
 70
     8
 71
     3
 72
    23
 73
    19
 74
     0
 42
0.00000001
 43
0.00000001
 40
0.0
 40
0.0
 40
0.0
 40
0.0
 40
0.0627463997027248
 40
0.1236276765771827
 40
0.1825369082971368
 40
0.2404422548495592
 40
0.2978058338191888
 40
0.3543932385127238
 40
0.4113712919046529
 40
0.4684707202680026
 40
0.5260408205911096
 40
0.5849140654834645
 40
0.6449281865710345
 40
0.7079374866271196
 40
0.7740179219608064
 40
0.8446697354861982
 40
0.919478747042965
 40
1.0
 40
1.0
 40
1.0
 40
1.0
 10
2.610401572763933
 20
-5.03827173800204
 30
0.0
 10
2.610504165623059
 20
-5.029036783905708
 30
0.0
 10
2.610706301791304
 20
-5.010841382677341
 30
0.0
 10
2.613275553637993
 20
-4.984067112026569
 30
0.0
 10
2.61797843658582
 20
-4.958316687293774
 30
0.0
 10
2.624785301005367
 20
-4.933569802723686
 30
0.0
 10
2.633735663021199
 20
-4.909886266865962
 30
0.0
 10
2.64456342350583
 20
-4.88714636622356
 30
0.0
 10
2.657533633327691
 20
-4.865605006541055
 30
0.0
 10
2.672248355645297
 20
-4.845038807195829
 30
0.0
 10
2.68942252303292
 20
-4.82603177878161
 30
0.0
 10
2.709491203584897
 20
-4.809440733172544
 30
0.0
 10
2.732037053631839
 20
-4.794880162627615
 30
0.0
 10
2.757320122552662
 20
-4.783112588175911
 30
0.0
 10
2.784996478147287
 20
-4.773090565056941
 30
0.0
 10
2.815302999363327
 20
-4.765782401009446
 30
0.0
 10
2.848178773716649
 20
-4.760504958096429
 30
0.0
 10
2.871001465854798
 20
-4.759073853570268
 30
0.0
 10
2.882832462039403
 20
-4.75833198700666
 30
0.0
  0
SPLINE
  5
DE
330
1F
100
AcDbEntity
  8
0
  6
Continuous
 62
     7
370
    25
100
AcDbSpline
210
0.0
220
0.0
230
1.0
 70
     8
 71
     3
 72
    23
 73
    19
 74
     0
 42
0.00000001
 43
0.00000001
 40
0.0
 40
0.0
 40
0.0
 40
0.0
 40
0.077615055384572
 40
0.1511168124176208
 40
0.221532959745452
 40
0.2885440360677263
 40
0.3531762594410341
 40
0.4158804060421977
 40
0.4769090522606963
 40
0.5362350062333262
 40
0.5948049267156877
 40
0.6514968059483057
 40
0.7071544886136397
 40
0.7633387322919741
 40
0.8196821033913073
 40
0.8773896479775759
 40
0.9374356196542157
 40
1.0
 40
1.0
 40
1.0
 40
1.0
 10
2.953946203890796
 20
-5.718058375582607
 30
0.0
 10
2.963566713384417
 20
-5.718350534011087
 30
0.0
 10
2.982297882502396
 20
-5.718919367599033
 30
0.0
 10
3.00968195171072
 20
-5.721402563550883
 30
0.0
 10
3.035476759299532
 20
-5.725877691552821
 30
0.0
 10
3.059808037872272
 20
-5.731963769532865
 30
0.0
 10
3.08264192529908
 20
-5.739736034711328
 30
0.0
 10
3.104126688970442
 20
-5.749006061126735
 30
0.0
 10
3.123804726266105
 20
-5.760395406152956
 30
0.0
 10
3.142068360262521
 20
-5.773052109215836
 30
0.0
 10
3.158384338883663
 20
-5.787335700310623
 30
0.0
 10
3.172944624655574
 20
-5.802816049718702
 30
0.0
 10
3.184914896276926
 20
-5.820008618990725
 30
0.0
 10
3.195144095254637
 20
-5.838240779551677
 30
0.0
 10
3.2027699385087
 20
-5.85797733710037
 30
0.0
 10
3.20881471238319
 20
-5.878735453915328
 30
0.0
 10
3.212277488662419
 20
-5.900896249165187
 30
0.0
 10
3.212903131145763
 20
-5.916093444648173
 30
0.0
 10
3.213222377715427
 20
-5.92384811709388
 30
0.0
  0
SPLINE
  5
DF
330
1F
100
AcDbEntity
  8
0
  6
Continuous
 62
     7
370
    25
100
AcDbSpline
210
0.0
220
0.0
230
1.0
 70
     8
 71
     3
 72
    19
 73
    15
 74
     0
 42
0.00000001
 43
0.00000001
 40
0.0
 40
0.0
 40
0.0
 40
0.0
 40
0.0776918366827138
 40
0.1506408956872816
 40
0.2193303896098216
 40
0.2836237787811931
 40
0.3459467057247727
 40
0.4054919073299294
 40
0.4632436462863949
 40
0.5213038406227033
 40
0.6363794262185883
 40
0.7520644016499973
 40
0.871720061730111
 40
0.9999999999999999
 40
0.9999999999999999
 40
0.9999999999999999
 40
0.9999999999999999
 10
6.110486979853551
 20
-5.067725708063737
 30
0.0
 10
6.109894263148807
 20
-5.081810195252761
 30
0.0
 10
6.108745012737132
 20
-5.109119367696652
 30
0.0
 10
6.103348862655821
 20
-5.148590123775189
 30
0.0
 10
6.095313746639429
 20
-5.185110817797239
 30
0.0
 10
6.084203295397296
 20
-5.218823766187652
 30
0.0
 10
6.069933934752888
 20
-5.249506871129859
 30
0.0
 10
6.052700396331661
 20
-5.277269256063255
 30
0.0
 10
6.03222031884571
 20
-5.301715801225961
 30
0.0
 10
6.001775067456496
 20
-5.33060594073922
 30
0.0
 10
5.957537879247634
 20
-5.359392853178818
 30
0.0
 10
5.899065825187713
 20
-5.384973688883629
 30
0.0
 10
5.834216805860148
 20
-5.399435043388494
 30
0.0
 10
5.789207038025272
 20
-5.400888722120692
 30
0.0
 10
5.765919336388942
 20
-5.401640844120402
 30
0.0
  0
SPLINE
  5
E0
330
1F
100
AcDbEntity
  8
0
  6
Continuous
 62
     7
370
    25
100
AcDbSpline
210
0.0
220
0.0
230
1.0
 70
     8
 71
     3
 72
    15
 73
    11
 74
     0
 42
0.00000001
 43
0.00000001
 40
0.0
 40
0.0
 40
0.0
 40
0.0
 40
0.1292316690272134
 40
0.2505201029453842
 40
0.3704398923655547
 40
0.4910003161020564
 40
0.6130725283469104
 40
0.7342399309924081
 40
0.8624099407551957
 40
1.0
 40
1.0
 40
1.0
 40
1.0
 10
3.609549485369405
 20
0.4793337145590406
 30
0.0
 10
3.602072461905949
 20
0.4789345100997447
 30
0.0
 10
3.587577990837901
 20
0.4781606383159019
 30
0.0
 10
3.566918411735824
 20
0.471936027905277
 30
0.0
 10
3.548138795871628
 20
0.4625502731327567
 30
0.0
 10
3.531549169154153
 20
0.4495221740153864
 30
0.0
 10
3.517914677677459
 20
0.4333345075762392
 30
0.0
 10
3.507776616641821
 20
0.4142521947308568
 30
0.0
 10
3.501692568129135
 20
0.3925533982384262
 30
0.0
 10
3.500555645475992
 20
0.3772202705035695
 30
0.0
 10
3.499967034644475
 20
0.3692819599766151
 30
0.0
  0
SPLINE
  5
E1
330
1F
100
AcDbEntity
  8
0
  6
Continuous
 62
     7
370
    25
100
AcDbSpline
210
0.0
220
0.0
230
1.0
 70
     8
 71
     3
 72
     9
 73
     5
 74
     0
 42
0.00000001
 43
0.00000001
 40
0.0
 40
0.0
 40
0.0
 40
0.0
 40
0.5298197191073649
 40
0.9999999999999999
 40
0.9999999999999999
 40
0.9999999999999999
 40
0.9999999999999999
 10
3.213222377715427
 20
-5.923848117093881
 30
0.0
 10
3.213077920596172
 20
-5.933646979038691
 30
0.0
 10
3.21280526725005
 20
-5.952141688826615
 30
0.0
 10
3.209896829308704
 20
-5.970404504531468
 30
0.0
 10
3.208529339140483
 20
-5.978991320349466
 30
0.0
  0
SPLINE
  5
E2
330
1F
100
AcDbEntity
  8
0
  6
Continuous
 62
     7
370
    25
100
AcDbSpline
210
0.0
220
0.0
230
1.0
 70
     8
 71
     3
 72
    13
 73
     9
 74
     0
 42
0.00000001
 43
0.00000001
 40
0.0
 40
0.0
 40
0.0
 40
0.0
 40
0.1029035832880426
 40
0.2132285151338706
 40
0.3324378985832505
 40
0.4605913635628613
 40
0.7279131925347748
 40
1.0
 40
1.0
 40
1.0
 40
1.0
 10
4.67403332598279
 20
-1.65059106337955
 30
0.0
 10
4.669350496905484
 20
-1.63909236487493
 30
0.0
 10
4.65964711575126
 20
-1.615265688195955
 30
0.0
 10
4.648080148461201
 20
-1.576837193269513
 30
0.0
 10
4.637293421046753
 20
-1.535059532930863
 30
0.0
 10
4.625530788248577
 20
-1.474098995301112
 30
0.0
 10
4.614416430781019
 20
-1.394216826943289
 30
0.0
 10
4.61265142738246
 20
-1.329149453596619
 30
0.0
 10
4.611761129920687
 20
-1.296328373828634
 30
0.0
  0
SPLINE
  5
E3
330
1F
100
AcDbEntity
  8
0
  6
Continuous
 62
     7
370
    25
100
AcDbSpline
210
0.0
220
0.0
230
1.0
 70
     8
 71
     3
 72
    15
 73
    11
 74
     0
 42
0.00000001
 43
0.00000001
 40
0.0
 40
0.0
 40
0.0
 40
0.0
 40
0.1417265711425866
 40
0.2713597530253981
 40
0.3926548535689872
 40
0.5136598896865139
 40
0.6331663536090181
 40
0.7520377837497951
 40
0.8718980962940183
 40
0.9999999999999999
 40
0.9999999999999999
 40
0.9999999999999999
 40
0.9999999999999999
 10
3.499967034644475
 20
-2.469067770149217
 30
0.0
 10
3.500546004274713
 20
-2.477319050861396
 30
0.0
 10
3.501654540624703
 20
-2.493117538598375
 30
0.0
 10
3.50773706800523
 20
-2.515365695167959
 30
0.0
 10
3.517846730747578
 20
-2.534722071348219
 30
0.0
 10
3.531553754596101
 20
-2.550952523210313
 30
0.0
 10
3.548143106195896
 20
-2.563958791806051
 30
0.0
 10
3.566877416779675
 20
-2.573432110232791
 30
0.0
 10
3.58762168970765
 20
-2.579277581970616
 30
0.0
 10
3.602080034764349
 20
-2.580101687845335
 30
0.0
 10
3.609549485369405
 20
-2.580527436304126
 30
0.0
  0
SPLINE
  5
E4
330
1F
100
AcDbEntity
  8
0
  6
Continuous
 62
     7
370
    25
100
AcDbSpline
210
0.0
220
0.0
230
1.0
 70
     8
 71
     3
 72
    15
 73
    11
 74
     0
 42
0.00000001
 43
0.00000001
 40
0.0
 40
0.0
 40
0.0
 40
0.0
 40
0.1021499084578319
 40
0.2095789396476547
 40
0.3215760212455515
 40
0.4384072023015729
 40
0.5630844046358948
 40
0.6989174619011296
 40
0.8440770439476766
 40
1.0
 40
1.0
 40
1.0
 40
1.0
 10
2.651956733618229
 20
-5.267824112039899
 30
0.0
 10
2.648979858076835
 20
-5.260400860675981
 30
0.0
 10
2.642872261615444
 20
-5.245170723193966
 30
0.0
 10
2.634965274022993
 20
-5.221252950199071
 30
0.0
 10
2.627957285477147
 20
-5.195873626636162
 30
0.0
 10
2.621731850796262
 20
-5.16889583665034
 30
0.0
 10
2.616850219322601
 20
-5.139748886574991
 30
0.0
 10
2.613042994711643
 20
-5.108205604878647
 30
0.0
 10
2.611081938122718
 20
-5.074040942833181
 30
0.0
 10
2.610633702528882
 20
-5.050475617877209
 30
0.0
 10
2.610401572763934
 20
-5.038271738002041
 30
0.0
  0
SPLINE
  5
E5
330
1F
100
AcDbEntity
  8
0
  6
Continuous
 62
     7
370
    25
100
AcDbSpline
210
0.0
220
0.0
230
1.0
 70
     8
 71
     3
 72
    15
 73
    11
 74
     0
 42
0.00000001
 43
0.00000001
 40
0.0
 40
0.0
 40
0.0
 40
0.0
 40
0.1217280455799659
 40
0.2429299246788556
 40
0.3643030580806811
 40
0.489225982893193
 40
0.6150867347484346
 40
0.7403162444251981
 40
0.8680920280279933
 40
1.0
 40
1.0
 40
1.0
 40
1.0
 10
3.391323191634533
 20
-1.839261993391799
 30
0.0
 10
3.390943967699888
 20
-1.827340840153217
 30
0.0
 10
3.390187159016724
 20
-1.803550062567526
 30
0.0
 10
3.383233763703104
 20
-1.768448446888883
 30
0.0
 10
3.37260278446469
 20
-1.734051315354502
 30
0.0
 10
3.357956053032783
 20
-1.700609785041103
 30
0.0
 10
3.338962224431123
 20
-1.668984647920346
 30
0.0
 10
3.315990007770651
 20
-1.63977655673705
 30
0.0
 10
3.288839657250363
 20
-1.613449060016836
 30
0.0
 10
3.268104263783112
 20
-1.598717759858455
 30
0.0
 10
3.257571592248643
 20
-1.591234904706034
 30
0.0
  0
SPLINE
  5
E6
330
1F
100
AcDbEntity
  8
0
  6
Continuous
 62
     7
370
    25
100
AcDbSpline
210
0.0
220
0.0
230
1.0
 70
     8
 71
     3
 72
    13
 73
     9
 74
     0
 42
0.00000001
 43
0.00000001
 40
0.0
 40
0.0
 40
0.0
 40
0.0
 40
0.2245462975722383
 40
0.4597618270458557
 40
0.5835860099530276
 40
0.7150400439432163
 40
0.8532093110591602
 40
1.0
 40
1.0
 40
1.0
 40
1.0
 10
3.372984135132934
 20
-2.802825078494127
 30
0.0
 10
3.354694056376349
 20
-2.803599829843741
 30
0.0
 10
3.317244852729447
 20
-2.805186144558593
 30
0.0
 10
3.269698514882814
 20
-2.806880403108116
 30
0.0
 10
3.229733181097899
 20
-2.808296142608853
 30
0.0
 10
3.197656217218443
 20
-2.808551924385517
 30
0.0
 10
3.163713065253793
 20
-2.809222562103472
 30
0.0
 10
3.14048067358131
 20
-2.809127423439202
 30
0.0
 10
3.128513031437696
 20
-2.809078414903875
 30
0.0
  0
SPLINE
  5
E7
330
1F
100
AcDbEntity
  8
0
  6
Continuous
 62
     7
370
    25
100
AcDbSpline
210
0.0
220
0.0
230
1.0
 70
     8
 71
     3
 72
    15
 73
    11
 74
     0
 42
0.00000001
 43
0.00000001
 40
0.0
 40
0.0
 40
0.0
 40
0.0
 40
0.1427664678603647
 40
0.280689508970732
 40
0.4141330891934593
 40
0.544591101390188
 40
0.6695094593816218
 40
0.7870621866688121
 40
0.8967502197732914
 40
1.0
 40
1.0
 40
1.0
 40
1.0
 10
6.447679810497275
 20
-5.152536055503896
 30
0.0
 10
6.44665646477586
 20
-5.122048264042977
 30
0.0
 10
6.44464449086941
 20
-5.062106995319168
 30
0.0
 10
6.433481772998224
 20
-4.974225680003781
 30
0.0
 10
6.415484054786887
 20
-4.890199451005821
 30
0.0
 10
6.390768625813759
 20
-4.810826725284044
 30
0.0
 10
6.361938826850938
 20
-4.736494726074929
 30
0.0
 10
6.329471272178121
 20
-4.668616183480795
 30
0.0
 10
6.295185057324458
 20
-4.606745709496252
 30
0.0
 10
6.268199885928664
 20
-4.570084571682286
 30
0.0
 10
6.255115253507542
 20
-4.552308234248662
 30
0.0
  0
SPLINE
  5
E8
330
1F
100
AcDbEntity
  8
0
  6
Continuous
 62
     7
370
    25
100
AcDbSpline
210
0.0
220
0.0
230
1.0
 70
     8
 71
     3
 72
    15
 73
    11
 74
     0
 42
0.00000001
 43
0.00000001
 40
0.0
 40
0.0
 40
0.0
 40
0.0
 40
0.1328059311333918
 40
0.2582242993017393
 40
0.3783188831304701
 40
0.4978491979778402
 40
0.6169867175029206
 40
0.7383060259448483
 40
0.8637243941131988
 40
1.0
 40
1.0
 40
1.0
 40
1.0
 10
3.609669561161069
 20
-2.580555851186122
 30
0.0
 10
3.6174138561812
 20
-2.580133215247099
 30
0.0
 10
3.632471656221399
 20
-2.579311453234794
 30
0.0
 10
3.653854449733843
 20
-2.573275549801111
 30
0.0
 10
3.673024576283563
 20
-2.563797312912568
 30
0.0
 10
3.68957983256995
 20
-2.550789736261763
 30
0.0
 10
3.703176037824407
 20
-2.534621834669449
 30
0.0
 10
3.713139369854427
 20
-2.515593525594926
 30
0.0
 10
3.719070236400351
 20
-2.493889845735442
 30
0.0
 10
3.720036612807046
 20
-2.478647628892973
 30
0.0
 10
3.72053984766682
 20
-2.470710333650448
 30
0.0
  0
SPLINE
  5
E9
330
1F
100
AcDbEntity
  8
0
  6
Continuous
 62
     7
370
    25
100
AcDbSpline
210
0.0
220
0.0
230
1.0
 70
     8
 71
     3
 72
    15
 73
    11
 74
     0
 42
0.00000001
 43
0.00000001
 40
0.0
 40
0.0
 40
0.0
 40
0.0
 40
0.1365491703518771
 40
0.262283263742609
 40
0.3826657219239979
 40
0.502937537830078
 40
0.6232093537361579
 40
0.7429783093803973
 40
0.867428173586731
 40
0.9999999999999999
 40
0.9999999999999999
 40
0.9999999999999999
 40
0.9999999999999999
 10
3.72053984766682
 20
0.367639396475385
 30
0.0
 10
3.720031401939424
 20
0.3756518251154733
 30
0.0
 10
3.719054780811125
 20
0.3910420755930974
 30
0.0
 10
3.713209613930301
 20
0.4129428263595211
 30
0.0
 10
3.703045132838233
 20
0.4320759272234578
 30
0.0
 10
3.689613371892745
 20
0.448632250433572
 30
0.0
 10
3.673107468405591
 20
0.4621212183940941
 30
0.0
 10
3.653908664212121
 20
0.4718963457267767
 30
0.0
 10
3.632416417988332
 20
0.4778322054868873
 30
0.0
 10
3.617330700634095
 20
0.4788227774120688
 30
0.0
 10
3.609549485369405
 20
0.4793337145590406
 30
0.0
  0
SPLINE
  5
EA
330
1F
100
AcDbEntity
  8
0
  6
Continuous
 62
     7
370
    25
100
AcDbSpline
210
0.0
220
0.0
230
1.0
 70
     8
 71
     3
 72
     9
 73
     5
 74
     0
 42
0.00000001
 43
0.00000001
 40
0.0
 40
0.0
 40
0.0
 40
0.0
 40
0.4954832200593015
 40
1.0
 40
1.0
 40
1.0
 40
1.0
 10
3.074752991308983
 20
-4.047367807612005
 30
0.0
 10
3.057886113496217
 20
-4.035632179613002
 30
0.0
 10
3.023844844024473
 20
-4.01194696178141
 30
0.0
 10
2.988605683244246
 20
-3.99008344348591
 30
0.0
 10
2.970826935319594
 20
-3.979052931637291
 30
0.0
  0
SPLINE
  5
EB
330
1F
100
AcDbEntity
  8
0
  6
Continuous
 62
     7
370
    25
100
AcDbSpline
210
0.0
220
0.0
230
1.0
 70
     8
 71
     3
 72
    23
 73
    19
 74
     0
 42
0.00000001
 43
0.00000001
 40
0.0
 40
0.0
 40
0.0
 40
0.0
 40
0.0836589573329018
 40
0.1619397143234364
 40
0.2356212442367685
 40
0.3050902056689505
 40
0.3705187858797031
 40
0.4326979645128325
 40
0.4925401057191999
 40
0.5507914441495704
 40
0.6076165917779174
 40
0.6630911932764173
 40
0.718072468598152
 40
0.7723663099606802
 40
0.8272720225938026
 40
0.8831033026570783
 40
0.9405144793805741
 40
1.0
 40
1.0
 40
1.0
 40
1.0
 10
5.365630884944325
 20
-0.6506225401779524
 30
0.0
 10
5.397340325005921
 20
-0.6517132606018277
 30
0.0
 10
5.458720693930402
 20
-0.6538245820846695
 30
0.0
 10
5.54761888280699
 20
-0.6636277551178659
 30
0.0
 10
5.63021685304625
 20
-0.6791188437024575
 30
0.0
 10
5.706621789550865
 20
-0.6998593169031218
 30
0.0
 10
5.776821457368005
 20
-0.7258777937492739
 30
0.0
 10
5.84030848090574
 20
-0.758121545088545
 30
0.0
 10
5.897876305837108
 20
-0.7952887159090322
 30
0.0
 10
5.948269056569965
 20
-0.8386948849924176
 30
0.0
 10
5.992495553296638
 20
-0.8859950109564313
 30
0.0
 10
6.031420651060233
 20
-0.9362086198236778
 30
0.0
 10
6.064184866778358
 20
-0.9895320180267041
 30
0.0
 10
6.091189126270361
 20
-1.045752258260892
 30
0.0
 10
6.111687299345893
 20
-1.105025084550343
 30
0.0
 10
6.125868852964533
 20
-1.167272352600521
 30
0.0
 10
6.134734461530942
 20
-1.232294037577858
 30
0.0
 10
6.135771237761192
 20
-1.276633315242693
 30
0.0
 10
6.136298824726642
 20
-1.299196356592311
 30
0.0
  0
SPLINE
  5
EC
330
1F
100
AcDbEntity
  8
0
  6
Continuous
 62
     7
370
    25
100
AcDbSpline
210
0.0
220
0.0
230
1.0
 70
     8
 71
     3
 72
    15
 73
    11
 74
     0
 42
0.00000001
 43
0.00000001
 40
0.0
 40
0.0
 40
0.0
 40
0.0
 40
0.1292316690272137
 40
0.2505201029453841
 40
0.370439892365556
 40
0.4910003161020578
 40
0.6130725283469141
 40
0.7342399309924098
 40
0.8624099407551976
 40
0.9999999999999999
 40
0.9999999999999999
 40
0.9999999999999999
 40
0.9999999999999999
 10
3.609549485369405
 20
-2.359016015566792
 30
0.0
 10
3.602072461905948
 20
-2.359415220026088
 30
0.0
 10
3.587577990837901
 20
-2.360189091809931
 30
0.0
 10
3.566918411735824
 20
-2.366413702220555
 30
0.0
 10
3.548138795871628
 20
-2.375799456993076
 30
0.0
 10
3.531549169154153
 20
-2.388827556110446
 30
0.0
 10
3.51791467767746
 20
-2.405015222549594
 30
0.0
 10
3.50777661664182
 20
-2.424097535394976
 30
0.0
 10
3.501692568129136
 20
-2.445796331887407
 30
0.0
 10
3.500555645475992
 20
-2.461129459622263
 30
0.0
 10
3.499967034644475
 20
-2.469067770149217
 30
0.0
  0
SPLINE
  5
ED
330
1F
100
AcDbEntity
  8
0
  6
Continuous
 62
     7
370
    25
100
AcDbSpline
210
0.0
220
0.0
230
1.0
 70
     8
 71
     3
 72
    15
 73
    11
 74
     0
 42
0.00000001
 43
0.00000001
 40
0.0
 40
0.0
 40
0.0
 40
0.0
 40
0.1666408009789947
 40
0.3218691045221184
 40
0.4660809015860173
 40
0.6003964161609401
 40
0.7224364631524313
 40
0.829519012605356
 40
0.9216963265293234
 40
1.0
 40
1.0
 40
1.0
 40
1.0
 10
4.249166166227253
 20
-1.228316211147153
 30
0.0
 10
4.24980869908829
 20
-1.255636070137349
 30
0.0
 10
4.25104976055339
 20
-1.308404770822803
 30
0.0
 10
4.255713719302857
 20
-1.384723230678607
 30
0.0
 10
4.263919163659429
 20
-1.455413551554605
 30
0.0
 10
4.274870298212298
 20
-1.520207087559848
 30
0.0
 10
4.287861293635792
 20
-1.578410657284725
 30
0.0
 10
4.301878112441797
 20
-1.62918539768988
 30
0.0
 10
4.315482415052765
 20
-1.672719503056122
 30
0.0
 10
4.327313321162366
 20
-1.698079497133085
 30
0.0
 10
4.332747378197265
 20
-1.709727603621487
 30
0.0
  0
SPLINE
  5
EE
330
1F
100
AcDbEntity
  8
0
  6
Continuous
 62
     7
370
    25
100
AcDbSpline
210
0.0
220
0.0
230
1.0
 70
     8
 71
     3
 72
    23
 73
    19
 74
     0
 42
0.00000001
 43
0.00000001
 40
0.0
 40
0.0
 40
0.0
 40
0.0
 40
0.0645317911180448
 40
0.126242250323172
 40
0.1853449717750762
 40
0.2424790820143583
 40
0.2985219879762925
 40
0.3538070716612264
 40
0.4092658406180905
 40
0.4659243301416026
 40
0.5234886697070413
 40
0.5824025569079803
 40
0.6434886254929193
 40
0.7073104083697427
 40
0.7744564034256927
 40
0.8451149677336016
 40
0.920169683923384
 40
1.0
 40
1.0
 40
1.0
 40
1.0
 10
4.611761129920687
 20
-1.296328373828634
 30
0.0
 10
4.612429532014276
 20
-1.27212747726333
 30
0.0
 10
4.613737113641153
 20
-1.224783748082568
 30
0.0
 10
4.622806631724113
 20
-1.155745418077554
 30
0.0
 10
4.637827019499113
 20
-1.090612688948396
 30
0.0
 10
4.659355136069242
 20
-1.029567719230704
 30
0.0
 10
4.686394988233684
 20
-0.972357280679752
 30
0.0
 10
4.719321313640686
 20
-0.9190034570206489
 30
0.0
 10
4.758724197423005
 20
-0.869966585927924
 30
0.0
 10
4.803708227580803
 20
-0.8247741912699087
 30
0.0
 10
4.854891485141636
 20
-0.7845986921492026
 30
0.0
 10
4.911362170819299
 20
-0.7491105333668349
 30
0.0
 10
4.973566997410887
 20
-0.7190293994897783
 30
0.0
 10
5.041680133409572
 20
-0.6953554154468871
 30
0.0
 10
5.114667817359337
 20
-0.6753317961766178
 30
0.0
 10
5.193425224563506
 20
-0.6617621681269028
 30
0.0
 10
5.277628936252242
 20
-0.6531205298779054
 30
0.0
 10
5.335700062656638
 20
-0.6514721450662188
 30
0.0
 10
5.365630884944325
 20
-0.6506225401779524
 30
0.0
  0
SPLINE
  5
EF
330
1F
100
AcDbEntity
  8
0
  6
Continuous
 62
     7
370
    25
100
AcDbSpline
210
0.0
220
0.0
230
1.0
 70
     8
 71
     3
 72
    15
 73
    11
 74
     0
 42
0.00000001
 43
0.00000001
 40
0.0
 40
0.0
 40
0.0
 40
0.0
 40
0.1507460790547176
 40
0.2903281355993089
 40
0.423447807557351
 40
0.5505424610303827
 40
0.6727358811990023
 40
0.7865430162800462
 40
0.895694895145122
 40
1.0
 40
1.0
 40
1.0
 40
1.0
 10
3.391323191634533
 20
-3.246234958159862
 30
0.0
 10
3.390470178370356
 20
-3.230468863877577
 30
0.0
 10
3.388827324690958
 20
-3.2001042879804
 30
0.0
 10
3.379964137517396
 20
-3.156537968352996
 30
0.0
 10
3.366323380511878
 20
-3.116834931861527
 30
0.0
 10
3.347235887531156
 20
-3.081500701995065
 30
0.0
 10
3.325070894223488
 20
-3.050536850140664
 30
0.0
 10
3.300832325127935
 20
-3.023715763496329
 30
0.0
 10
3.275248302748998
 20
-3.000712344163794
 30
0.0
 10
3.256123083602379
 20
-2.98909941864305
 30
0.0
 10
3.246777603526272
 20
-2.983424797963026
 30
0.0
  0
SPLINE
  5
F0
330
1F
100
AcDbEntity
  8
0
  6
Continuous
 62
     7
370
    25
100
AcDbSpline
210
0.0
220
0.0
230
1.0
 70
     8
 71
     3
 72
    23
 73
    19
 74
     0
 42
0.00000001
 43
0.00000001
 40
0.0
 40
0.0
 40
0.0
 40
0.0
 40
0.0784288835623858
 40
0.1536049289760506
 40
0.2243929064215453
 40
0.2931101722031334
 40
0.3587646806539819
 40
0.4220874077330747
 40
0.4851058689589156
 40
0.5473662400497701
 40
0.60805875975109
 40
0.6676088294211758
 40
0.7243540933704606
 40
0.7805085055078232
 40
0.8349817090331344
 40
0.8895171439612876
 40
0.9442801556688019
 40
1.0
 40
1.0
 40
1.0
 40
1.0
 10
3.032991822560211
 20
-1.588184429632321
 30
0.0
 10
3.041144438274346
 20
-1.588601270902875
 30
0.0
 10
3.057111539944773
 20
-1.589417664951209
 30
0.0
 10
3.08023429673122
 20
-1.592807098391204
 30
0.0
 10
3.102121043229748
 20
-1.597373591830703
 30
0.0
 10
3.122465120619943
 20
-1.603950945614172
 30
0.0
 10
3.141382056154507
 20
-1.612124473518206
 30
0.0
 10
3.158683477517625
 20
-1.622172749267369
 30
0.0
 10
3.174713869809042
 20
-1.633558364609155
 30
0.0
 10
3.188916212694592
 20
-1.646764750608196
 30
0.0
 10
3.201595378351731
 20
-1.660917176373419
 30
0.0
 10
3.212822760798398
 20
-1.675539791792384
 30
0.0
 10
3.22236192753275
 20
-1.690764311330767
 30
0.0
 10
3.230121127547718
 20
-1.706394478347922
 30
0.0
 10
3.235944524050283
 20
-1.722584155729687
 30
0.0
 10
3.24055549649335
 20
-1.739010032740842
 30
0.0
 10
3.243129119286019
 20
-1.756036469794129
 30
0.0
 10
3.243526644479712
 20
-1.767528847771377
 30
0.0
 10
3.24372712845256
 20
-1.773324801413843
 30
0.0
  0
SPLINE
  5
F1
330
1F
100
AcDbEntity
  8
0
  6
Continuous
 62
     7
370
    25
100
AcDbSpline
210
0.0
220
0.0
230
1.0
 70
     8
 71
     3
 72
    23
 73
    19
 74
     0
 42
0.00000001
 43
0.00000001
 40
0.0
 40
0.0
 40
0.0
 40
0.0
 40
0.0921263499999275
 40
0.1784015722765607
 40
0.2579098877454553
 40
0.3315848532157263
 40
0.4002055426136356
 40
0.4640213597399009
 40
0.5247562218404839
 40
0.5831081247522615
 40
0.6394950929348138
 40
0.6939810312565332
 40
0.7466023797138162
 40
0.798011568620462
 40
0.8486402322636815
 40
0.8986935969052423
 40
0.9488673594868824
 40
0.9999999999999999
 40
0.9999999999999999
 40
0.9999999999999999
 40
0.9999999999999999
 10
3.032991822560211
 20
-3.540488247656546
 30
0.0
 10
3.049047071833614
 20
-3.539753276891979
 30
0.0
 10
3.080137869565962
 20
-3.538330014817924
 30
0.0
 10
3.124845144490934
 20
-3.532961792456885
 30
0.0
 10
3.165893754355074
 20
-3.52506943423768
 30
0.0
 10
3.203204220893025
 20
-3.514643349955109
 30
0.0
 10
3.236696446874041
 20
-3.50134763725699
 30
0.0
 10
3.266345533318141
 20
-3.485221058135779
 30
0.0
 10
3.292572256280498
 20
-3.466834957967972
 30
0.0
 10
3.314256143230399
 20
-3.445081433568941
 30
0.0
 10
3.333022268346238
 20
-3.422266375736396
 30
0.0
 10
3.349224621601582
 20
-3.398767382505512
 30
0.0
 10
3.363083222794923
 20
-3.374782971152472
 30
0.0
 10
3.373736875472792
 20
-3.349960630120844
 30
0.0
 10
3.38244618946691
 20
-3.324852268926384
 30
0.0
 10
3.38787305563351
 20
-3.299067388084594
 30
0.0
 10
3.391501708840305
 20
-3.27285530665573
 30
0.0
 10
3.391383071675053
 20
-3.255164223771594
 30
0.0
 10
3.391323191634533
 20
-3.246234958159862
 30
0.0
  0
SPLINE
  5
F2
330
1F
100
AcDbEntity
  8
0
  6
Continuous
 62
     7
370
    25
100
AcDbSpline
210
0.0
220
0.0
230
1.0
 70
     8
 71
     3
 72
    23
 73
    19
 74
     0
 42
0.00000001
 43
0.00000001
 40
0.0
 40
0.0
 40
0.0
 40
0.0
 40
0.0770284059198637
 40
0.1511149355056023
 40
0.2221820841996762
 40
0.2910678723494032
 40
0.35736805915228
 40
0.421960324051972
 40
0.4847203244703871
 40
0.5460364884207124
 40
0.6050665387157161
 40
0.6614182780974073
 40
0.7160992258354058
 40
0.7701794145653796
 40
0.824304468783972
 40
0.8800627464191892
 40
0.9382673128693784
 40
1.0
 40
1.0
 40
1.0
 40
1.0
 10
5.34104817554138
 20
-2.884371401258863
 30
0.0
 10
5.303751484764225
 20
-2.884657413715834
 30
0.0
 10
5.230582542033855
 20
-2.885218515214336
 30
0.0
 10
5.123222556146771
 20
-2.892780267940961
 30
0.0
 10
5.020299670819422
 20
-2.905225683467855
 30
0.0
 10
4.922113402405146
 20
-2.923752862585661
 30
0.0
 10
4.828210506237556
 20
-2.947092469964247
 30
0.0
 10
4.738752762080321
 20
-2.975450818669581
 30
0.0
 10
4.654221956234045
 20
-3.010261547033299
 30
0.0
 10
4.574411918030262
 20
-3.048972578423231
 30
0.0
 10
4.501083725889981
 20
-3.093447022594191
 30
0.0
 10
4.437078938320713
 20
-3.145607930959526
 30
0.0
 10
4.381769587277522
 20
-3.20367500037575
 30
0.0
 10
4.336529579356096
 20
-3.268599131264603
 30
0.0
 10
4.300281346559086
 20
-3.339529157441306
 30
0.0
 10
4.274383536803648
 20
-3.41690014132351
 30
0.0
 10
4.256630778032216
 20
-3.500369875347336
 30
0.0
 10
4.253055137053251
 20
-3.558391901541171
 30
0.0
 10
4.251214725344164
 20
-3.588256313829846
 30
0.0
  0
SPLINE
  5
F3
330
1F
100
AcDbEntity
  8
0
  6
Continuous
 62
     7
370
    25
100
AcDbSpline
210
0.0
220
0.0
230
1.0
 70
     8
 71
     3
 72
    15
 73
    11
 74
     0
 42
0.00000001
 43
0.00000001
 40
0.0
 40
0.0
 40
0.0
 40
0.0
 40
0.1553483357548122
 40
0.301559514697865
 40
0.4396397958199296
 40
0.5700386233730764
 40
0.6920814835531056
 40
0.8041822962716973
 40
0.9066757604566886
 40
1.0
 40
1.0
 40
1.0
 40
1.0
 10
2.46280550958196
 20
-5.009644202694885
 30
0.0
 10
2.463021170663872
 20
-5.024982467186028
 30
0.0
 10
2.463439808242994
 20
-5.054756842133678
 30
0.0
 10
2.466941285279595
 20
-5.098038088584366
 30
0.0
 10
2.471666051229069
 20
-5.138716348580372
 30
0.0
 10
2.478524160903253
 20
-5.176676720750794
 30
0.0
 10
2.486688140985915
 20
-5.211740382839925
 30
0.0
 10
2.4958069208729
 20
-5.243704315339315
 30
0.0
 10
2.505691432633669
 20
-5.27249047075611
 30
0.0
 10
2.513674689692932
 20
-5.290105585983038
 30
0.0
 10
2.517479408980052
 20
-5.298500726982658
 30
0.0
  0
SPLINE
  5
F4
330
1F
100
AcDbEntity
  8
0
  6
Continuous
 62
     7
370
    25
100
AcDbSpline
210
0.0
220
0.0
230
1.0
 70
     8
 71
     3
 72
    15
 73
    11
 74
     0
 42
0.00000001
 43
0.00000001
 40
0.0
 40
0.0
 40
0.0
 40
0.0
 40
0.1417265711425843
 40
0.2713597530253961
 40
0.3926548535689854
 40
0.5136598896865141
 40
0.6331663536090185
 40
0.7520377837497948
 40
0.871898096294018
 40
1.0
 40
1.0
 40
1.0
 40
1.0
 10
3.499967034644475
 20
0.3692819599766151
 30
0.0
 10
3.500546004274713
 20
0.3610306792644358
 30
0.0
 10
3.501654540624703
 20
0.3452321915274572
 30
0.0
 10
3.507737068005228
 20
0.322984034957873
 30
0.0
 10
3.517846730747579
 20
0.3036276587776137
 30
0.0
 10
3.5315537545961
 20
0.28739720691552
 30
0.0
 10
3.548143106195896
 20
0.2743909383197811
 30
0.0
 10
3.566877416779674
 20
0.2649176198930417
 30
0.0
 10
3.58762168970765
 20
0.2590721481552168
 30
0.0
 10
3.60208003476435
 20
0.2582480422804976
 30
0.0
 10
3.609549485369405
 20
0.257822293821707
 30
0.0
  0
SPLINE
  5
F5
330
1F
100
AcDbEntity
  8
0
  6
Continuous
 62
     7
370
    25
100
AcDbSpline
210
0.0
220
0.0
230
1.0
 70
     8
 71
     3
 72
    23
 73
    19
 74
     0
 42
0.00000001
 43
0.00000001
 40
0.0
 40
0.0
 40
0.0
 40
0.0
 40
0.0685646615944571
 40
0.1333489828565695
 40
0.1957290556390874
 40
0.255457391303638
 40
0.313951783606903
 40
0.3717269872524518
 40
0.429531680582769
 40
0.4887096538371204
 40
0.5485083286071467
 40
0.6083402430684092
 40
0.6691039004655494
 40
0.7309627203745425
 40
0.7944932729163178
 40
0.860337813564315
 40
0.9288278681370817
 40
1.0
 40
1.0
 40
1.0
 40
1.0
 10
3.37654012012346
 20
-4.986179009820167
 30
0.0
 10
3.37580442841666
 20
-4.970278610967517
 30
0.0
 10
3.374373607662696
 20
-4.939354488180247
 30
0.0
 10
3.367590953894244
 20
-4.894335370286521
 30
0.0
 10
3.356454732212808
 20
-4.852359034163896
 30
0.0
 10
3.342062660995393
 20
-4.812898602038363
 30
0.0
 10
3.32304121561115
 20
-4.776642489613137
 30
0.0
 10
3.300513122704632
 20
-4.743001784023155
 30
0.0
 10
3.273612368692895
 20
-4.712505248133827
 30
0.0
 10
3.243116861042744
 20
-4.684960124889614
 30
0.0
 10
3.209626610160323
 20
-4.660337286112524
 30
0.0
 10
3.173428111302752
 20
-4.63917490323894
 30
0.0
 10
3.135073543905444
 20
-4.621142473725303
 30
0.0
 10
3.094578403352288
 20
-4.605921309130672
 30
0.0
 10
3.05160617317044
 20
-4.594601282066437
 30
0.0
 10
3.006448406409479
 20
-4.586127404380463
 30
0.0
 10
2.958980904017927
 20
-4.580896722339821
 30
0.0
 10
2.926569170525981
 20
-4.580144965852207
 30
0.0
 10
2.910052085774076
 20
-4.579761869230059
 30
0.0
  0
SPLINE
  5
F6
330
1F
100
AcDbEntity
  8
0
  6
Continuous
 62
     7
370
    25
100
AcDbSpline
210
0.0
220
0.0
230
1.0
 70
     8
 71
     3
 72
    19
 73
    15
 74
     0
 42
0.00000001
 43
0.00000001
 40
0.0
 40
0.0
 40
0.0
 40
0.0
 40
0.0683709266482575
 40
0.1325339652812866
 40
0.1924219083573147
 40
0.2505308019372351
 40
0.3062736906858187
 40
0.360795087517834
 40
0.4168157156404034
 40
0.4745613115448243
 40
0.5943218228065585
 40
0.7205604859176691
 40
0.8548427980298542
 40
1.0
 40
1.0
 40
1.0
 40
1.0
 10
3.24372712845256
 20
-3.184990804756849
 30
0.0
 10
3.243349582205603
 20
-3.192361201507006
 30
0.0
 10
3.242617725791784
 20
-3.206648384011055
 30
0.0
 10
3.238773244870105
 20
-3.22709739316616
 30
0.0
 10
3.233170441794671
 20
-3.245967816644248
 30
0.0
 10
3.22544171736808
 20
-3.2630982495511
 30
0.0
 10
3.215785944037662
 20
-3.278554837448237
 30
0.0
 10
3.203997900978805
 20
-3.292139788634695
 30
0.0
 10
3.190391441080719
 20
-3.304262026380872
 30
0.0
 10
3.168933164148601
 20
-3.317586587983099
 30
0.0
 10
3.138972888524659
 20
-3.331143322093635
 30
0.0
 10
3.099474940502121
 20
-3.342581781980754
 30
0.0
 10
3.056077465432445
 20
-3.349238555796313
 30
0.0
 10
3.025916056484529
 20
-3.349553077695747
 30
0.0
 10
3.010248459349119
 20
-3.349716458737367
 30
0.0
  0
SPLINE
  5
F7
330
1F
100
AcDbEntity
  8
0
  6
Continuous
 62
     7
370
    25
100
AcDbSpline
210
0.0
220
0.0
230
1.0
 70
     8
 71
     3
 72
    15
 73
    11
 74
     0
 42
0.00000001
 43
0.00000001
 40
0.0
 40
0.0
 40
0.0
 40
0.0
 40
0.1102977218579821
 40
0.2273821406257893
 40
0.3489976582367509
 40
0.4767989344638703
 40
0.6063206271704855
 40
0.7354425975188391
 40
0.8661865403579352
 40
1.0
 40
1.0
 40
1.0
 40
1.0
 10
5.954166314974262
 20
-4.668569165553055
 30
0.0
 10
5.963672532962889
 20
-4.681473513675946
 30
0.0
 10
5.983269893262795
 20
-4.708076223597204
 30
0.0
 10
6.010493224825933
 20
-4.750908698123316
 30
0.0
 10
6.03626182893544
 20
-4.797524095776316
 30
0.0
 10
6.060877954154824
 20
-4.846800483199721
 30
0.0
 10
6.08187959836672
 20
-4.898966372552929
 30
0.0
 10
6.097556478750452
 20
-4.953413471700271
 30
0.0
 10
6.107672586854012
 20
-5.009868505577278
 30
0.0
 10
6.109541620391131
 20
-5.048291373964448
 30
0.0
 10
6.110486979853551
 20
-5.067725708063737
 30
0.0
  0
SPLINE
  5
F8
330
1F
100
AcDbEntity
  8
0
  6
Continuous
 62
     7
370
    25
100
AcDbSpline
210
0.0
220
0.0
230
1.0
 70
     8
 71
     3
 72
    23
 73
    19
 74
     0
 42
0.00000001
 43
0.00000001
 40
0.0
 40
0.0
 40
0.0
 40
0.0
 40
0.0770127973278631
 40
0.1510596892315645
 40
0.2223104484581747
 40
0.2910588496243422
 40
0.3574582127270567
 40
0.421483071640065
 40
0.4841490441028204
 40
0.5453114484518603
 40
0.6042543581690434
 40
0.6602733265618632
 40
0.7147472564208148
 40
0.7685557664543918
 40
0.8231245135475438
 40
0.8790797780451928
 40
0.9377671788215615
 40
0.9999999999999999
 40
0.9999999999999999
 40
0.9999999999999999
 40
0.9999999999999999
 10
5.357846360300059
 20
-4.297057768281419
 30
0.0
 10
5.395006410308272
 20
-4.296920220842895
 30
0.0
 10
5.467895407992285
 20
-4.29665042317239
 30
0.0
 10
5.574945983097735
 20
-4.289310392049618
 30
0.0
 10
5.677621821000346
 20
-4.277908230116814
 30
0.0
 10
5.775653288206855
 20
-4.260067565210546
 30
0.0
 10
5.86912991642244
 20
-4.237669090772487
 30
0.0
 10
5.958277119291184
 20
-4.2103474648211
 30
0.0
 10
6.042564507889529
 20
-4.17688423216742
 30
0.0
 10
6.122527991194788
 20
-4.139523640899204
 30
0.0
 10
6.195508013683194
 20
-4.095661232299053
 30
0.0
 10
6.260039594597764
 20
-4.0450431869725
 30
0.0
 10
6.314425998260933
 20
-3.987020123679872
 30
0.0
 10
6.360298464941502
 20
-3.922922812063948
 30
0.0
 10
6.395997767651882
 20
-3.851780084996143
 30
0.0
 10
6.42214907790722
 20
-3.774258688868791
 30
0.0
 10
6.439785105107324
 20
-3.690470644436511
 30
0.0
 10
6.44337431579719
 20
-3.632184217718269
 30
0.0
 10
6.445221539556981
 20
-3.602186515824848
 30
0.0
  0
SPLINE
  5
F9
330
1F
100
AcDbEntity
  8
0
  6
Continuous
 62
     7
370
    25
100
AcDbSpline
210
0.0
220
0.0
230
1.0
 70
     8
 71
     3
 72
    23
 73
    19
 74
     0
 42
0.00000001
 43
0.00000001
 40
0.0
 40
0.0
 40
0.0
 40
0.0
 40
0.0446276784314495
 40
0.0900246901904193
 40
0.1365400504155513
 40
0.1850365987734137
 40
0.2356242856566089
 40
0.2882409159999456
 40
0.3432910258919972
 40
0.4012938028949417
 40
0.4627726192311585
 40
0.5276687043234445
 40
0.5965484151043942
 40
0.6693907249021914
 40
0.7462275369561087
 40
0.8268361123297915
 40
0.9115057164444538
 40
1.0
 40
1.0
 40
1.0
 40
1.0
 10
5.765919336388942
 20
-5.401640844120402
 30
0.0
 10
5.747997682095975
 20
-5.400889868499422
 30
0.0
 10
5.711845423405163
 20
-5.399374971242936
 30
0.0
 10
5.657585666178516
 20
-5.390752653467286
 30
0.0
 10
5.602634073848993
 20
-5.377788393191159
 30
0.0
 10
5.547338967095969
 20
-5.358506321809096
 30
0.0
 10
5.49119175716719
 20
-5.334761438725138
 30
0.0
 10
5.434464233476922
 20
-5.305964210795941
 30
0.0
 10
5.377366400388375
 20
-5.271702312507899
 30
0.0
 10
5.319542703745707
 20
-5.232021746743305
 30
0.0
 10
5.26027701464202
 20
-5.187600129563438
 30
0.0
 10
5.198746566021359
 20
-5.138975078193482
 30
0.0
 10
5.134326800587619
 20
-5.086652831093028
 30
0.0
 10
5.067622297528696
 20
-5.02958056783007
 30
0.0
 10
4.998365180306569
 20
-4.968265043035508
 30
0.0
 10
4.927221587328023
 20
-4.901965812999218
 30
0.0
 10
4.852997755957317
 20
-4.832110930221199
 30
0.0
 10
4.803162435980435
 20
-4.783596154984396
 30
0.0
 10
4.777694418390564
 20
-4.758802993233398
 30
0.0
  0
SPLINE
  5
FA
330
1F
100
AcDbEntity
  8
0
  6
Continuous
 62
     7
370
    25
100
AcDbSpline
210
0.0
220
0.0
230
1.0
 70
     8
 71
     3
 72
    15
 73
    11
 74
     0
 42
0.00000001
 43
0.00000001
 40
0.0
 40
0.0
 40
0.0
 40
0.0
 40
0.1328059311333918
 40
0.2582242993017392
 40
0.3783188831304689
 40
0.4978491979778404
 40
0.6169867175029208
 40
0.7383060259448484
 40
0.8637243941131963
 40
1.0
 40
1.0
 40
1.0
 40
1.0
 10
3.609669561161069
 20
0.2577938789397102
 30
0.0
 10
3.617413856181199
 20
0.2582165148787341
 30
0.0
 10
3.632471656221398
 20
0.2590382768910388
 30
0.0
 10
3.653854449733843
 20
0.2650741803247214
 30
0.0
 10
3.673024576283564
 20
0.274552417213265
 30
0.0
 10
3.689579832569949
 20
0.2875599938640702
 30
0.0
 10
3.703176037824407
 20
0.3037278954563849
 30
0.0
 10
3.713139369854427
 20
0.3227562045309064
 30
0.0
 10
3.719070236400352
 20
0.3444598843903905
 30
0.0
 10
3.720036612807047
 20
0.3597021012328596
 30
0.0
 10
3.72053984766682
 20
0.367639396475385
 30
0.0
  0
SPLINE
  5
FB
330
1F
100
AcDbEntity
  8
0
  6
Continuous
 62
     7
370
    25
100
AcDbSpline
210
0.0
220
0.0
230
1.0
 70
     8
 71
     3
 72
    23
 73
    19
 74
     0
 42
0.00000001
 43
0.00000001
 40
0.0
 40
0.0
 40
0.0
 40
0.0
 40
0.0683844959244926
 40
0.13400361912215
 40
0.1979421310792213
 40
0.2597438515092826
 40
0.3204759872714729
 40
0.3799353751273353
 40
0.4392537523787113
 40
0.4980225178708035
 40
0.5562520651986739
 40
0.613851394936519
 40
0.6716152668690158
 40
0.7308005519986206
 40
0.7924122729117328
 40
0.8573890774851535
 40
0.926241408551476
 40
1.0
 40
1.0
 40
1.0
 40
1.0
 10
2.952758736806062
 20
-5.343788549230863
 30
0.0
 10
2.967079487644445
 20
-5.343664078489447
 30
0.0
 10
2.995141878321549
 20
-5.343420170428138
 30
0.0
 10
3.03647513658762
 20
-5.339854071235131
 30
0.0
 10
3.07607714533719
 20
-5.333564368810817
 30
0.0
 10
3.114099677418547
 20
-5.324570031678451
 30
0.0
 10
3.150516981267648
 20
-5.313218930191345
 30
0.0
 10
3.18525955612334
 20
-5.298748675192306
 30
0.0
 10
3.218293737122945
 20
-5.281625806131315
 30
0.0
 10
3.2496438779118
 20
-5.262039765636167
 30
0.0
 10
3.278435024501705
 20
-5.239367144707347
 30
0.0
 10
3.303783272780147
 20
-5.213143484008674
 30
0.0
 10
3.325233811894121
 20
-5.183435922608992
 30
0.0
 10
3.343348858869393
 20
-5.150597060147459
 30
0.0
 10
3.356931161154632
 20
-5.114040235126349
 30
0.0
 10
3.367572179418038
 20
-5.074480917077926
 30
0.0
 10
3.374423523292956
 20
-5.031454375452373
 30
0.0
 10
3.375818589635996
 20
-5.00161301036478
 30
0.0
 10
3.37654012012346
 20
-4.986179009820167
 30
0.0
  0
SPLINE
  5
FC
330
1F
100
AcDbEntity
  8
0
  6
Continuous
 62
     7
370
    25
100
AcDbSpline
210
0.0
220
0.0
230
1.0
 70
     8
 71
     3
 72
    23
 73
    19
 74
     0
 42
0.00000001
 43
0.00000001
 40
0.0
 40
0.0
 40
0.0
 40
0.0
 40
0.0709472396277016
 40
0.1386220850093713
 40
0.2036674244778667
 40
0.2662339202870609
 40
0.3268794402249195
 40
0.3861658655825571
 40
0.444898844286384
 40
0.5033329613312589
 40
0.561363154565146
 40
0.6190377217061945
 40
0.6772545337725311
 40
0.7365573634422167
 40
0.7977563729131764
 40
0.8618333705054003
 40
0.9289966961074598
 40
0.9999999999999999
 40
0.9999999999999999
 40
0.9999999999999999
 40
0.9999999999999999
 10
5.343096734658292
 20
-0.2118211773353892
 30
0.0
 10
5.303183119364898
 20
-0.2127040902699732
 30
0.0
 10
5.225196877739905
 20
-0.214429192367194
 30
0.0
 10
5.111206226520948
 20
-0.2273857354764685
 30
0.0
 10
5.003242836970196
 20
-0.2481624429104448
 30
0.0
 10
4.901119325423249
 20
-0.2766984155298995
 30
0.0
 10
4.805168318868838
 20
-0.3136360659678348
 30
0.0
 10
4.715260721303788
 20
-0.3589279985336308
 30
0.0
 10
4.631476640439987
 20
-0.4124177850185194
 30
0.0
 10
4.553716018575191
 20
-0.4732669999443526
 30
0.0
 10
4.483994851706796
 20
-0.542354333223894
 30
0.0
 10
4.422175308179341
 20
-0.6184805950648091
 30
0.0
 10
4.370555007542626
 20
-0.7027399018035929
 30
0.0
 10
4.327900891296576
 20
-0.793949794697454
 30
0.0
 10
4.293498984598083
 20
-0.8921342244222167
 30
0.0
 10
4.269462492380698
 20
-0.9978475330355908
 30
0.0
 10
4.253527260344315
 20
-1.110674046139802
 30
0.0
 10
4.250646551509608
 20
-1.188382257651393
 30
0.0
 10
4.249166166227253
 20
-1.228316211147153
 30
0.0
  0
SPLINE
  5
FD
330
1F
100
AcDbEntity
  8
0
  6
Continuous
 62
     7
370
    25
100
AcDbSpline
210
0.0
220
0.0
230
1.0
 70
     8
 71
     3
 72
    23
 73
    19
 74
     0
 42
0.00000001
 43
0.00000001
 40
0.0
 40
0.0
 40
0.0
 40
0.0
 40
0.094395510125889
 40
0.181690190723323
 40
0.2627140468540117
 40
0.3374571563584205
 40
0.4071169218521856
 40
0.4717126459416071
 40
0.5326275715906298
 40
0.5911371035958051
 40
0.6472966442689667
 40
0.7015073140494947
 40
0.7531941048301747
 40
0.803407609266812
 40
0.8530364708357447
 40
0.9017300824276722
 40
0.9508101167481194
 40
0.9999999999999999
 40
0.9999999999999999
 40
0.9999999999999999
 40
0.9999999999999999
 10
3.02650406337399
 20
-2.128822244313539
 30
0.0
 10
3.042996828142498
 20
-2.127966168833606
 30
0.0
 10
3.074741702155559
 20
-2.126318415492209
 30
0.0
 10
3.120475065589028
 20
-2.121353732967554
 30
0.0
 10
3.162286859299841
 20
-2.113401892397039
 30
0.0
 10
3.200392381618452
 20
-2.103005320829086
 30
0.0
 10
3.234472044747404
 20
-2.089591695630212
 30
0.0
 10
3.264931838499401
 20
-2.073989329412814
 30
0.0
 10
3.291294313497482
 20
-2.055294255226532
 30
0.0
 10
3.313554382465181
 20
-2.033997365154859
 30
0.0
 10
3.332511961046692
 20
-2.011289437838446
 30
0.0
 10
3.348972961162543
 20
-1.988167120499443
 30
0.0
 10
3.362702863027611
 20
-1.964514970244347
 30
0.0
 10
3.373882985980617
 20
-1.940430317302023
 30
0.0
 10
3.382275023864187
 20
-1.91579170243894
 30
0.0
 10
3.38830376602994
 20
-1.890677973529092
 30
0.0
 10
3.39137808901997
 20
-1.865075166255894
 30
0.0
 10
3.391341504394793
 20
-1.847872794114764
 30
0.0
 10
3.391323191634533
 20
-1.839261993391799
 30
0.0
  0
SPLINE
  5
FE
330
1F
100
AcDbEntity
  8
0
  6
Continuous
 62
     7
370
    25
100
AcDbSpline
210
0.0
220
0.0
230
1.0
 70
     8
 71
     3
 72
    31
 73
    27
 74
     0
 42
0.00000001
 43
0.00000001
 40
0.0
 40
0.0
 40
0.0
 40
0.0
 40
0.0624102745373563
 40
0.1226727684187296
 40
0.1812242376920498
 40
0.2386214228406945
 40
0.2956390205662398
 40
0.3525167375650589
 40
0.4097921187781749
 40
0.4681419626502202
 40
0.4975436909940603
 40
0.5271460781868372
 40
0.5569138842041267
 40
0.5867850684412024
 40
0.6169922720699315
 40
0.6478260568810439
 40
0.679181853372045
 40
0.7111494018497461
 40
0.7438008707255505
 40
0.7773620620759054
 40
0.8119772345381286
 40
0.8471606948656158
 40
0.8837974350177776
 40
0.9213810094211765
 40
0.9600239269909544
 40
1.0
 40
1.0
 40
1.0
 40
1.0
 10
6.473901367193751
 20
-1.279530189069955
 30
0.0
 10
6.473214983818324
 20
-1.243022962168158
 30
0.0
 10
6.471865838193112
 20
-1.171264864250266
 30
0.0
 10
6.45824087520857
 20
-1.0659908998087
 30
0.0
 10
6.436813493209066
 20
-0.9650930929429734
 30
0.0
 10
6.405868624946222
 20
-0.8686234975362165
 30
0.0
 10
6.366000228649361
 20
-0.776580358109701
 30
0.0
 10
6.317408728925112
 20
-0.6889101478794861
 30
0.0
 10
6.260165030376434
 20
-0.6056770292312487
 30
0.0
 10
6.205346725081304
 20
-0.540800714496527
 30
0.0
 10
6.157492137884656
 20
-0.4915915774299974
 30
0.0
 10
6.118991252799404
 20
-0.4567205789677759
 30
0.0
 10
6.077978453114786
 20
-0.4244041005106322
 30
0.0
 10
6.034777291489637
 20
-0.3944675167466633
 30
0.0
 10
5.989542035483477
 20
-0.3665194579342155
 30
0.0
 10
5.942135253358397
 20
-0.34052483048213
 30
0.0
 10
5.891930332729296
 20
-0.3178438744770196
 30
0.0
 10
5.839854086629162
 20
-0.2969195536953535
 30
0.0
 10
5.785662325210281
 20
-0.2778877300853236
 30
0.0
 10
5.728949375690178
 20
-0.2617249836868987
 30
0.0
 10
5.67026653491433
 20
-0.2471695684177
 30
0.0
 10
5.609014783938351
 20
-0.236063692690888
 30
0.0
 10
5.545851711046589
 20
-0.2258449217843278
 30
0.0
 10
5.48016365717898
 20
-0.219281189235069
 30
0.0
 10
5.412404745264294
 20
-0.2141718872338512
 30
0.0
 10
5.366459107494699
 20
-0.2126135555987085
 30
0.0
 10
5.343096734658292
 20
-0.2118211773353892
 30
0.0
  0
SPLINE
  5
FF
330
1F
100
AcDbEntity
  8
0
  6
Continuous
 62
     7
370
    25
100
AcDbSpline
210
0.0
220
0.0
230
1.0
 70
     8
 71
     3
 72
    15
 73
    11
 74
     0
 42
0.00000001
 43
0.00000001
 40
0.0
 40
0.0
 40
0.0
 40
0.0
 40
0.0668949763293817
 40
0.1493556299063211
 40
0.2501626320318166
 40
0.3673178182982093
 40
0.5011453378336627
 40
0.6508714866540569
 40
0.8166732991522109
 40
1.0
 40
1.0
 40
1.0
 40
1.0
 10
6.395368333031956
 20
-1.729886305572148
 30
0.0
 10
6.399843448826588
 20
-1.720636962074736
 30
0.0
 10
6.409834987430625
 20
-1.699986061213753
 30
0.0
 10
6.422844717385836
 20
-1.663767138109022
 30
0.0
 10
6.434967405557249
 20
-1.619257720897476
 30
0.0
 10
6.448043100519699
 20
-1.566834377453514
 30
0.0
 10
6.458811613843658
 20
-1.50622410822966
 30
0.0
 10
6.467602370482766
 20
-1.437759093858071
 30
0.0
 10
6.472015985268494
 20
-1.361252324246828
 30
0.0
 10
6.473252221802773
 20
-1.307667484055223
 30
0.0
 10
6.47390136719375
 20
-1.279530189069955
 30
0.0
  0
SPLINE
  5
100
330
1F
100
AcDbEntity
  8
0
  6
Continuous
 62
     7
370
    25
100
AcDbSpline
210
0.0
220
0.0
230
1.0
 70
     8
 71
     3
 72
    23
 73
    19
 74
     0
 42
0.00000001
 43
0.00000001
 40
0.0
 40
0.0
 40
0.0
 40
0.0
 40
0.0814588721405012
 40
0.1585678023680164
 40
0.2313430922268851
 40
0.3006020339989733
 40
0.3674692079812446
 40
0.4312745806419639
 40
0.4940605712636222
 40
0.5559980635500907
 40
0.6163057427323848
 40
0.6745038982056325
 40
0.7303538445708188
 40
0.7852334312142034
 40
0.8387279778709699
 40
0.8920253415572521
 40
0.9455451155423032
 40
1.0
 40
1.0
 40
1.0
 40
1.0
 10
3.024882123577435
 20
-2.999850432975328
 30
0.0
 10
3.033548098742164
 20
-3.000261344430207
 30
0.0
 10
3.050417281940241
 20
-3.001061224475875
 30
0.0
 10
3.074825163914196
 20
-3.00449388735826
 30
0.0
 10
3.097750654499766
 20
-3.008960499827867
 30
0.0
 10
3.118987148713072
 20
-3.015677725607584
 30
0.0
 10
3.138725471678932
 20
-3.023733662346176
 30
0.0
 10
3.156750326392333
 20
-3.033774504270308
 30
0.0
 10
3.173295595184957
 20
-3.045213840633342
 30
0.0
 10
3.187934765225718
 20
-3.058444455930954
 30
0.0
 10
3.201154446201714
 20
-3.072422675047325
 30
0.0
 10
3.212289050886708
 20
-3.08729897609149
 30
0.0
 10
3.222193978119868
 20
-3.102343103784865
 30
0.0
 10
3.229803809778104
 20
-3.118125311821642
 30
0.0
 10
3.236015639348913
 20
-3.134193005388814
 30
0.0
 10
3.240534497610983
 20
-3.150684236860418
 30
0.0
 10
3.243134485426322
 20
-3.167700377477144
 30
0.0
 10
3.243528443490808
 20
-3.179194148539466
 30
0.0
 10
3.24372712845256
 20
-3.184990804756849
 30
0.0
  0
SPLINE
  5
101
330
1F
100
AcDbEntity
  8
0
  6
Continuous
 62
     7
370
    25
100
AcDbSpline
210
0.0
220
0.0
230
1.0
 70
     8
 71
     3
 72
    23
 73
    19
 74
     0
 42
0.00000001
 43
0.00000001
 40
0.0
 40
0.0
 40
0.0
 40
0.0
 40
0.0630964580266856
 40
0.1242202569545369
 40
0.1833730546298715
 40
0.2414908846417137
 40
0.2983799311602011
 40
0.3551555828550256
 40
0.4119758095048152
 40
0.4699098578552661
 40
0.5283541507260371
 40
0.5873472038019525
 40
0.6477437033740013
 40
0.7105464413238843
 40
0.7767009976807492
 40
0.8464657991812784
 40
0.9207564145072696
 40
1.0
 40
1.0
 40
1.0
 40
1.0
 10
5.805661383257036
 20
-5.817908056676933
 30
0.0
 10
5.827671699575932
 20
-5.817625133090958
 30
0.0
 10
5.871004197695362
 20
-5.817068131293275
 30
0.0
 10
5.934585997583901
 20
-5.809381172418028
 30
0.0
 10
5.995642719936636
 20
-5.797228865721479
 30
0.0
 10
6.053911798829995
 20
-5.779732177594785
 30
0.0
 10
6.10918533036134
 20
-5.75643220818856
 30
0.0
 10
6.161803859650642
 20
-5.728608149309108
 30
0.0
 10
6.211729459332711
 20
-5.695511962458794
 30
0.0
 10
6.258823242411073
 20
-5.657585310065268
 30
0.0
 10
6.302243539683755
 20
-5.614283332659268
 30
0.0
 10
6.339519245674072
 20
-5.564522253222126
 30
0.0
 10
6.371843852830228
 20
-5.509675695077344
 30
0.0
 10
6.397939575958447
 20
-5.448866189631214
 30
0.0
 10
6.418752300340007
 20
-5.382673529733951
 30
0.0
 10
6.434154435887611
 20
-5.310940302088253
 30
0.0
 10
6.44461601918738
 20
-5.233676105368311
 30
0.0
 10
6.446636816608361
 20
-5.180158229338439
 30
0.0
 10
6.447679810497275
 20
-5.152536055503896
 30
0.0
  0
SPLINE
  5
102
330
1F
100
AcDbEntity
  8
0
  6
Continuous
 62
     7
370
    25
100
AcDbSpline
210
0.0
220
0.0
230
1.0
 70
     8
 71
     3
 72
    19
 73
    15
 74
     0
 42
0.00000001
 43
0.00000001
 40
0.0
 40
0.0
 40
0.0
 40
0.0
 40
0.1382668351291065
 40
0.2720769815769452
 40
0.4011841258953119
 40
0.5264080115806111
 40
0.5876306313077038
 40
0.6474286809632791
 40
0.7068372794323396
 40
0.765363941668521
 40
0.8236313674514153
 40
0.8819507327119674
 40
0.9406323871159964
 40
1.0
 40
1.0
 40
1.0
 40
1.0
 10
4.794876707983664
 20
-5.251955590255736
 30
0.0
 10
4.833827982080221
 20
-5.290515738347947
 30
0.0
 10
4.910475032508991
 20
-5.366393143745216
 30
0.0
 10
5.030166199693273
 20
-5.471251190238786
 30
0.0
 10
5.151470897686417
 20
-5.565926042955477
 30
0.0
 10
5.253535621953174
 20
-5.638379438862958
 30
0.0
 10
5.336864829923058
 20
-5.689299728670489
 30
0.0
 10
5.40038972854946
 20
-5.72226735483379
 30
0.0
 10
5.464975571399997
 20
-5.750519352038388
 30
0.0
 10
5.530798148353378
 20
-5.774031790701133
 30
0.0
 10
5.597763088630271
 20
-5.792521241263819
 30
0.0
 10
5.665956502295123
 20
-5.806036020968887
 30
0.0
 10
5.735391634704347
 20
-5.814775263519218
 30
0.0
 10
5.782147570898892
 20
-5.816859754783378
 30
0.0
 10
5.805661383257036
 20
-5.817908056676933
 30
0.0
  0
SPLINE
  5
103
330
1F
100
AcDbEntity
  8
0
  6
Continuous
 62
     7
370
    25
100
AcDbSpline
210
0.0
220
0.0
230
1.0
 70
     8
 71
     3
 72
    19
 73
    15
 74
     0
 42
0.00000001
 43
0.00000001
 40
0.0
 40
0.0
 40
0.0
 40
0.0
 40
0.0674103953818312
 40
0.1306376978457416
 40
0.190315637332888
 40
0.2472655453380245
 40
0.3032019217716544
 40
0.3580060567222411
 40
0.4138302424166196
 40
0.4717669402864103
 40
0.5920667378122001
 40
0.71855645496348
 40
0.8539070866505952
 40
1.0
 40
1.0
 40
1.0
 40
1.0
 10
3.24372712845256
 20
-1.773324801413843
 30
0.0
 10
3.243350250886435
 20
-1.780617011160435
 30
0.0
 10
3.242619882560759
 20
-1.794748918978319
 30
0.0
 10
3.238754948516005
 20
-1.815041119182659
 30
0.0
 10
3.23315201272203
 20
-1.833708884888066
 30
0.0
 10
3.225693587826348
 20
-1.850902012930545
 30
0.0
 10
3.215760048085468
 20
-1.866190913715446
 30
0.0
 10
3.203778385168793
 20
-1.879715721418089
 30
0.0
 10
3.190099932465714
 20
-1.891879180610224
 30
0.0
 10
3.168718448130305
 20
-1.905590058530984
 30
0.0
 10
3.13853268259931
 20
-1.919273413402951
 30
0.0
 10
3.098670435887298
 20
-1.930630446327696
 30
0.0
 10
3.054925606718819
 20
-1.937652800088501
 30
0.0
 10
3.024433742511969
 20
-1.937914573129813
 30
0.0
 10
3.008605895847889
 20
-1.93805045539436
 30
0.0
  0
SPLINE
  5
104
330
1F
100
AcDbEntity
  8
0
  6
Continuous
 62
     7
370
    25
100
AcDbSpline
210
0.0
220
0.0
230
1.0
 70
     8
 71
     3
 72
    23
 73
    19
 74
     0
 42
0.00000001
 43
0.00000001
 40
0.0
 40
0.0
 40
0.0
 40
0.0
 40
0.0699567040771457
 40
0.1369605466357808
 40
0.2011137310365866
 40
0.2628180049822438
 40
0.3228795251744017
 40
0.3816722090414996
 40
0.4398374060893532
 40
0.4980833294425272
 40
0.5560327065621643
 40
0.6139704992123478
 40
0.6724799259287616
 40
0.7323548902418018
 40
0.7943368459030189
 40
0.859494478683952
 40
0.9276595323009105
 40
1.0
 40
1.0
 40
1.0
 40
1.0
 10
2.910052085774077
 20
-4.57976186923006
 30
0.0
 10
2.893689497145108
 20
-4.580124829603048
 30
0.0
 10
2.861654982189564
 20
-4.58083542984855
 30
0.0
 10
2.814871458590176
 20
-4.586315874869494
 30
0.0
 10
2.770603551212392
 20
-4.595191578195917
 30
0.0
 10
2.728827942515824
 20
-4.607435225460033
 30
0.0
 10
2.689454024747092
 20
-4.622856050618267
 30
0.0
 10
2.652612879856644
 20
-4.641925225568659
 30
0.0
 10
2.618469225245965
 20
-4.664686358508073
 30
0.0
 10
2.586674247696809
 20
-4.690333494238518
 30
0.0
 10
2.558206075149379
 20
-4.719583855400742
 30
0.0
 10
2.533149146174478
 20
-4.751875132501451
 30
0.0
 10
2.511936734120282
 20
-4.787347293695308
 30
0.0
 10
2.49451257364981
 20
-4.82585509046762
 30
0.0
 10
2.480934094207656
 20
-4.867510268845667
 30
0.0
 10
2.470939716796401
 20
-4.912129514170352
 30
0.0
 10
2.464475487132286
 20
-4.959872562735637
 30
0.0
 10
2.463373088786043
 20
-4.99272819817226
 30
0.0
 10
2.46280550958196
 20
-5.009644202694885
 30
0.0
  0
SPLINE
  5
105
330
1F
100
AcDbEntity
  8
0
  6
Continuous
 62
     7
370
    25
100
AcDbSpline
210
0.0
220
0.0
230
1.0
 70
     8
 71
     3
 72
    23
 73
    19
 74
     0
 42
0.00000001
 43
0.00000001
 40
0.0
 40
0.0
 40
0.0
 40
0.0
 40
0.055713004023201
 40
0.1091210160180268
 40
0.1607528750467753
 40
0.2115114496931568
 40
0.2625791902652503
 40
0.3144651004960627
 40
0.36821381849596
 40
0.424404606307536
 40
0.4834625566129252
 40
0.5453335868664062
 40
0.6105134814414401
 40
0.6795942442991905
 40
0.7526836591286375
 40
0.8303701508785871
 40
0.9126427052583406
 40
1.0
 40
1.0
 40
1.0
 40
1.0
 10
4.251214725344164
 20
-3.588297525077707
 30
0.0
 10
4.252349551887953
 20
-3.615657486288509
 30
0.0
 10
4.25457225424683
 20
-3.669245455881626
 30
0.0
 10
4.268707316436375
 20
-3.747179116187271
 30
0.0
 10
4.291630449676884
 20
-3.820381582240861
 30
0.0
 10
4.32397041424006
 20
-3.888719978791942
 30
0.0
 10
4.365277864760594
 20
-3.952149612505379
 30
0.0
 10
4.415342781564439
 20
-4.010869953600736
 30
0.0
 10
4.474481541249625
 20
-4.064261476218108
 30
0.0
 10
4.542148938980215
 20
-4.112540583452258
 30
0.0
 10
4.617590830265125
 20
-4.15614095392317
 30
0.0
 10
4.701344513130402
 20
-4.193048528387824
 30
0.0
 10
4.792234945843998
 20
-4.225172355746587
 30
0.0
 10
4.890800924977464
 20
-4.25111428926131
 30
0.0
 10
4.996888359651051
 20
-4.271536828465826
 30
0.0
 10
5.110469638028373
 20
-4.285995299035889
 30
0.0
 10
5.231642741403533
 20
-4.295148686183599
 30
0.0
 10
5.314946133589566
 20
-4.296408816567343
 30
0.0
 10
5.357846360300059
 20
-4.297057768281419
 30
0.0
  0
SPLINE
  5
106
330
1F
100
AcDbEntity
  8
0
  6
Continuous
 62
     7
370
    25
100
AcDbSpline
210
0.0
220
0.0
230
1.0
 70
     8
 71
     3
 72
    23
 73
    19
 74
     0
 42
0.00000001
 43
0.00000001
 40
0.0
 40
0.0
 40
0.0
 40
0.0
 40
0.0590528877221088
 40
0.1153789040459343
 40
0.1692223658669176
 40
0.2220189594736829
 40
0.2748666736616541
 40
0.3283817200351254
 40
0.3835157874879223
 40
0.4413708974311739
 40
0.5018903876307212
 40
0.564221065059524
 40
0.6287819255378949
 40
0.69621905755224
 40
0.7669277536956063
 40
0.8408983888179786
 40
0.9185926817349024
 40
1.0
 40
1.0
 40
1.0
 40
1.0
 10
6.445221539556981
 20
-3.602186515824848
 30
0.0
 10
6.443758391471005
 20
-3.57315653217535
 30
0.0
 10
6.440899658746347
 20
-3.516437075648305
 30
0.0
 10
6.424579965271072
 20
-3.434542144556516
 30
0.0
 10
6.399508376234905
 20
-3.358245490750921
 30
0.0
 10
6.365278322773153
 20
-3.287405838822635
 30
0.0
 10
6.321464981427007
 20
-3.222253807879026
 30
0.0
 10
6.268463774394806
 20
-3.162823062650877
 30
0.0
 10
6.206372938963477
 20
-3.109100914820485
 30
0.0
 10
6.135039529792444
 20
-3.06197315154526
 30
0.0
 10
6.056558241595003
 20
-3.020101510214988
 30
0.0
 10
5.97183223464657
 20
-2.983613876115828
 30
0.0
 10
5.881272668864794
 20
-2.952839990466981
 30
0.0
 10
5.784654783514977
 20
-2.928035988367576
 30
0.0
 10
5.682141233062193
 20
-2.90854580638033
 30
0.0
 10
5.573702487417142
 20
-2.894084814611588
 30
0.0
 10
5.459303951181933
 20
-2.88607748990809
 30
0.0
 10
5.381075319591236
 20
-2.884948877122131
 30
0.0
 10
5.341048175541381
 20
-2.884371401258864
 30
0.0
  0
SPLINE
  5
10D
330
1F
100
AcDbEntity
  8
0
  6
Continuous
 62
     7
370
    25
100
AcDbSpline
210
0.0
220
0.0
230
1.0
 70
     8
 71
     3
 72
     8
 73
     4
 74
     0
 42
0.00000001
 43
0.00000001
 40
0.0
 40
0.0
 40
0.0
 40
0.0
 40
1.0
 40
1.0
 40
1.0
 40
1.0
 10
4.640144696307684
 20
6.574897903601367
 30
0.0
 10
4.705616446307683
 20
6.567204903601367
 30
0.0
 10
4.842511946307683
 20
6.562451653601368
 30
0.0
 10
4.944356946307684
 20
6.564334653601367
 30
0.0
  0
SPLINE
  5
10E
330
1F
100
AcDbEntity
  8
0
  6
Continuous
 62
     7
370
    25
100
AcDbSpline
210
0.0
220
0.0
230
1.0
 70
     8
 71
     3
 72
     8
 73
     4
 74
     0
 42
0.00000001
 43
0.00000001
 40
0.0
 40
0.0
 40
0.0
 40
0.0
 40
1.0
 40
1.0
 40
1.0
 40
1.0
 10
4.944356946307684
 20
6.564334653601367
 30
0.0
 10
5.136014446307684
 20
6.567878153601367
 30
0.0
 10
5.219599696307683
 20
6.551679653601367
 30
0.0
 10
5.299789446307684
 20
6.495452153601367
 30
0.0
  0
SPLINE
  5
10F
330
1F
100
AcDbEntity
  8
0
  6
Continuous
 62
     7
370
    25
100
AcDbSpline
210
0.0
220
0.0
230
1.0
 70
     8
 71
     3
 72
     8
 73
     4
 74
     0
 42
0.00000001
 43
0.00000001
 40
0.0
 40
0.0
 40
0.0
 40
0.0
 40
1.0
 40
1.0
 40
1.0
 40
1.0
 10
5.299789446307684
 20
6.495452153601367
 30
0.0
 10
5.367521196307684
 20
6.447959903601367
 30
0.0
 10
5.409022696307684
 20
6.454663653601367
 30
0.0
 10
5.478712446307684
 20
6.524353403601368
 30
0.0
  0
SPLINE
  5
110
330
1F
100
AcDbEntity
  8
0
  6
Continuous
 62
     7
370
    25
100
AcDbSpline
210
0.0
220
0.0
230
1.0
 70
     8
 71
     3
 72
     8
 73
     4
 74
     0
 42
0.00000001
 43
0.00000001
 40
0.0
 40
0.0
 40
0.0
 40
0.0
 40
1.0
 40
1.0
 40
1.0
 40
1.0
 10
5.478712446307684
 20
6.524353403601368
 30
0.0
 10
5.567797446307684
 20
6.613438403601367
 30
0.0
 10
5.676486946307683
 20
6.606174153601367
 30
0.0
 10
5.737754946307684
 20
6.507040403601368
 30
0.0
  0
SPLINE
  5
111
330
1F
100
AcDbEntity
  8
0
  6
Continuous
 62
     7
370
    25
100
AcDbSpline
210
0.0
220
0.0
230
1.0
 70
     8
 71
     3
 72
     8
 73
     4
 74
     0
 42
0.00000001
 43
0.00000001
 40
0.0
 40
0.0
 40
0.0
 40
0.0
 40
1.0
 40
1.0
 40
1.0
 40
1.0
 10
5.737754946307684
 20
6.507040403601368
 30
0.0
 10
5.801663196307684
 20
6.403634653601368
 30
0.0
 10
5.769603196307684
 20
6.268638903601367
 30
0.0
 10
5.681137196307684
 20
6.268638903601367
 30
0.0
  0
SPLINE
  5
112
330
1F
100
AcDbEntity
  8
0
  6
Continuous
 62
     7
370
    25
100
AcDbSpline
210
0.0
220
0.0
230
1.0
 70
     8
 71
     3
 72
     8
 73
     4
 74
     0
 42
0.00000001
 43
0.00000001
 40
0.0
 40
0.0
 40
0.0
 40
0.0
 40
1.0
 40
1.0
 40
1.0
 40
1.0
 10
5.681137196307684
 20
6.268638903601367
 30
0.0
 10
5.665964446307683
 20
6.268638903601367
 30
0.0
 10
5.648956196307684
 20
6.256666153601367
 30
0.0
 10
5.643340946307683
 20
6.242032903601367
 30
0.0
  0
SPLINE
  5
113
330
1F
100
AcDbEntity
  8
0
  6
Continuous
 62
     7
370
    25
100
AcDbSpline
210
0.0
220
0.0
230
1.0
 70
     8
 71
     3
 72
     8
 73
     4
 74
     0
 42
0.00000001
 43
0.00000001
 40
0.0
 40
0.0
 40
0.0
 40
0.0
 40
1.0
 40
1.0
 40
1.0
 40
1.0
 10
5.643340946307683
 20
6.242032903601367
 30
0.0
 10
5.637725696307684
 20
6.227399653601367
 30
0.0
 10
5.613219196307684
 20
6.206354653601368
 30
0.0
 10
5.588881946307684
 20
6.195265903601367
 30
0.0
  0
SPLINE
  5
114
330
1F
100
AcDbEntity
  8
0
  6
Continuous
 62
     7
370
    25
100
AcDbSpline
210
0.0
220
0.0
230
1.0
 70
     8
 71
     3
 72
     8
 73
     4
 74
     0
 42
0.00000001
 43
0.00000001
 40
0.0
 40
0.0
 40
0.0
 40
0.0
 40
1.0
 40
1.0
 40
1.0
 40
1.0
 10
5.588881946307684
 20
6.195265903601367
 30
0.0
 10
5.548350946307684
 20
6.176798653601368
 30
0.0
 10
5.539115946307684
 20
6.181398153601367
 30
0.0
 10
5.478978946307684
 20
6.250003903601367
 30
0.0
  0
SPLINE
  5
115
330
1F
100
AcDbEntity
  8
0
  6
Continuous
 62
     7
370
    25
100
AcDbSpline
210
0.0
220
0.0
230
1.0
 70
     8
 71
     3
 72
     8
 73
     4
 74
     0
 42
0.00000001
 43
0.00000001
 40
0.0
 40
0.0
 40
0.0
 40
0.0
 40
1.0
 40
1.0
 40
1.0
 40
1.0
 10
5.478978946307684
 20
6.250003903601367
 30
0.0
 10
5.418076196307684
 20
6.319483153601367
 30
0.0
 10
5.408496946307684
 20
6.324131403601368
 30
0.0
 10
5.346609446307684
 20
6.314235153601367
 30
0.0
  0
SPLINE
  5
116
330
1F
100
AcDbEntity
  8
0
  6
Continuous
 62
     7
370
    25
100
AcDbSpline
210
0.0
220
0.0
230
1.0
 70
     8
 71
     3
 72
     8
 73
     4
 74
     0
 42
0.00000001
 43
0.00000001
 40
0.0
 40
0.0
 40
0.0
 40
0.0
 40
1.0
 40
1.0
 40
1.0
 40
1.0
 10
5.346609446307684
 20
6.314235153601367
 30
0.0
 10
5.309915696307684
 20
6.308367403601368
 30
0.0
 10
5.253072196307683
 20
6.288501903601367
 30
0.0
 10
5.220290196307683
 20
6.270089403601367
 30
0.0
  0
SPLINE
  5
117
330
1F
100
AcDbEntity
  8
0
  6
Continuous
 62
     7
370
    25
100
AcDbSpline
210
0.0
220
0.0
230
1.0
 70
     8
 71
     3
 72
     8
 73
     4
 74
     0
 42
0.00000001
 43
0.00000001
 40
0.0
 40
0.0
 40
0.0
 40
0.0
 40
1.0
 40
1.0
 40
1.0
 40
1.0
 10
5.220290196307683
 20
6.270089403601367
 30
0.0
 10
5.112581196307683
 20
6.209593153601367
 30
0.0
 10
4.953647946307684
 20
6.180461403601368
 30
0.0
 10
4.731306696307684
 20
6.180461403601368
 30
0.0
  0
SPLINE
  5
122
330
1F
100
AcDbEntity
  8
0
  6
Continuous
 62
     7
370
    25
100
AcDbSpline
210
0.0
220
0.0
230
1.0
 70
     8
 71
     3
 72
     8
 73
     4
 74
     0
 42
0.00000001
 43
0.00000001
 40
0.0
 40
0.0
 40
0.0
 40
0.0
 40
1.0
 40
1.0
 40
1.0
 40
1.0
 10
4.168395196307683
 20
6.379851153601368
 30
0.0
 10
4.168395196307683
 20
6.191764653601368
 30
0.0
 10
4.178952696307684
 20
6.200043653601368
 30
0.0
 10
3.983222696307684
 20
6.234639153601368
 30
0.0
  0
SPLINE
  5
123
330
1F
100
AcDbEntity
  8
0
  6
Continuous
 62
     7
370
    25
100
AcDbSpline
210
0.0
220
0.0
230
1.0
 70
     8
 71
     3
 72
     8
 73
     4
 74
     0
 42
0.00000001
 43
0.00000001
 40
0.0
 40
0.0
 40
0.0
 40
0.0
 40
1.0
 40
1.0
 40
1.0
 40
1.0
 10
3.983222696307684
 20
6.234639153601368
 30
0.0
 10
3.925025446307684
 20
6.244925653601368
 30
0.0
 10
3.825825946307684
 20
6.260764903601368
 30
0.0
 10
3.762778946307684
 20
6.269837403601368
 30
0.0
  0
SPLINE
  5
124
330
1F
100
AcDbEntity
  8
0
  6
Continuous
 62
     7
370
    25
100
AcDbSpline
210
0.0
220
0.0
230
1.0
 70
     8
 71
     3
 72
     8
 73
     4
 74
     0
 42
0.00000001
 43
0.00000001
 40
0.0
 40
0.0
 40
0.0
 40
0.0
 40
1.0
 40
1.0
 40
1.0
 40
1.0
 10
3.762778946307684
 20
6.269837403601368
 30
0.0
 10
3.699732196307683
 20
6.278910153601368
 30
0.0
 10
3.604500446307684
 20
6.293261653601367
 30
0.0
 10
3.551152946307683
 20
6.301729653601368
 30
0.0
  0
SPLINE
  5
125
330
1F
100
AcDbEntity
  8
0
  6
Continuous
 62
     7
370
    25
100
AcDbSpline
210
0.0
220
0.0
230
1.0
 70
     8
 71
     3
 72
     8
 73
     4
 74
     0
 42
0.00000001
 43
0.00000001
 40
0.0
 40
0.0
 40
0.0
 40
0.0
 40
1.0
 40
1.0
 40
1.0
 40
1.0
 10
3.551152946307683
 20
6.301729653601368
 30
0.0
 10
3.445259446307683
 20
6.318538653601368
 30
0.0
 10
3.427704446307684
 20
6.314885153601367
 30
0.0
 10
3.427704446307684
 20
6.276037653601367
 30
0.0
  0
SPLINE
  5
126
330
1F
100
AcDbEntity
  8
0
  6
Continuous
 62
     7
370
    25
100
AcDbSpline
210
0.0
220
0.0
230
1.0
 70
     8
 71
     3
 72
     8
 73
     4
 74
     0
 42
0.00000001
 43
0.00000001
 40
0.0
 40
0.0
 40
0.0
 40
0.0
 40
1.0
 40
1.0
 40
1.0
 40
1.0
 10
3.427704446307684
 20
6.276037653601367
 30
0.0
 10
3.427704446307684
 20
6.261852903601367
 30
0.0
 10
3.406384946307683
 20
6.218031153601367
 30
0.0
 10
3.380327696307684
 20
6.178655653601368
 30
0.0
  0
SPLINE
  5
127
330
1F
100
AcDbEntity
  8
0
  6
Continuous
 62
     7
370
    25
100
AcDbSpline
210
0.0
220
0.0
230
1.0
 70
     8
 71
     3
 72
     8
 73
     4
 74
     0
 42
0.00000001
 43
0.00000001
 40
0.0
 40
0.0
 40
0.0
 40
0.0
 40
1.0
 40
1.0
 40
1.0
 40
1.0
 10
3.380327696307684
 20
6.178655653601368
 30
0.0
 10
3.342883946307684
 20
6.122074153601368
 30
0.0
 10
3.324396696307684
 20
6.108699903601368
 30
0.0
 10
3.292150196307684
 20
6.114864153601367
 30
0.0
  0
SPLINE
  5
12A
330
1F
100
AcDbEntity
  8
0
  6
Continuous
 62
     7
370
    25
100
AcDbSpline
210
0.0
220
0.0
230
1.0
 70
     8
 71
     3
 72
     8
 73
     4
 74
     0
 42
0.00000001
 43
0.00000001
 40
0.0
 40
0.0
 40
0.0
 40
0.0
 40
1.0
 40
1.0
 40
1.0
 40
1.0
 10
3.251349696307684
 20
5.859536153601368
 30
0.0
 10
3.251349696307684
 20
5.577819153601367
 30
0.0
 10
3.253182446307684
 20
5.573680153601368
 30
0.0
 10
3.334915946307684
 20
5.670815153601367
 30
0.0
  0
SPLINE
  5
12B
330
1F
100
AcDbEntity
  8
0
  6
Continuous
 62
     7
370
    25
100
AcDbSpline
210
0.0
220
0.0
230
1.0
 70
     8
 71
     3
 72
     8
 73
     4
 74
     0
 42
0.00000001
 43
0.00000001
 40
0.0
 40
0.0
 40
0.0
 40
0.0
 40
1.0
 40
1.0
 40
1.0
 40
1.0
 10
3.334915946307684
 20
5.670815153601367
 30
0.0
 10
3.360811696307684
 20
5.701590403601367
 30
0.0
 10
3.398027696307684
 20
5.721306653601368
 30
0.0
 10
3.440941196307684
 20
5.726984653601368
 30
0.0
  0
SPLINE
  5
12C
330
1F
100
AcDbEntity
  8
0
  6
Continuous
 62
     7
370
    25
100
AcDbSpline
210
0.0
220
0.0
230
1.0
 70
     8
 71
     3
 72
     8
 73
     4
 74
     0
 42
0.00000001
 43
0.00000001
 40
0.0
 40
0.0
 40
0.0
 40
0.0
 40
1.0
 40
1.0
 40
1.0
 40
1.0
 10
3.440941196307684
 20
5.726984653601368
 30
0.0
 10
3.477308946307684
 20
5.731796903601368
 30
0.0
 10
3.638007946307684
 20
5.752926903601367
 30
0.0
 10
3.798049946307684
 20
5.773940653601367
 30
0.0
  0
SPLINE
  5
12D
330
1F
100
AcDbEntity
  8
0
  6
Continuous
 62
     7
370
    25
100
AcDbSpline
210
0.0
220
0.0
230
1.0
 70
     8
 71
     3
 72
     8
 73
     4
 74
     0
 42
0.00000001
 43
0.00000001
 40
0.0
 40
0.0
 40
0.0
 40
0.0
 40
1.0
 40
1.0
 40
1.0
 40
1.0
 10
3.798049946307684
 20
5.773940653601367
 30
0.0
 10
4.249570696307684
 20
5.833225653601367
 30
0.0
 10
4.632572446307683
 20
5.895028653601368
 30
0.0
 10
4.785637696307684
 20
5.933302403601367
 30
0.0
  0
SPLINE
  5
12E
330
1F
100
AcDbEntity
  8
0
  6
Continuous
 62
     7
370
    25
100
AcDbSpline
210
0.0
220
0.0
230
1.0
 70
     8
 71
     3
 72
     8
 73
     4
 74
     0
 42
0.00000001
 43
0.00000001
 40
0.0
 40
0.0
 40
0.0
 40
0.0
 40
1.0
 40
1.0
 40
1.0
 40
1.0
 10
4.785637696307684
 20
5.933302403601367
 30
0.0
 10
4.819585946307684
 20
5.941791153601367
 30
0.0
 10
4.910849446307684
 20
5.961901903601368
 30
0.0
 10
4.988445696307684
 20
5.977992653601367
 30
0.0
  0
SPLINE
  5
12F
330
1F
100
AcDbEntity
  8
0
  6
Continuous
 62
     7
370
    25
100
AcDbSpline
210
0.0
220
0.0
230
1.0
 70
     8
 71
     3
 72
     8
 73
     4
 74
     0
 42
0.00000001
 43
0.00000001
 40
0.0
 40
0.0
 40
0.0
 40
0.0
 40
1.0
 40
1.0
 40
1.0
 40
1.0
 10
4.988445696307684
 20
5.977992653601367
 30
0.0
 10
5.131419946307684
 20
6.007641153601367
 30
0.0
 10
5.345829446307683
 20
6.053416653601368
 30
0.0
 10
5.570417196307684
 20
6.102241903601367
 30
0.0
  0
SPLINE
  5
130
330
1F
100
AcDbEntity
  8
0
  6
Continuous
 62
     7
370
    25
100
AcDbSpline
210
0.0
220
0.0
230
1.0
 70
     8
 71
     3
 72
     8
 73
     4
 74
     0
 42
0.00000001
 43
0.00000001
 40
0.0
 40
0.0
 40
0.0
 40
0.0
 40
1.0
 40
1.0
 40
1.0
 40
1.0
 10
5.570417196307684
 20
6.102241903601367
 30
0.0
 10
5.774737446307684
 20
6.146661153601367
 30
0.0
 10
5.934605446307684
 20
6.179432153601368
 30
0.0
 10
6.050984196307684
 20
6.200753403601367
 30
0.0
  0
SPLINE
  5
134
330
1F
100
AcDbEntity
  8
0
  6
Continuous
 62
     7
370
    25
100
AcDbSpline
210
0.0
220
0.0
230
1.0
 70
     8
 71
     3
 72
     8
 73
     4
 74
     0
 42
0.00000001
 43
0.00000001
 40
0.0
 40
0.0
 40
0.0
 40
0.0
 40
1.0
 40
1.0
 40
1.0
 40
1.0
 10
5.971614946307684
 20
6.583854403601368
 30
0.0
 10
5.867350446307684
 20
6.606880653601367
 30
0.0
 10
5.758235196307684
 20
6.632169903601367
 30
0.0
 10
5.729136446307684
 20
6.640053153601368
 30
0.0
  0
SPLINE
  5
135
330
1F
100
AcDbEntity
  8
0
  6
Continuous
 62
     7
370
    25
100
AcDbSpline
210
0.0
220
0.0
230
1.0
 70
     8
 71
     3
 72
     8
 73
     4
 74
     0
 42
0.00000001
 43
0.00000001
 40
0.0
 40
0.0
 40
0.0
 40
0.0
 40
1.0
 40
1.0
 40
1.0
 40
1.0
 10
5.729136446307684
 20
6.640053153601368
 30
0.0
 10
5.568243946307684
 20
6.683640653601367
 30
0.0
 10
5.362473196307684
 20
6.734511403601368
 30
0.0
 10
5.261795946307684
 20
6.755589403601367
 30
0.0
  0
SPLINE
  5
136
330
1F
100
AcDbEntity
  8
0
  6
Continuous
 62
     7
370
    25
100
AcDbSpline
210
0.0
220
0.0
230
1.0
 70
     8
 71
     3
 72
     8
 73
     4
 74
     0
 42
0.00000001
 43
0.00000001
 40
0.0
 40
0.0
 40
0.0
 40
0.0
 40
1.0
 40
1.0
 40
1.0
 40
1.0
 10
5.261795946307684
 20
6.755589403601367
 30
0.0
 10
5.198748946307684
 20
6.768788903601367
 30
0.0
 10
5.095581446307683
 20
6.792001403601368
 30
0.0
 10
5.032534446307683
 20
6.807172903601368
 30
0.0
  0
SPLINE
  5
137
330
1F
100
AcDbEntity
  8
0
  6
Continuous
 62
     7
370
    25
100
AcDbSpline
210
0.0
220
0.0
230
1.0
 70
     8
 71
     3
 72
     8
 73
     4
 74
     0
 42
0.00000001
 43
0.00000001
 40
0.0
 40
0.0
 40
0.0
 40
0.0
 40
1.0
 40
1.0
 40
1.0
 40
1.0
 10
5.032534446307683
 20
6.807172903601368
 30
0.0
 10
4.969487696307684
 20
6.822344403601367
 30
0.0
 10
4.862351946307684
 20
6.846098153601368
 30
0.0
 10
4.794455196307684
 20
6.859958903601368
 30
0.0
  0
SPLINE
  5
138
330
1F
100
AcDbEntity
  8
0
  6
Continuous
 62
     7
370
    25
100
AcDbSpline
210
0.0
220
0.0
230
1.0
 70
     8
 71
     3
 72
     8
 73
     4
 74
     0
 42
0.00000001
 43
0.00000001
 40
0.0
 40
0.0
 40
0.0
 40
0.0
 40
1.0
 40
1.0
 40
1.0
 40
1.0
 10
4.794455196307684
 20
6.859958903601368
 30
0.0
 10
4.726558696307684
 20
6.873819653601367
 30
0.0
 10
4.611487196307683
 20
6.897752403601368
 30
0.0
 10
4.538740696307683
 20
6.913143153601368
 30
0.0
  0
SPLINE
  5
139
330
1F
100
AcDbEntity
  8
0
  6
Continuous
 62
     7
370
    25
100
AcDbSpline
210
0.0
220
0.0
230
1.0
 70
     8
 71
     3
 72
     8
 73
     4
 74
     0
 42
0.00000001
 43
0.00000001
 40
0.0
 40
0.0
 40
0.0
 40
0.0
 40
1.0
 40
1.0
 40
1.0
 40
1.0
 10
4.538740696307683
 20
6.913143153601368
 30
0.0
 10
4.311260696307683
 20
6.961269653601367
 30
0.0
 10
4.229094696307683
 20
6.975611903601367
 30
0.0
 10
3.877409696307684
 20
7.028579653601367
 30
0.0
  0
SPLINE
  5
13A
330
1F
100
AcDbEntity
  8
0
  6
Continuous
 62
     7
370
    25
100
AcDbSpline
210
0.0
220
0.0
230
1.0
 70
     8
 71
     3
 72
     8
 73
     4
 74
     0
 42
0.00000001
 43
0.00000001
 40
0.0
 40
0.0
 40
0.0
 40
0.0
 40
1.0
 40
1.0
 40
1.0
 40
1.0
 10
3.877409696307684
 20
7.028579653601367
 30
0.0
 10
3.751315946307684
 20
7.047570903601367
 30
0.0
 10
3.609846946307683
 20
7.070848653601367
 30
0.0
 10
3.563034196307684
 20
7.080307903601367
 30
0.0
  0
SPLINE
  5
13B
330
1F
100
AcDbEntity
  8
0
  6
Continuous
 62
     7
370
    25
100
AcDbSpline
210
0.0
220
0.0
230
1.0
 70
     8
 71
     3
 72
     8
 73
     4
 74
     0
 42
0.00000001
 43
0.00000001
 40
0.0
 40
0.0
 40
0.0
 40
0.0
 40
1.0
 40
1.0
 40
1.0
 40
1.0
 10
3.563034196307684
 20
7.080307903601367
 30
0.0
 10
3.516221446307684
 20
7.089767403601368
 30
0.0
 10
3.453933696307684
 20
7.097506903601367
 30
0.0
 10
3.424616946307683
 20
7.097506903601367
 30
0.0
  0
SPLINE
  5
13C
330
1F
100
AcDbEntity
  8
0
  6
Continuous
 62
     7
370
    25
100
AcDbSpline
210
0.0
220
0.0
230
1.0
 70
     8
 71
     3
 72
     8
 73
     4
 74
     0
 42
0.00000001
 43
0.00000001
 40
0.0
 40
0.0
 40
0.0
 40
0.0
 40
1.0
 40
1.0
 40
1.0
 40
1.0
 10
3.424616946307683
 20
7.097506903601367
 30
0.0
 10
3.388130696307684
 20
7.097506903601367
 30
0.0
 10
3.355721196307683
 20
7.114198903601368
 30
0.0
 10
3.321891696307684
 20
7.150413403601367
 30
0.0
  0
SPLINE
  5
13D
330
1F
100
AcDbEntity
  8
0
  6
Continuous
 62
     7
370
    25
100
AcDbSpline
210
0.0
220
0.0
230
1.0
 70
     8
 71
     3
 72
     8
 73
     4
 74
     0
 42
0.00000001
 43
0.00000001
 40
0.0
 40
0.0
 40
0.0
 40
0.0
 40
1.0
 40
1.0
 40
1.0
 40
1.0
 10
3.321891696307684
 20
7.150413403601367
 30
0.0
 10
3.294709446307684
 20
7.179512153601368
 30
0.0
 10
3.267717446307683
 20
7.203319903601367
 30
0.0
 10
3.261909446307684
 20
7.203319903601367
 30
0.0
  0
SPLINE
  5
13E
330
1F
100
AcDbEntity
  8
0
  6
Continuous
 62
     7
370
    25
100
AcDbSpline
210
0.0
220
0.0
230
1.0
 70
     8
 71
     3
 72
     8
 73
     4
 74
     0
 42
0.00000001
 43
0.00000001
 40
0.0
 40
0.0
 40
0.0
 40
0.0
 40
1.0
 40
1.0
 40
1.0
 40
1.0
 10
3.261909446307684
 20
7.203319903601367
 30
0.0
 10
3.256101946307683
 20
7.203319903601367
 30
0.0
 10
3.251349696307684
 20
7.051540653601368
 30
0.0
 10
3.251349696307684
 20
6.866032903601368
 30
0.0
  0
SPLINE
  5
13F
330
1F
100
AcDbEntity
  8
0
  6
Continuous
 62
     7
370
    25
100
AcDbSpline
210
0.0
220
0.0
230
1.0
 70
     8
 71
     3
 72
     8
 73
     4
 74
     0
 42
0.00000001
 43
0.00000001
 40
0.0
 40
0.0
 40
0.0
 40
0.0
 40
1.0
 40
1.0
 40
1.0
 40
1.0
 10
5.883447196307683
 20
3.993850903601368
 30
0.0
 10
5.953282946307684
 20
3.994082403601367
 30
0.0
 10
6.079871946307684
 20
4.031265153601367
 30
0.0
 10
6.172115696307683
 20
4.078638153601367
 30
0.0
  0
SPLINE
  5
140
330
1F
100
AcDbEntity
  8
0
  6
Continuous
 62
     7
370
    25
100
AcDbSpline
210
0.0
220
0.0
230
1.0
 70
     8
 71
     3
 72
     8
 73
     4
 74
     0
 42
0.00000001
 43
0.00000001
 40
0.0
 40
0.0
 40
0.0
 40
0.0
 40
1.0
 40
1.0
 40
1.0
 40
1.0
 10
6.172115696307683
 20
4.078638153601367
 30
0.0
 10
6.279558196307683
 20
4.133816403601368
 30
0.0
 10
6.366051446307684
 20
4.217188403601368
 30
0.0
 10
6.444161946307684
 20
4.340867903601367
 30
0.0
  0
SPLINE
  5
141
330
1F
100
AcDbEntity
  8
0
  6
Continuous
 62
     7
370
    25
100
AcDbSpline
210
0.0
220
0.0
230
1.0
 70
     8
 71
     3
 72
     8
 73
     4
 74
     0
 42
0.00000001
 43
0.00000001
 40
0.0
 40
0.0
 40
0.0
 40
0.0
 40
1.0
 40
1.0
 40
1.0
 40
1.0
 10
6.444161946307684
 20
4.340867903601367
 30
0.0
 10
6.504852946307683
 20
4.436965153601367
 30
0.0
 10
6.517812446307684
 20
4.474161903601368
 30
0.0
 10
6.526434696307683
 20
4.577006153601367
 30
0.0
  0
SPLINE
  5
144
330
1F
100
AcDbEntity
  8
0
  6
Continuous
 62
     7
370
    25
100
AcDbSpline
210
0.0
220
0.0
230
1.0
 70
     8
 71
     3
 72
     8
 73
     4
 74
     0
 42
0.00000001
 43
0.00000001
 40
0.0
 40
0.0
 40
0.0
 40
0.0
 40
1.0
 40
1.0
 40
1.0
 40
1.0
 10
6.474841696307684
 20
4.699079903601367
 30
0.0
 10
6.413914696307683
 20
4.699079903601367
 30
0.0
 10
6.412866196307683
 20
4.697815153601367
 30
0.0
 10
6.402715446307683
 20
4.612108403601368
 30
0.0
  0
SPLINE
  5
145
330
1F
100
AcDbEntity
  8
0
  6
Continuous
 62
     7
370
    25
100
AcDbSpline
210
0.0
220
0.0
230
1.0
 70
     8
 71
     3
 72
     8
 73
     4
 74
     0
 42
0.00000001
 43
0.00000001
 40
0.0
 40
0.0
 40
0.0
 40
0.0
 40
1.0
 40
1.0
 40
1.0
 40
1.0
 10
6.402715446307683
 20
4.612108403601368
 30
0.0
 10
6.374864446307684
 20
4.376950903601368
 30
0.0
 10
6.157231946307684
 20
4.164435903601368
 30
0.0
 10
5.918718196307683
 20
4.139492153601368
 30
0.0
  0
SPLINE
  5
148
330
1F
100
AcDbEntity
  8
0
  6
Continuous
 62
     7
370
    25
100
AcDbSpline
210
0.0
220
0.0
230
1.0
 70
     8
 71
     3
 72
     8
 73
     4
 74
     0
 42
0.00000001
 43
0.00000001
 40
0.0
 40
0.0
 40
0.0
 40
0.0
 40
1.0
 40
1.0
 40
1.0
 40
1.0
 10
5.826131696307685
 20
4.061734903601367
 30
0.0
 10
5.826131696307685
 20
3.996650403601369
 30
0.0
 10
5.828649196307683
 20
3.993668653601368
 30
0.0
 10
5.883447196307683
 20
3.993850903601368
 30
0.0
  0
SPLINE
  5
149
330
1F
100
AcDbEntity
  8
0
  6
Continuous
 62
     7
370
    25
100
AcDbSpline
210
0.0
220
0.0
230
1.0
 70
     8
 71
     3
 72
     8
 73
     4
 74
     0
 42
0.00000001
 43
0.00000001
 40
0.0
 40
0.0
 40
0.0
 40
0.0
 40
1.0
 40
1.0
 40
1.0
 40
1.0
 10
2.282851911504263
 20
5.836569160432671
 30
0.0
 10
2.295219661504263
 20
5.980452660432669
 30
0.0
 10
2.309604161504263
 20
6.05845466043267
 30
0.0
 10
2.369034661504263
 20
6.30390966043267
 30
0.0
  0
SPLINE
  5
14A
330
1F
100
AcDbEntity
  8
0
  6
Continuous
 62
     7
370
    25
100
AcDbSpline
210
0.0
220
0.0
230
1.0
 70
     8
 71
     3
 72
     8
 73
     4
 74
     0
 42
0.00000001
 43
0.00000001
 40
0.0
 40
0.0
 40
0.0
 40
0.0
 40
1.0
 40
1.0
 40
1.0
 40
1.0
 10
2.369034661504263
 20
6.30390966043267
 30
0.0
 10
2.405473161504263
 20
6.45440591043267
 30
0.0
 10
2.587983911504263
 20
6.84957641043267
 30
0.0
 10
2.674230411504263
 20
6.96471691043267
 30
0.0
  0
SPLINE
  5
14B
330
1F
100
AcDbEntity
  8
0
  6
Continuous
 62
     7
370
    25
100
AcDbSpline
210
0.0
220
0.0
230
1.0
 70
     8
 71
     3
 72
     8
 73
     4
 74
     0
 42
0.00000001
 43
0.00000001
 40
0.0
 40
0.0
 40
0.0
 40
0.0
 40
1.0
 40
1.0
 40
1.0
 40
1.0
 10
2.799724911504263
 20
7.13225391043267
 30
0.0
 10
2.915470411504263
 20
7.28677616043267
 30
0.0
 10
3.087139661504263
 20
7.45323841043267
 30
0.0
 10
3.268985911504263
 20
7.58728216043267
 30
0.0
  0
SPLINE
  5
14C
330
1F
100
AcDbEntity
  8
0
  6
Continuous
 62
     7
370
    25
100
AcDbSpline
210
0.0
220
0.0
230
1.0
 70
     8
 71
     3
 72
     8
 73
     4
 74
     0
 42
0.00000001
 43
0.00000001
 40
0.0
 40
0.0
 40
0.0
 40
0.0
 40
1.0
 40
1.0
 40
1.0
 40
1.0
 10
3.268985911504263
 20
7.58728216043267
 30
0.0
 10
3.351431911504263
 20
7.64805516043267
 30
0.0
 10
3.427727161504262
 20
7.70486891043267
 30
0.0
 10
3.438531161504263
 20
7.71353441043267
 30
0.0
  0
SPLINE
  5
14D
330
1F
100
AcDbEntity
  8
0
  6
Continuous
 62
     7
370
    25
100
AcDbSpline
210
0.0
220
0.0
230
1.0
 70
     8
 71
     3
 72
     8
 73
     4
 74
     0
 42
0.00000001
 43
0.00000001
 40
0.0
 40
0.0
 40
0.0
 40
0.0
 40
1.0
 40
1.0
 40
1.0
 40
1.0
 10
4.732731911504263
 20
8.071748910432671
 30
0.0
 10
5.057156911504263
 20
8.071748910432671
 30
0.0
 10
5.210166911504263
 20
8.04658466043267
 30
0.0
 10
5.535146911504263
 20
7.93978291043267
 30
0.0
  0
SPLINE
  5
14E
330
1F
100
AcDbEntity
  8
0
  6
Continuous
 62
     7
370
    25
100
AcDbSpline
210
0.0
220
0.0
230
1.0
 70
     8
 71
     3
 72
     8
 73
     4
 74
     0
 42
0.00000001
 43
0.00000001
 40
0.0
 40
0.0
 40
0.0
 40
0.0
 40
1.0
 40
1.0
 40
1.0
 40
1.0
 10
5.535146911504263
 20
7.93978291043267
 30
0.0
 10
5.661693911504263
 20
7.898194410432669
 30
0.0
 10
5.998734161504262
 20
7.73865741043267
 30
0.0
 10
6.033505161504263
 20
7.703886410432671
 30
0.0
  0
SPLINE
  5
14F
330
1F
100
AcDbEntity
  8
0
  6
Continuous
 62
     7
370
    25
100
AcDbSpline
210
0.0
220
0.0
230
1.0
 70
     8
 71
     3
 72
     8
 73
     4
 74
     0
 42
0.00000001
 43
0.00000001
 40
0.0
 40
0.0
 40
0.0
 40
0.0
 40
1.0
 40
1.0
 40
1.0
 40
1.0
 10
6.033505161504263
 20
7.703886410432671
 30
0.0
 10
6.047056661504263
 20
7.690334910432671
 30
0.0
 10
6.075381411504263
 20
7.67015916043267
 30
0.0
 10
6.096448911504263
 20
7.659051160432669
 30
0.0
  0
SPLINE
  5
150
330
1F
100
AcDbEntity
  8
0
  6
Continuous
 62
     7
370
    25
100
AcDbSpline
210
0.0
220
0.0
230
1.0
 70
     8
 71
     3
 72
     8
 73
     4
 74
     0
 42
0.00000001
 43
0.00000001
 40
0.0
 40
0.0
 40
0.0
 40
0.0
 40
1.0
 40
1.0
 40
1.0
 40
1.0
 10
6.096448911504263
 20
7.659051160432669
 30
0.0
 10
6.276312661504263
 20
7.564218910432669
 30
0.0
 10
6.680825411504262
 20
7.15970641043267
 30
0.0
 10
6.775657911504263
 20
6.97984266043267
 30
0.0
  0
SPLINE
  5
151
330
1F
100
AcDbEntity
  8
0
  6
Continuous
 62
     7
370
    25
100
AcDbSpline
210
0.0
220
0.0
230
1.0
 70
     8
 71
     3
 72
     8
 73
     4
 74
     0
 42
0.00000001
 43
0.00000001
 40
0.0
 40
0.0
 40
0.0
 40
0.0
 40
1.0
 40
1.0
 40
1.0
 40
1.0
 10
6.775657911504263
 20
6.97984266043267
 30
0.0
 10
6.786765411504263
 20
6.95877491043267
 30
0.0
 10
6.806941411504264
 20
6.93045016043267
 30
0.0
 10
6.820493161504262
 20
6.91689841043267
 30
0.0
  0
SPLINE
  5
152
330
1F
100
AcDbEntity
  8
0
  6
Continuous
 62
     7
370
    25
100
AcDbSpline
210
0.0
220
0.0
230
1.0
 70
     8
 71
     3
 72
     8
 73
     4
 74
     0
 42
0.00000001
 43
0.00000001
 40
0.0
 40
0.0
 40
0.0
 40
0.0
 40
1.0
 40
1.0
 40
1.0
 40
1.0
 10
6.820493161504262
 20
6.91689841043267
 30
0.0
 10
6.855263661504262
 20
6.88212791043267
 30
0.0
 10
7.014800661504263
 20
6.545087410432671
 30
0.0
 10
7.056389411504263
 20
6.418540410432669
 30
0.0
  0
SPLINE
  5
153
330
1F
100
AcDbEntity
  8
0
  6
Continuous
 62
     7
370
    25
100
AcDbSpline
210
0.0
220
0.0
230
1.0
 70
     8
 71
     3
 72
     8
 73
     4
 74
     0
 42
0.00000001
 43
0.00000001
 40
0.0
 40
0.0
 40
0.0
 40
0.0
 40
1.0
 40
1.0
 40
1.0
 40
1.0
 10
7.056389411504263
 20
6.418540410432671
 30
0.0
 10
7.163191008264469
 20
6.093560360071833
 30
0.0
 10
7.188355186114852
 20
5.940550598205999
 30
0.0
 10
7.188355033136771
 20
5.616125598206034
 30
0.0
  0
SPLINE
  5
154
330
1F
100
AcDbEntity
  8
0
  6
Continuous
 62
     7
370
    25
100
AcDbSpline
210
0.0
220
0.0
230
1.0
 70
     8
 71
     3
 72
     8
 73
     4
 74
     0
 42
0.00000001
 43
0.00000001
 40
0.0
 40
0.0
 40
0.0
 40
0.0
 40
1.0
 40
1.0
 40
1.0
 40
1.0
 10
7.188355033136771
 20
5.616125598206034
 30
0.0
 10
7.188354896953046
 20
5.291700348206064
 30
0.0
 10
7.163190582724163
 20
5.138690358769255
 30
0.0
 10
7.056388696307684
 20
4.813710653601367
 30
0.0
  0
SPLINE
  5
155
330
1F
100
AcDbEntity
  8
0
  6
Continuous
 62
     7
370
    25
100
AcDbSpline
210
0.0
220
0.0
230
1.0
 70
     8
 71
     3
 72
     8
 73
     4
 74
     0
 42
0.00000001
 43
0.00000001
 40
0.0
 40
0.0
 40
0.0
 40
0.0
 40
1.0
 40
1.0
 40
1.0
 40
1.0
 10
7.056388696307684
 20
4.813710653601367
 30
0.0
 10
7.022593446307683
 20
4.710877653601367
 30
0.0
 10
6.861830946307683
 20
4.361435653601368
 30
0.0
 10
6.830140196307684
 20
4.321924903601368
 30
0.0
  0
SPLINE
  5
156
330
1F
100
AcDbEntity
  8
0
  6
Continuous
 62
     7
370
    25
100
AcDbSpline
210
0.0
220
0.0
230
1.0
 70
     8
 71
     3
 72
     8
 73
     4
 74
     0
 42
0.00000001
 43
0.00000001
 40
0.0
 40
0.0
 40
0.0
 40
0.0
 40
1.0
 40
1.0
 40
1.0
 40
1.0
 10
6.830140196307684
 20
4.321924903601368
 30
0.0
 10
6.821474446307683
 20
4.311120903601367
 30
0.0
 10
6.764660946307684
 20
4.234825403601367
 30
0.0
 10
6.703887946307684
 20
4.152379403601367
 30
0.0
  0
SPLINE
  5
157
330
1F
100
AcDbEntity
  8
0
  6
Continuous
 62
     7
370
    25
100
AcDbSpline
210
0.0
220
0.0
230
1.0
 70
     8
 71
     3
 72
     8
 73
     4
 74
     0
 42
0.00000001
 43
0.00000001
 40
0.0
 40
0.0
 40
0.0
 40
0.0
 40
1.0
 40
1.0
 40
1.0
 40
1.0
 10
6.081322696307684
 20
3.557624153601367
 30
0.0
 10
5.966182196307683
 20
3.471377653601367
 30
0.0
 10
5.571011696307683
 20
3.288866903601368
 30
0.0
 10
5.420515446307684
 20
3.252428153601368
 30
0.0
  0
SPLINE
  5
158
330
1F
100
AcDbEntity
  8
0
  6
Continuous
 62
     7
370
    25
100
AcDbSpline
210
0.0
220
0.0
230
1.0
 70
     8
 71
     3
 72
     8
 73
     4
 74
     0
 42
0.00000001
 43
0.00000001
 40
0.0
 40
0.0
 40
0.0
 40
0.0
 40
1.0
 40
1.0
 40
1.0
 40
1.0
 10
2.746028510380897
 20
4.170014327787521
 30
0.0
 10
2.601220569340774
 20
4.364771307509288
 30
0.0
 10
2.409976418739725
 20
4.742610360897115
 30
0.0
 10
2.378751161504263
 20
4.895640160432668
 30
0.0
  0
SPLINE
  5
159
330
1F
100
AcDbEntity
  8
0
  6
Continuous
 62
     7
370
    25
100
AcDbSpline
210
0.0
220
0.0
230
1.0
 70
     8
 71
     3
 72
     8
 73
     4
 74
     0
 42
0.00000001
 43
0.00000001
 40
0.0
 40
0.0
 40
0.0
 40
0.0
 40
1.0
 40
1.0
 40
1.0
 40
1.0
 10
2.378751161504262
 20
4.895640160432669
 30
0.0
 10
2.372112411504263
 20
4.928174910432669
 30
0.0
 10
2.359775161504263
 20
4.978602410432669
 30
0.0
 10
2.351334911504263
 20
5.007700910432669
 30
0.0
  0
SPLINE
  5
15A
330
1F
100
AcDbEntity
  8
0
  6
Continuous
 62
     7
370
    25
100
AcDbSpline
210
0.0
220
0.0
230
1.0
 70
     8
 71
     3
 72
     8
 73
     4
 74
     0
 42
0.00000001
 43
0.00000001
 40
0.0
 40
0.0
 40
0.0
 40
0.0
 40
1.0
 40
1.0
 40
1.0
 40
1.0
 10
2.351334911504263
 20
5.007700910432669
 30
0.0
 10
2.284719911504263
 20
5.23736416043267
 30
0.0
 10
2.258560661504263
 20
5.553974660432671
 30
0.0
 10
2.282851911504263
 20
5.83656916043267
 30
0.0
  0
SPLINE
  5
15B
330
1F
100
AcDbEntity
  8
0
  6
Continuous
 62
     7
370
    25
100
AcDbSpline
210
0.0
220
0.0
230
1.0
 70
     8
 71
     3
 72
     8
 73
     4
 74
     0
 42
0.00000001
 43
0.00000001
 40
0.0
 40
0.0
 40
0.0
 40
0.0
 40
1.0
 40
1.0
 40
1.0
 40
1.0
 10
5.855501446307684
 20
4.386899403601367
 30
0.0
 10
5.872346446307684
 20
4.380435653601368
 30
0.0
 10
5.923762446307683
 20
4.395991403601368
 30
0.0
 10
5.976070196307684
 20
4.423377903601367
 30
0.0
  0
SPLINE
  5
15C
330
1F
100
AcDbEntity
  8
0
  6
Continuous
 62
     7
370
    25
100
AcDbSpline
210
0.0
220
0.0
230
1.0
 70
     8
 71
     3
 72
     8
 73
     4
 74
     0
 42
0.00000001
 43
0.00000001
 40
0.0
 40
0.0
 40
0.0
 40
0.0
 40
1.0
 40
1.0
 40
1.0
 40
1.0
 10
5.976070196307684
 20
4.423377903601367
 30
0.0
 10
6.074267446307684
 20
4.474790903601368
 30
0.0
 10
6.143570696307684
 20
4.569790153601367
 30
0.0
 10
6.143570696307684
 20
4.652983403601367
 30
0.0
  0
SPLINE
  5
15D
330
1F
100
AcDbEntity
  8
0
  6
Continuous
 62
     7
370
    25
100
AcDbSpline
210
0.0
220
0.0
230
1.0
 70
     8
 71
     3
 72
     8
 73
     4
 74
     0
 42
0.00000001
 43
0.00000001
 40
0.0
 40
0.0
 40
0.0
 40
0.0
 40
1.0
 40
1.0
 40
1.0
 40
1.0
 10
6.143570696307684
 20
4.652983403601367
 30
0.0
 10
6.143570696307684
 20
4.693908153601368
 30
0.0
 10
6.136645446307684
 20
4.699079903601367
 30
0.0
 10
6.081846446307684
 20
4.699079903601367
 30
0.0
  0
SPLINE
  5
15E
330
1F
100
AcDbEntity
  8
0
  6
Continuous
 62
     7
370
    25
100
AcDbSpline
210
0.0
220
0.0
230
1.0
 70
     8
 71
     3
 72
     8
 73
     4
 74
     0
 42
0.00000001
 43
0.00000001
 40
0.0
 40
0.0
 40
0.0
 40
0.0
 40
1.0
 40
1.0
 40
1.0
 40
1.0
 10
6.081846446307684
 20
4.699079903601367
 30
0.0
 10
6.037022946307683
 20
4.699079903601367
 30
0.0
 10
6.020122196307684
 20
4.691353653601368
 30
0.0
 10
6.020122196307684
 20
4.670863153601367
 30
0.0
  0
SPLINE
  5
15F
330
1F
100
AcDbEntity
  8
0
  6
Continuous
 62
     7
370
    25
100
AcDbSpline
210
0.0
220
0.0
230
1.0
 70
     8
 71
     3
 72
     8
 73
     4
 74
     0
 42
0.00000001
 43
0.00000001
 40
0.0
 40
0.0
 40
0.0
 40
0.0
 40
1.0
 40
1.0
 40
1.0
 40
1.0
 10
6.020122196307684
 20
4.670863153601367
 30
0.0
 10
6.020122196307684
 20
4.629882653601368
 30
0.0
 10
5.906585946307684
 20
4.522724903601368
 30
0.0
 10
5.863166196307684
 20
4.522724903601368
 30
0.0
  0
SPLINE
  5
160
330
1F
100
AcDbEntity
  8
0
  6
Continuous
 62
     7
370
    25
100
AcDbSpline
210
0.0
220
0.0
230
1.0
 70
     8
 71
     3
 72
     8
 73
     4
 74
     0
 42
0.00000001
 43
0.00000001
 40
0.0
 40
0.0
 40
0.0
 40
0.0
 40
1.0
 40
1.0
 40
1.0
 40
1.0
 10
5.863166196307684
 20
4.522724903601368
 30
0.0
 10
5.832535446307684
 20
4.522724903601368
 30
0.0
 10
5.826131696307685
 20
4.511956403601368
 30
0.0
 10
5.826131696307685
 20
4.460447153601367
 30
0.0
  0
SPLINE
  5
161
330
1F
100
AcDbEntity
  8
0
  6
Continuous
 62
     7
370
    25
100
AcDbSpline
210
0.0
220
0.0
230
1.0
 70
     8
 71
     3
 72
     8
 73
     4
 74
     0
 42
0.00000001
 43
0.00000001
 40
0.0
 40
0.0
 40
0.0
 40
0.0
 40
1.0
 40
1.0
 40
1.0
 40
1.0
 10
5.826131696307685
 20
4.460447153601367
 30
0.0
 10
5.826131696307685
 20
4.418609403601368
 30
0.0
 10
5.835771196307683
 20
4.394470653601367
 30
0.0
 10
5.855501446307684
 20
4.386899403601367
 30
0.0
  0
SPLINE
  5
162
330
1F
100
AcDbEntity
  8
0
  6
Continuous
 62
     7
370
    25
100
AcDbSpline
210
0.0
220
0.0
230
1.0
 70
     8
 71
     3
 72
     8
 73
     4
 74
     0
 42
0.00000001
 43
0.00000001
 40
0.0
 40
0.0
 40
0.0
 40
0.0
 40
1.0
 40
1.0
 40
1.0
 40
1.0
 10
5.855836946307684
 20
4.187650403601367
 30
0.0
 10
5.872176446307683
 20
4.187650403601367
 30
0.0
 10
5.933680446307684
 20
4.201109153601368
 30
0.0
 10
5.992513696307684
 20
4.217558903601367
 30
0.0
  0
SPLINE
  5
163
330
1F
100
AcDbEntity
  8
0
  6
Continuous
 62
     7
370
    25
100
AcDbSpline
210
0.0
220
0.0
230
1.0
 70
     8
 71
     3
 72
     8
 73
     4
 74
     0
 42
0.00000001
 43
0.00000001
 40
0.0
 40
0.0
 40
0.0
 40
0.0
 40
1.0
 40
1.0
 40
1.0
 40
1.0
 10
5.992513696307684
 20
4.217558903601367
 30
0.0
 10
6.077848696307684
 20
4.241418653601368
 30
0.0
 10
6.117314696307684
 20
4.265492903601367
 30
0.0
 10
6.187659446307683
 20
4.336598403601367
 30
0.0
  0
SPLINE
  5
164
330
1F
100
AcDbEntity
  8
0
  6
Continuous
 62
     7
370
    25
100
AcDbSpline
210
0.0
220
0.0
230
1.0
 70
     8
 71
     3
 72
     8
 73
     4
 74
     0
 42
0.00000001
 43
0.00000001
 40
0.0
 40
0.0
 40
0.0
 40
0.0
 40
1.0
 40
1.0
 40
1.0
 40
1.0
 10
6.187659446307683
 20
4.336598403601367
 30
0.0
 10
6.276670196307683
 20
4.426571903601368
 30
0.0
 10
6.298571446307684
 20
4.462260403601368
 30
0.0
 10
6.335117446307683
 20
4.576883403601368
 30
0.0
  0
SPLINE
  5
165
330
1F
100
AcDbEntity
  8
0
  6
Continuous
 62
     7
370
    25
100
AcDbSpline
210
0.0
220
0.0
230
1.0
 70
     8
 71
     3
 72
     8
 73
     4
 74
     0
 42
0.00000001
 43
0.00000001
 40
0.0
 40
0.0
 40
0.0
 40
0.0
 40
1.0
 40
1.0
 40
1.0
 40
1.0
 10
6.335117446307683
 20
4.576883403601368
 30
0.0
 10
6.369331446307683
 20
4.684192903601367
 30
0.0
 10
6.363422946307683
 20
4.699079903601367
 30
0.0
 10
6.286617196307684
 20
4.699079903601367
 30
0.0
  0
SPLINE
  5
166
330
1F
100
AcDbEntity
  8
0
  6
Continuous
 62
     7
370
    25
100
AcDbSpline
210
0.0
220
0.0
230
1.0
 70
     8
 71
     3
 72
     8
 73
     4
 74
     0
 42
0.00000001
 43
0.00000001
 40
0.0
 40
0.0
 40
0.0
 40
0.0
 40
1.0
 40
1.0
 40
1.0
 40
1.0
 10
6.286617196307684
 20
4.699079903601367
 30
0.0
 10
6.221759696307684
 20
4.699079903601367
 30
0.0
 10
6.217387446307684
 20
4.695612403601368
 30
0.0
 10
6.206051196307683
 20
4.635184403601367
 30
0.0
  0
SPLINE
  5
167
330
1F
100
AcDbEntity
  8
0
  6
Continuous
 62
     7
370
    25
100
AcDbSpline
210
0.0
220
0.0
230
1.0
 70
     8
 71
     3
 72
     8
 73
     4
 74
     0
 42
0.00000001
 43
0.00000001
 40
0.0
 40
0.0
 40
0.0
 40
0.0
 40
1.0
 40
1.0
 40
1.0
 40
1.0
 10
6.206051196307683
 20
4.635184403601367
 30
0.0
 10
6.176239446307684
 20
4.476274403601368
 30
0.0
 10
6.019137696307684
 20
4.328734403601367
 30
0.0
 10
5.879740946307684
 20
4.328734403601367
 30
0.0
  0
SPLINE
  5
168
330
1F
100
AcDbEntity
  8
0
  6
Continuous
 62
     7
370
    25
100
AcDbSpline
210
0.0
220
0.0
230
1.0
 70
     8
 71
     3
 72
     8
 73
     4
 74
     0
 42
0.00000001
 43
0.00000001
 40
0.0
 40
0.0
 40
0.0
 40
0.0
 40
1.0
 40
1.0
 40
1.0
 40
1.0
 10
5.879740946307684
 20
4.328734403601367
 30
0.0
 10
5.828953946307684
 20
4.328734403601367
 30
0.0
 10
5.826131696307685
 20
4.325020903601368
 30
0.0
 10
5.826131696307685
 20
4.258192403601367
 30
0.0
  0
SPLINE
  5
169
330
1F
100
AcDbEntity
  8
0
  6
Continuous
 62
     7
370
    25
100
AcDbSpline
210
0.0
220
0.0
230
1.0
 70
     8
 71
     3
 72
     8
 73
     4
 74
     0
 42
0.00000001
 43
0.00000001
 40
0.0
 40
0.0
 40
0.0
 40
0.0
 40
1.0
 40
1.0
 40
1.0
 40
1.0
 10
5.826131696307685
 20
4.258192403601367
 30
0.0
 10
5.826131696307685
 20
4.203813153601367
 30
0.0
 10
5.832937946307684
 20
4.187650403601367
 30
0.0
 10
5.855836946307684
 20
4.187650403601367
 30
0.0
  0
SPLINE
  5
16A
330
1F
100
AcDbEntity
  8
0
  6
Continuous
 62
     7
370
    25
100
AcDbSpline
210
0.0
220
0.0
230
1.0
 70
     8
 71
     3
 72
     8
 73
     4
 74
     0
 42
0.00000001
 43
0.00000001
 40
0.0
 40
0.0
 40
0.0
 40
0.0
 40
1.0
 40
1.0
 40
1.0
 40
1.0
 10
3.330709446307684
 20
5.295477903601367
 30
0.0
 10
3.397811946307684
 20
5.264903653601367
 30
0.0
 10
3.462975696307684
 20
5.300431403601367
 30
0.0
 10
3.462975696307684
 20
5.367590653601368
 30
0.0
  0
SPLINE
  5
16B
330
1F
100
AcDbEntity
  8
0
  6
Continuous
 62
     7
370
    25
100
AcDbSpline
210
0.0
220
0.0
230
1.0
 70
     8
 71
     3
 72
     8
 73
     4
 74
     0
 42
0.00000001
 43
0.00000001
 40
0.0
 40
0.0
 40
0.0
 40
0.0
 40
1.0
 40
1.0
 40
1.0
 40
1.0
 10
3.462975696307684
 20
5.367590653601368
 30
0.0
 10
3.462975696307684
 20
5.455761153601368
 30
0.0
 10
3.396594446307684
 20
5.497385903601367
 30
0.0
 10
3.320732196307683
 20
5.456785653601368
 30
0.0
  0
SPLINE
  5
16C
330
1F
100
AcDbEntity
  8
0
  6
Continuous
 62
     7
370
    25
100
AcDbSpline
210
0.0
220
0.0
230
1.0
 70
     8
 71
     3
 72
     8
 73
     4
 74
     0
 42
0.00000001
 43
0.00000001
 40
0.0
 40
0.0
 40
0.0
 40
0.0
 40
1.0
 40
1.0
 40
1.0
 40
1.0
 10
3.320732196307683
 20
5.456785653601368
 30
0.0
 10
3.267184446307684
 20
5.428127653601367
 30
0.0
 10
3.273784946307683
 20
5.321414153601368
 30
0.0
 10
3.330709446307684
 20
5.295477903601367
 30
0.0
  0
SPLINE
  5
16D
330
1F
100
AcDbEntity
  8
0
  6
Continuous
 62
     7
370
    25
100
AcDbSpline
210
0.0
220
0.0
230
1.0
 70
     8
 71
     3
 72
     8
 73
     4
 74
     0
 42
0.00000001
 43
0.00000001
 40
0.0
 40
0.0
 40
0.0
 40
0.0
 40
1.0
 40
1.0
 40
1.0
 40
1.0
 10
3.292257946307684
 20
4.610902653601368
 30
0.0
 10
3.347469946307684
 20
4.610902403601368
 30
0.0
 10
3.445339946307683
 20
4.730342403601368
 30
0.0
 10
3.445339946307683
 20
4.797722653601367
 30
0.0
  0
SPLINE
  5
16E
330
1F
100
AcDbEntity
  8
0
  6
Continuous
 62
     7
370
    25
100
AcDbSpline
210
0.0
220
0.0
230
1.0
 70
     8
 71
     3
 72
     8
 73
     4
 74
     0
 42
0.00000001
 43
0.00000001
 40
0.0
 40
0.0
 40
0.0
 40
0.0
 40
1.0
 40
1.0
 40
1.0
 40
1.0
 10
3.445339946307683
 20
4.797722653601367
 30
0.0
 10
3.445339946307683
 20
4.817589903601368
 30
0.0
 10
3.454657696307684
 20
4.822726403601367
 30
0.0
 10
3.475905446307684
 20
4.814572903601368
 30
0.0
  0
SPLINE
  5
16F
330
1F
100
AcDbEntity
  8
0
  6
Continuous
 62
     7
370
    25
100
AcDbSpline
210
0.0
220
0.0
230
1.0
 70
     8
 71
     3
 72
     8
 73
     4
 74
     0
 42
0.00000001
 43
0.00000001
 40
0.0
 40
0.0
 40
0.0
 40
0.0
 40
1.0
 40
1.0
 40
1.0
 40
1.0
 10
3.475905446307684
 20
4.814572903601368
 30
0.0
 10
3.521901696307683
 20
4.796922403601368
 30
0.0
 10
3.930127196307684
 20
4.736491903601368
 30
0.0
 10
4.155125196307684
 20
4.714026403601367
 30
0.0
  0
SPLINE
  5
170
330
1F
100
AcDbEntity
  8
0
  6
Continuous
 62
     7
370
    25
100
AcDbSpline
210
0.0
220
0.0
230
1.0
 70
     8
 71
     3
 72
     8
 73
     4
 74
     0
 42
0.00000001
 43
0.00000001
 40
0.0
 40
0.0
 40
0.0
 40
0.0
 40
1.0
 40
1.0
 40
1.0
 40
1.0
 10
4.155125196307684
 20
4.714026403601367
 30
0.0
 10
4.264268696307683
 20
4.703128653601367
 30
0.0
 10
4.483013696307683
 20
4.690799153601367
 30
0.0
 10
4.641225196307683
 20
4.686627403601368
 30
0.0
  0
SPLINE
  5
171
330
1F
100
AcDbEntity
  8
0
  6
Continuous
 62
     7
370
    25
100
AcDbSpline
210
0.0
220
0.0
230
1.0
 70
     8
 71
     3
 72
     8
 73
     4
 74
     0
 42
0.00000001
 43
0.00000001
 40
0.0
 40
0.0
 40
0.0
 40
0.0
 40
1.0
 40
1.0
 40
1.0
 40
1.0
 10
4.641225196307683
 20
4.686627403601368
 30
0.0
 10
4.954018696307683
 20
4.678379653601367
 30
0.0
 10
5.061917196307683
 20
4.694691403601367
 30
0.0
 10
5.252711446307684
 20
4.779069653601367
 30
0.0
  0
SPLINE
  5
172
330
1F
100
AcDbEntity
  8
0
  6
Continuous
 62
     7
370
    25
100
AcDbSpline
210
0.0
220
0.0
230
1.0
 70
     8
 71
     3
 72
     8
 73
     4
 74
     0
 42
0.00000001
 43
0.00000001
 40
0.0
 40
0.0
 40
0.0
 40
0.0
 40
1.0
 40
1.0
 40
1.0
 40
1.0
 10
5.252711446307684
 20
4.779069653601367
 30
0.0
 10
5.306758696307683
 20
4.802971903601367
 30
0.0
 10
5.361701196307684
 20
4.822528403601368
 30
0.0
 10
5.374806196307683
 20
4.822528403601368
 30
0.0
  0
SPLINE
  5
173
330
1F
100
AcDbEntity
  8
0
  6
Continuous
 62
     7
370
    25
100
AcDbSpline
210
0.0
220
0.0
230
1.0
 70
     8
 71
     3
 72
     8
 73
     4
 74
     0
 42
0.00000001
 43
0.00000001
 40
0.0
 40
0.0
 40
0.0
 40
0.0
 40
1.0
 40
1.0
 40
1.0
 40
1.0
 10
5.374806196307683
 20
4.822528403601368
 30
0.0
 10
5.387910946307684
 20
4.822528403601368
 30
0.0
 10
5.426458446307683
 20
4.790784403601367
 30
0.0
 10
5.460467446307684
 20
4.751986403601367
 30
0.0
  0
SPLINE
  5
174
330
1F
100
AcDbEntity
  8
0
  6
Continuous
 62
     7
370
    25
100
AcDbSpline
210
0.0
220
0.0
230
1.0
 70
     8
 71
     3
 72
     8
 73
     4
 74
     0
 42
0.00000001
 43
0.00000001
 40
0.0
 40
0.0
 40
0.0
 40
0.0
 40
1.0
 40
1.0
 40
1.0
 40
1.0
 10
5.460467446307684
 20
4.751986403601367
 30
0.0
 10
5.530269446307684
 20
4.672354403601368
 30
0.0
 10
5.563525446307684
 20
4.665273153601367
 30
0.0
 10
5.619652196307684
 20
4.718090653601367
 30
0.0
  0
SPLINE
  5
175
330
1F
100
AcDbEntity
  8
0
  6
Continuous
 62
     7
370
    25
100
AcDbSpline
210
0.0
220
0.0
230
1.0
 70
     8
 71
     3
 72
     8
 73
     4
 74
     0
 42
0.00000001
 43
0.00000001
 40
0.0
 40
0.0
 40
0.0
 40
0.0
 40
1.0
 40
1.0
 40
1.0
 40
1.0
 10
5.619652196307684
 20
4.718090653601367
 30
0.0
 10
5.641070446307684
 20
4.738246153601367
 30
0.0
 10
5.683621946307684
 20
4.765297653601367
 30
0.0
 10
5.714210696307683
 20
4.778204903601367
 30
0.0
  0
SPLINE
  5
176
330
1F
100
AcDbEntity
  8
0
  6
Continuous
 62
     7
370
    25
100
AcDbSpline
210
0.0
220
0.0
230
1.0
 70
     8
 71
     3
 72
     8
 73
     4
 74
     0
 42
0.00000001
 43
0.00000001
 40
0.0
 40
0.0
 40
0.0
 40
0.0
 40
1.0
 40
1.0
 40
1.0
 40
1.0
 10
5.714210696307683
 20
4.778204903601367
 30
0.0
 10
5.779039196307683
 20
4.805560403601367
 30
0.0
 10
5.798077446307684
 20
4.851255903601368
 30
0.0
 10
5.782582196307684
 20
4.942311653601367
 30
0.0
  0
SPLINE
  5
177
330
1F
100
AcDbEntity
  8
0
  6
Continuous
 62
     7
370
    25
100
AcDbSpline
210
0.0
220
0.0
230
1.0
 70
     8
 71
     3
 72
     8
 73
     4
 74
     0
 42
0.00000001
 43
0.00000001
 40
0.0
 40
0.0
 40
0.0
 40
0.0
 40
1.0
 40
1.0
 40
1.0
 40
1.0
 10
5.782582196307684
 20
4.942311653601367
 30
0.0
 10
5.765941946307684
 20
5.040097153601368
 30
0.0
 10
5.721495696307684
 20
5.087893653601367
 30
0.0
 10
5.636618946307683
 20
5.099278153601368
 30
0.0
  0
SPLINE
  5
178
330
1F
100
AcDbEntity
  8
0
  6
Continuous
 62
     7
370
    25
100
AcDbSpline
210
0.0
220
0.0
230
1.0
 70
     8
 71
     3
 72
     8
 73
     4
 74
     0
 42
0.00000001
 43
0.00000001
 40
0.0
 40
0.0
 40
0.0
 40
0.0
 40
1.0
 40
1.0
 40
1.0
 40
1.0
 10
5.636618946307683
 20
5.099278153601368
 30
0.0
 10
5.533618446307683
 20
5.113093403601368
 30
0.0
 10
5.480078696307683
 20
5.094954153601368
 30
0.0
 10
5.444103946307684
 20
5.034053403601368
 30
0.0
  0
SPLINE
  5
179
330
1F
100
AcDbEntity
  8
0
  6
Continuous
 62
     7
370
    25
100
AcDbSpline
210
0.0
220
0.0
230
1.0
 70
     8
 71
     3
 72
     8
 73
     4
 74
     0
 42
0.00000001
 43
0.00000001
 40
0.0
 40
0.0
 40
0.0
 40
0.0
 40
1.0
 40
1.0
 40
1.0
 40
1.0
 10
5.444103946307684
 20
5.034053403601368
 30
0.0
 10
5.413278446307683
 20
4.981870403601367
 30
0.0
 10
5.362372196307684
 20
4.964554403601367
 30
0.0
 10
5.341077946307684
 20
4.999008653601368
 30
0.0
  0
SPLINE
  5
17A
330
1F
100
AcDbEntity
  8
0
  6
Continuous
 62
     7
370
    25
100
AcDbSpline
210
0.0
220
0.0
230
1.0
 70
     8
 71
     3
 72
     8
 73
     4
 74
     0
 42
0.00000001
 43
0.00000001
 40
0.0
 40
0.0
 40
0.0
 40
0.0
 40
1.0
 40
1.0
 40
1.0
 40
1.0
 10
5.341077946307684
 20
4.999008653601368
 30
0.0
 10
5.304784946307684
 20
5.057732153601368
 30
0.0
 10
5.213051446307683
 20
5.077500403601368
 30
0.0
 10
4.909085946307684
 20
5.092101903601367
 30
0.0
  0
SPLINE
  5
17B
330
1F
100
AcDbEntity
  8
0
  6
Continuous
 62
     7
370
    25
100
AcDbSpline
210
0.0
220
0.0
230
1.0
 70
     8
 71
     3
 72
     8
 73
     4
 74
     0
 42
0.00000001
 43
0.00000001
 40
0.0
 40
0.0
 40
0.0
 40
0.0
 40
1.0
 40
1.0
 40
1.0
 40
1.0
 10
4.909085946307684
 20
5.092101903601367
 30
0.0
 10
4.496286446307684
 20
5.111931403601368
 30
0.0
 10
4.487046196307683
 20
5.111900903601367
 30
0.0
 10
4.274208196307684
 20
5.090009153601367
 30
0.0
  0
SPLINE
  5
17C
330
1F
100
AcDbEntity
  8
0
  6
Continuous
 62
     7
370
    25
100
AcDbSpline
210
0.0
220
0.0
230
1.0
 70
     8
 71
     3
 72
     8
 73
     4
 74
     0
 42
0.00000001
 43
0.00000001
 40
0.0
 40
0.0
 40
0.0
 40
0.0
 40
1.0
 40
1.0
 40
1.0
 40
1.0
 10
4.274208196307684
 20
5.090009153601367
 30
0.0
 10
4.172363196307684
 20
5.079533653601367
 30
0.0
 10
3.900556196307684
 20
5.070616903601367
 30
0.0
 10
3.670192696307684
 20
5.070194153601368
 30
0.0
  0
SPLINE
  5
17F
330
1F
100
AcDbEntity
  8
0
  6
Continuous
 62
     7
370
    25
100
AcDbSpline
210
0.0
220
0.0
230
1.0
 70
     8
 71
     3
 72
     8
 73
     4
 74
     0
 42
0.00000001
 43
0.00000001
 40
0.0
 40
0.0
 40
0.0
 40
0.0
 40
1.0
 40
1.0
 40
1.0
 40
1.0
 10
3.251349696307684
 20
4.840163903601368
 30
0.0
 10
3.251349696307684
 20
4.612128403601368
 30
0.0
 10
3.251567946307683
 20
4.610902653601368
 30
0.0
 10
3.292257946307684
 20
4.610902653601368
 30
0.0
  0
SPLINE
  5
180
330
1F
100
AcDbEntity
  8
0
  6
Continuous
 62
     7
370
    25
100
AcDbSpline
210
0.0
220
0.0
230
1.0
 70
     8
 71
     3
 72
     8
 73
     4
 74
     0
 42
0.00000001
 43
0.00000001
 40
0.0
 40
0.0
 40
0.0
 40
0.0
 40
1.0
 40
1.0
 40
1.0
 40
1.0
 10
4.922312696307683
 20
3.165653653601367
 30
0.0
 10
4.594130696307683
 20
3.139397903601367
 30
0.0
 10
4.141794446307683
 20
3.198615403601367
 30
0.0
 10
3.895045196307684
 20
3.300137903601368
 30
0.0
  0
SPLINE
  5
181
330
1F
100
AcDbEntity
  8
0
  6
Continuous
 62
     7
370
    25
100
AcDbSpline
210
0.0
220
0.0
230
1.0
 70
     8
 71
     3
 72
     8
 73
     4
 74
     0
 42
0.00000001
 43
0.00000001
 40
0.0
 40
0.0
 40
0.0
 40
0.0
 40
1.0
 40
1.0
 40
1.0
 40
1.0
 10
3.895045196307684
 20
3.300137903601368
 30
0.0
 10
3.389781592128654
 20
3.508023400395469
 30
0.0
 10
3.043086460595582
 20
3.77049297665399
 30
0.0
 10
2.746028510380899
 20
4.170014327787523
 30
0.0
  0
SPLINE
  5
183
330
1F
100
AcDbEntity
  8
0
  6
Continuous
 62
     7
370
    25
100
AcDbSpline
210
0.0
220
0.0
230
1.0
 70
     8
 71
     3
 72
     8
 73
     4
 74
     0
 42
0.00000001
 43
0.00000001
 40
0.0
 40
0.0
 40
0.0
 40
0.0
 40
1.0
 40
1.0
 40
1.0
 40
1.0
 10
3.438531161504263
 20
7.71353441043267
 30
0.0
 10
3.478042161504263
 20
7.745225410432671
 30
0.0
 10
3.827484161504263
 20
7.90598791043267
 30
0.0
 10
3.930316911504262
 20
7.93978291043267
 30
0.0
  0
SPLINE
  5
184
330
1F
100
AcDbEntity
  8
0
  6
Continuous
 62
     7
370
    25
100
AcDbSpline
210
0.0
220
0.0
230
1.0
 70
     8
 71
     3
 72
     8
 73
     4
 74
     0
 42
0.00000001
 43
0.00000001
 40
0.0
 40
0.0
 40
0.0
 40
0.0
 40
1.0
 40
1.0
 40
1.0
 40
1.0
 10
3.930316911504262
 20
7.93978291043267
 30
0.0
 10
4.255296911504262
 20
8.04658466043267
 30
0.0
 10
4.408306661504263
 20
8.071748910432671
 30
0.0
 10
4.732731911504263
 20
8.071748910432671
 30
0.0
  0
SPLINE
  5
185
330
1F
100
AcDbEntity
  8
0
  6
Continuous
 62
     7
370
    25
100
AcDbSpline
210
0.0
220
0.0
230
1.0
 70
     8
 71
     3
 72
     8
 73
     4
 74
     0
 42
0.00000001
 43
0.00000001
 40
0.0
 40
0.0
 40
0.0
 40
0.0
 40
1.0
 40
1.0
 40
1.0
 40
1.0
 10
6.703887946307684
 20
4.152379403601367
 30
0.0
 10
6.569844196307684
 20
3.970533153601368
 30
0.0
 10
6.403381696307684
 20
3.798863903601367
 30
0.0
 10
6.248859946307684
 20
3.683118653601368
 30
0.0
  0
SPLINE
  5
187
330
1F
100
AcDbEntity
  8
0
  6
Continuous
 62
     7
370
    25
100
AcDbSpline
210
0.0
220
0.0
230
1.0
 70
     8
 71
     3
 72
     8
 73
     4
 74
     0
 42
0.00000001
 43
0.00000001
 40
0.0
 40
0.0
 40
0.0
 40
0.0
 40
1.0
 40
1.0
 40
1.0
 40
1.0
 10
5.420515446307684
 20
3.252428153601368
 30
0.0
 10
5.181765946307684
 20
3.194621403601368
 30
0.0
 10
5.094579946307683
 20
3.179435653601367
 30
0.0
 10
4.922312696307683
 20
3.165653653601367
 30
0.0
  0
SPLINE
  5
18A
330
1F
100
AcDbEntity
  8
0
  6
Continuous
 62
     7
370
    25
100
AcDbSpline
210
0.0
220
0.0
230
1.0
 70
     8
 71
     3
 72
    23
 73
    19
 74
     0
 42
0.00000001
 43
0.00000001
 40
0.0
 40
0.0
 40
0.0
 40
0.0
 40
0.1035085311412564
 40
0.2006213735604856
 40
0.2910176480222471
 40
0.3756628256648721
 40
0.4538968124518389
 40
0.5257595500786229
 40
0.5924599734871311
 40
0.6534060845172256
 40
0.7092319317629822
 40
0.7599487988807431
 40
0.8062475209157809
 40
0.8487230345431039
 40
0.887625937747448
 40
0.925438095979385
 40
0.9624370558318419
 40
1.0
 40
1.0
 40
1.0
 40
1.0
 10
5.349652123832411
 20
-3.301048325638776
 30
0.0
 10
5.380245769050062
 20
-3.301460912575827
 30
0.0
 10
5.439542708714012
 20
-3.302260593115314
 30
0.0
 10
5.525527849204005
 20
-3.305606253159394
 30
0.0
 10
5.605694454796502
 20
-3.31247470476117
 30
0.0
 10
5.680150007811136
 20
-3.320549241017121
 30
0.0
 10
5.748589994856213
 20
-3.332196859776125
 30
0.0
 10
5.811280956266585
 20
-3.345574388388693
 30
0.0
 10
5.868184553175608
 20
-3.361275842379838
 30
0.0
 10
5.919201503660816
 20
-3.379802168068673
 30
0.0
 10
5.96448626259115
 20
-3.399994566642146
 30
0.0
 10
6.003623471209377
 20
-3.422691126567504
 30
0.0
 10
6.037326148354063
 20
-3.446639048799006
 30
0.0
 10
6.064517475182811
 20
-3.472997456463153
 30
0.0
 10
6.086250586179408
 20
-3.50094471557922
 30
0.0
 10
6.101480903459394
 20
-3.531104645394948
 30
0.0
 10
6.111028625731254
 20
-3.563236181469147
 30
0.0
 10
6.112030707982639
 20
-3.585323404958761
 30
0.0
 10
6.112535538970462
 20
-3.596450550297495
 30
0.0
  0
SPLINE
  5
18B
330
1F
100
AcDbEntity
  8
0
  6
Continuous
 62
     7
370
    25
100
AcDbSpline
210
0.0
220
0.0
230
1.0
 70
     8
 71
     3
 72
    23
 73
    19
 74
     0
 42
0.00000001
 43
0.00000001
 40
0.0
 40
0.0
 40
0.0
 40
0.0
 40
0.0394244468749807
 40
0.0773863886962737
 40
0.1153567406513675
 40
0.1548521678097926
 40
0.1972836229159784
 40
0.2432477844921156
 40
0.2932149343741424
 40
0.3484047224940272
 40
0.408661431665104
 40
0.4744619870429589
 40
0.546486751970044
 40
0.6244645916351972
 40
0.70848173172298
 40
0.7991756705098733
 40
0.896174215464217
 40
1.0
 40
1.0
 40
1.0
 40
1.0
 10
4.583900725930683
 20
-3.591113893754259
 30
0.0
 10
4.584704109849204
 20
-3.579446372445499
 30
0.0
 10
4.586281075034994
 20
-3.55654415286624
 30
0.0
 10
4.595967700147193
 20
-3.523481432081114
 30
0.0
 10
4.612012900681876
 20
-3.493121328751606
 30
0.0
 10
4.633701991436774
 20
-3.464807588410896
 30
0.0
 10
4.661637731367344
 20
-3.439047760277945
 30
0.0
 10
4.695054957089194
 20
-3.415193679842024
 30
0.0
 10
4.734536847967727
 20
-3.393965723725872
 30
0.0
 10
4.779655887782404
 20
-3.374789700559663
 30
0.0
 10
4.83074266346488
 20
-3.358233058484031
 30
0.0
 10
4.887523952561253
 20
-3.343494045504104
 30
0.0
 10
4.950199763263099
 20
-3.331012699879326
 30
0.0
 10
5.01866318167889
 20
-3.320317862859707
 30
0.0
 10
5.093057989400545
 20
-3.312340110617265
 30
0.0
 10
5.173265965934436
 20
-3.306311022465572
 30
0.0
 10
5.259471860051184
 20
-3.302060007923489
 30
0.0
 10
5.318918386322852
 20
-3.301393110367471
 30
0.0
 10
5.349652123832411
 20
-3.301048325638776
 30
0.0
  0
SPLINE
  5
18C
330
1F
100
AcDbEntity
  8
0
  6
Continuous
 62
     7
370
    25
100
AcDbSpline
210
0.0
220
0.0
230
1.0
 70
     8
 71
     3
 72
    23
 73
    19
 74
     0
 42
0.00000001
 43
0.00000001
 40
0.0
 40
0.0
 40
0.0
 40
0.0
 40
0.0405150134599015
 40
0.0796480112452093
 40
0.1188056752780253
 40
0.1593921228459249
 40
0.2026726350504931
 40
0.2496955197347689
 40
0.3012814341708305
 40
0.3580534993896658
 40
0.4195935182214855
 40
0.486329046233579
 40
0.5584632332411934
 40
0.6356984694017576
 40
0.718110897306364
 40
0.8062976459327064
 40
0.900403857132682
 40
0.9999999999999999
 40
0.9999999999999999
 40
0.9999999999999999
 40
0.9999999999999999
 10
6.112535538970463
 20
-3.596450550297495
 30
0.0
 10
6.111770733953994
 20
-3.608404121918766
 30
0.0
 10
6.110267212336943
 20
-3.631903514504521
 30
0.0
 10
6.099994267639507
 20
-3.665712052875325
 30
0.0
 10
6.083751022476501
 20
-3.696970780670398
 30
0.0
 10
6.061118953792085
 20
-3.725579979225404
 30
0.0
 10
6.032357081046672
 20
-3.751534425344346
 30
0.0
 10
5.997500193174318
 20
-3.774882812231341
 30
0.0
 10
5.956590316015883
 20
-3.795698475189225
 30
0.0
 10
5.909843038702701
 20
-3.813876732660268
 30
0.0
 10
5.857585018320663
 20
-3.829680507217831
 30
0.0
 10
5.800117599225604
 20
-3.843540449961673
 30
0.0
 10
5.737466321759397
 20
-3.855253199511556
 30
0.0
 10
5.669825552377026
 20
-3.865102761805417
 30
0.0
 10
5.597098864013602
 20
-3.872446286927227
 30
0.0
 10
5.519179264183357
 20
-3.876976572602267
 30
0.0
 10
5.436134856110616
 20
-3.880599515416005
 30
0.0
 10
5.379019292943599
 20
-3.880725683664187
 30
0.0
 10
5.349652123832411
 20
-3.880790555724889
 30
0.0
  0
SPLINE
  5
18D
330
1F
100
AcDbEntity
  8
0
  6
Continuous
 62
     7
370
    25
100
AcDbSpline
210
0.0
220
0.0
230
1.0
 70
     8
 71
     3
 72
    23
 73
    19
 74
     0
 42
0.00000001
 43
0.00000001
 40
0.0
 40
0.0
 40
0.0
 40
0.0
 40
0.1019501047985815
 40
0.1979652435498938
 40
0.2876843713622622
 40
0.3711742764580103
 40
0.4489978172988843
 40
0.5209160388562497
 40
0.5875947155635003
 40
0.648714321722878
 40
0.7045642188713179
 40
0.7553311897581885
 40
0.801660723477775
 40
0.8440825372305276
 40
0.883850876842574
 40
0.9222223470661132
 40
0.9606187617274077
 40
0.9999999999999999
 40
0.9999999999999999
 40
0.9999999999999999
 40
0.9999999999999999
 10
5.349652123832412
 20
-3.880790555724889
 30
0.0
 10
5.319467566570906
 20
-3.880526940692326
 30
0.0
 10
5.260855628490754
 20
-3.880015056822979
 30
0.0
 10
5.175720702878085
 20
-3.876869632976483
 30
0.0
 10
5.096201900709717
 20
-3.871121416577046
 30
0.0
 10
5.022270330898984
 20
-3.863381317596736
 30
0.0
 10
4.953861966268632
 20
-3.853796994509616
 30
0.0
 10
4.890928928533539
 20
-3.841563680852424
 30
0.0
 10
4.833604764658687
 20
-3.826909891551814
 30
0.0
 10
4.781826655629414
 20
-3.810200031975322
 30
0.0
 10
4.735698063546304
 20
-3.791631380533384
 30
0.0
 10
4.695594392790818
 20
-3.770389930056366
 30
0.0
 10
4.661649048925939
 20
-3.746627493005762
 30
0.0
 10
4.633769969431436
 20
-3.720561460008672
 30
0.0
 10
4.61142307622066
 20
-3.692479831786516
 30
0.0
 10
4.595618629309665
 20
-3.661588766464964
 30
0.0
 10
4.585800130610427
 20
-3.628315212398674
 30
0.0
 10
4.584539182880033
 20
-3.60525743530676
 30
0.0
 10
4.583900725930683
 20
-3.593582567533818
 30
0.0
  0
SPLINE
  5
195
330
1F
100
AcDbEntity
  8
0
  6
Continuous
 62
     7
370
    25
100
AcDbSpline
210
0.0
220
0.0
230
1.0
 70
     8
 71
     3
 72
    11
 73
     7
 74
     0
 42
0.00000001
 43
0.00000001
 40
0.0
 40
0.0
 40
0.0
 40
0.0
 40
0.2454701662358102
 40
0.5011023612177168
 40
0.7563130123177044
 40
1.0
 40
1.0
 40
1.0
 40
1.0
 10
3.314366983400975
 20
1.179125116522127
 30
0.0
 10
3.334282096948885
 20
1.173834297002311
 30
0.0
 10
3.37493677436166
 20
1.163033627434958
 30
0.0
 10
3.43680802298713
 20
1.148783147355575
 30
0.0
 10
3.498552022290347
 20
1.134686962545244
 30
0.0
 10
3.539387733693605
 20
1.125405584816851
 30
0.0
 10
3.55933397261751
 20
1.120872087753817
 30
0.0
  0
SPLINE
  5
196
330
1F
100
AcDbEntity
  8
0
  6
Continuous
 62
     7
370
    25
100
AcDbSpline
210
0.0
220
0.0
230
1.0
 70
     8
 71
     3
 72
    11
 73
     7
 74
     0
 42
0.00000001
 43
0.00000001
 40
0.0
 40
0.0
 40
0.0
 40
0.0
 40
0.2400335183862255
 40
0.491632554105196
 40
0.7468064616099387
 40
1.0
 40
1.0
 40
1.0
 40
1.0
 10
3.559426091831726
 20
1.117500112039448
 30
0.0
 10
3.539597365496719
 20
1.112952752873535
 30
0.0
 10
3.49898450676652
 20
1.103638929470028
 30
0.0
 10
3.437465033898032
 20
1.088754662095085
 30
0.0
 10
3.375012081492279
 20
1.072992785087319
 30
0.0
 10
3.333426558051025
 20
1.061721729668009
 30
0.0
 10
3.312714795504229
 20
1.056108155419597
 30
0.0
  0
SPLINE
  5
198
330
1F
100
AcDbEntity
  8
0
  6
Continuous
 62
     7
370
    25
100
AcDbSpline
210
0.0
220
0.0
230
1.0
 70
     8
 71
     3
 72
    19
 73
    15
 74
     0
 42
0.00000001
 43
0.00000001
 40
0.0
 40
0.0
 40
0.0
 40
0.0
 40
0.073526552236459
 40
0.1422940361256286
 40
0.2068649687357428
 40
0.2686158228619772
 40
0.3281216954804735
 40
0.3873303199686423
 40
0.4466665188494885
 40
0.5083629249509153
 40
0.6322195800237411
 40
0.7540224595179168
 40
0.8754955183846653
 40
1.0
 40
1.0
 40
1.0
 40
1.0
 10
3.258275548034884
 20
-4.972803849881578
 30
0.0
 10
3.257712629187104
 20
-4.981670606388563
 30
0.0
 10
3.256623226890581
 20
-4.998830211080272
 30
0.0
 10
3.251458055992579
 20
-5.023315948860117
 30
0.0
 10
3.244651002156263
 20
-5.045916306837142
 30
0.0
 10
3.234840720735528
 20
-5.066161487712586
 30
0.0
 10
3.223126212758773
 20
-5.084613023722687
 30
0.0
 10
3.208592943490249
 20
-5.100549917821705
 30
0.0
 10
3.191999563041048
 20
-5.114740729883076
 30
0.0
 10
3.16652664091061
 20
-5.129891383506893
 30
0.0
 10
3.132605490194184
 20
-5.145179213259039
 30
0.0
 10
3.090052829313665
 20
-5.157872972855547
 30
0.0
 10
3.046103510585187
 20
-5.165289517664633
 30
0.0
 10
3.01637774084862
 20
-5.165398115358216
 30
0.0
 10
3.001331686056727
 20
-5.165453083383009
 30
0.0
  0
SPLINE
  5
199
330
1F
100
AcDbEntity
  8
0
  6
Continuous
 62
     7
370
    25
100
AcDbSpline
210
0.0
220
0.0
230
1.0
 70
     8
 71
     3
 72
    19
 73
    15
 74
     0
 42
0.00000001
 43
0.00000001
 40
0.0
 40
0.0
 40
0.0
 40
0.0
 40
0.1206096826713073
 40
0.2422732048932985
 40
0.3655501334164475
 40
0.4927791141379986
 40
0.556063847665702
 40
0.6180416519657188
 40
0.678336667858968
 40
0.7387669503628119
 40
0.8002188508272416
 40
0.8634616386733365
 40
0.9300010922707433
 40
1.0
 40
1.0
 40
1.0
 40
1.0
 10
3.001331686056727
 20
-4.760035275860544
 30
0.0
 10
3.016022980182413
 20
-4.761672141535228
 30
0.0
 10
3.045533935132525
 20
-4.764960175167372
 30
0.0
 10
3.088880141651631
 20
-4.776798658330641
 30
0.0
 10
3.131155822547992
 20
-4.793944885686011
 30
0.0
 10
3.165162248087725
 20
-4.812051069377707
 30
0.0
 10
3.190630344798787
 20
-4.829650032190862
 30
0.0
 10
3.207599926207623
 20
-4.8448722929829
 30
0.0
 10
3.221995313589056
 20
-4.862055889975138
 30
0.0
 10
3.234444785767856
 20
-4.880639660778635
 30
0.0
 10
3.243986439178385
 20
-4.901284114930456
 30
0.0
 10
3.251306682496401
 20
-4.923560875435451
 30
0.0
 10
3.256271584345956
 20
-4.947581648641991
 30
0.0
 10
3.257596371487255
 20
-4.964255627348334
 30
0.0
 10
3.258275548034884
 20
-4.972803849881578
 30
0.0
  0
CIRCLE
  5
19A
330
1F
100
AcDbEntity
  8
0
  6
Continuous
 62
     7
370
    25
100
AcDbCircle
 10
8.1429469193
 20
-8.644375793
 30
0.0
 40
0.1164934816920322
  0
LINE
  5
1C7
330
1F
100
AcDbEntity
  8
0
  6
Continuous
 62
     7
370
    25
100
AcDbLine
 10
3.6095494854
 20
0.2578222938
 30
0.0
 11
3.6096695612
 21
0.2577938789
 31
0.0
  0
LINE
  5
1C8
330
1F
100
AcDbEntity
  8
0
  6
Continuous
 62
     7
370
    25
100
AcDbLine
 10
3.3639582854
 20
0.4645508722
 30
0.0
 11
2.4686475177
 21
0.4645508722
 31
0.0
  0
LINE
  5
1C9
330
1F
100
AcDbEntity
  8
0
  6
Continuous
 62
     7
370
    25
100
AcDbLine
 10
2.4686475177
 20
0.4645508722
 30
0.0
 11
2.4686475177
 21
0.2740132769
 31
0.0
  0
LINE
  5
1CA
330
1F
100
AcDbEntity
  8
0
  6
Continuous
 62
     7
370
    25
100
AcDbLine
 10
2.4686475177
 20
0.2740132769
 30
0.0
 11
3.3639582854
 21
0.2740132769
 31
0.0
  0
LINE
  5
1CB
330
1F
100
AcDbEntity
  8
0
  6
Continuous
 62
     7
370
    25
100
AcDbLine
 10
3.3639582854
 20
0.2740132769
 30
0.0
 11
3.3639582854
 21
0.4645508722
 31
0.0
  0
LINE
  5
1CC
330
1F
100
AcDbEntity
  8
0
  6
Continuous
 62
     7
370
    25
100
AcDbLine
 10
2.9131023317
 20
-0.3568284973
 30
0.0
 11
3.0313671329
 21
-0.3568284973
 31
0.0
  0
LINE
  5
1CD
330
1F
100
AcDbEntity
  8
0
  6
Continuous
 62
     7
370
    25
100
AcDbLine
 10
3.0313671329
 20
-0.3568284973
 30
0.0
 11
3.0313671329
 21
0.0892049468
 31
0.0
  0
LINE
  5
1CE
330
1F
100
AcDbEntity
  8
0
  6
Continuous
 62
     7
370
    25
100
AcDbLine
 10
3.0313671329
 20
0.0892049468
 30
0.0
 11
2.9131023317
 21
0.0892049468
 31
0.0
  0
LINE
  5
1CF
330
1F
100
AcDbEntity
  8
0
  6
Continuous
 62
     7
370
    25
100
AcDbLine
 10
2.9131023317
 20
0.0892049468
 30
0.0
 11
2.9131023317
 21
-0.3568284973
 31
0.0
  0
LINE
  5
1D0
330
1F
100
AcDbEntity
  8
0
  6
Continuous
 62
     7
370
    25
100
AcDbLine
 10
3.7208091016
 20
-0.4177651283
 30
0.0
 11
3.5602370617
 21
-0.4177651283
 31
0.0
  0
LINE
  5
1D1
330
1F
100
AcDbEntity
  8
0
  6
Continuous
 62
     7
370
    25
100
AcDbLine
 10
3.5602370617
 20
-0.4177651283
 30
0.0
 11
3.5602370617
 21
-0.7518847264
 31
0.0
  0
LINE
  5
1D2
330
1F
100
AcDbEntity
  8
0
  6
Continuous
 62
     7
370
    25
100
AcDbLine
 10
3.5602370617
 20
-0.7518847264
 30
0.0
 11
2.4800251572
 21
-0.7518847264
 31
0.0
  0
LINE
  5
1D3
330
1F
100
AcDbEntity
  8
0
  6
Continuous
 62
     7
370
    25
100
AcDbLine
 10
2.4800251572
 20
-0.7518847264
 30
0.0
 11
2.4800251572
 21
-0.9424223217
 31
0.0
  0
LINE
  5
1D4
330
1F
100
AcDbEntity
  8
0
  6
Continuous
 62
     7
370
    25
100
AcDbLine
 10
2.4800251572
 20
-0.9424223217
 30
0.0
 11
3.5602370617
 21
-0.9424223217
 31
0.0
  0
LINE
  5
1D5
330
1F
100
AcDbEntity
  8
0
  6
Continuous
 62
     7
370
    25
100
AcDbLine
 10
3.5602370617
 20
-0.9424223217
 30
0.0
 11
3.5602370617
 21
-1.2781638596
 31
0.0
  0
LINE
  5
1D6
330
1F
100
AcDbEntity
  8
0
  6
Continuous
 62
     7
370
    25
100
AcDbLine
 10
3.5602370617
 20
-1.2781638596
 30
0.0
 11
3.7208091016
 21
-1.2781638596
 31
0.0
  0
LINE
  5
1D7
330
1F
100
AcDbEntity
  8
0
  6
Continuous
 62
     7
370
    25
100
AcDbLine
 10
3.7208091016
 20
-1.2781638596
 30
0.0
 11
3.7208091016
 21
-0.4177651283
 31
0.0
  0
LINE
  5
1D8
330
1F
100
AcDbEntity
  8
0
  6
Continuous
 62
     7
370
    25
100
AcDbLine
 10
3.2467776035
 20
-2.983424798
 30
0.0
 11
3.2469187613
 21
-2.9784971075
 31
0.0
  0
LINE
  5
1D9
330
1F
100
AcDbEntity
  8
0
  6
Continuous
 62
     7
370
    25
100
AcDbLine
 10
3.2469187613
 20
-2.9784971075
 30
0.0
 11
3.3729841351
 21
-2.9686417265
 31
0.0
  0
LINE
  5
1DA
330
1F
100
AcDbEntity
  8
0
  6
Continuous
 62
     7
370
    25
100
AcDbLine
 10
3.3729841351
 20
-2.9686417265
 30
0.0
 11
3.3729841351
 21
-2.8028250785
 31
0.0
  0
LINE
  5
1DB
330
1F
100
AcDbEntity
  8
0
  6
Continuous
 62
     7
370
    25
100
AcDbLine
 10
3.1285130314
 20
-2.8090784149
 30
0.0
 11
2.4863981111
 21
-2.8093128377
 31
0.0
  0
LINE
  5
1DC
330
1F
100
AcDbEntity
  8
0
  6
Continuous
 62
     7
370
    25
100
AcDbLine
 10
2.4863981111
 20
-2.8093128377
 30
0.0
 11
2.4863981111
 21
-2.999850433
 31
0.0
  0
LINE
  5
1DD
330
1F
100
AcDbEntity
  8
0
  6
Continuous
 62
     7
370
    25
100
AcDbLine
 10
2.4863981111
 20
-2.999850433
 30
0.0
 11
3.0248821236
 21
-2.999850433
 31
0.0
  0
LINE
  5
1DE
330
1F
100
AcDbEntity
  8
0
  6
Continuous
 62
     7
370
    25
100
AcDbLine
 10
3.0102484593
 20
-3.3497164587
 30
0.0
 11
2.4863981111
 21
-3.3499508815
 31
0.0
  0
LINE
  5
1DF
330
1F
100
AcDbEntity
  8
0
  6
Continuous
 62
     7
370
    25
100
AcDbLine
 10
2.4863981111
 20
-3.3499508815
 30
0.0
 11
2.4863981111
 21
-3.5404882477
 31
0.0
  0
LINE
  5
1E0
330
1F
100
AcDbEntity
  8
0
  6
Continuous
 62
     7
370
    25
100
AcDbLine
 10
2.4863981111
 20
-3.5404882477
 30
0.0
 11
3.0329918226
 21
-3.5404882477
 31
0.0
  0
LINE
  5
1E1
330
1F
100
AcDbEntity
  8
0
  6
Continuous
 62
     7
370
    25
100
AcDbLine
 10
3.3639582854
 20
-2.3737988579
 30
0.0
 11
2.4686475177
 21
-2.3737988579
 31
0.0
  0
LINE
  5
1E2
330
1F
100
AcDbEntity
  8
0
  6
Continuous
 62
     7
370
    25
100
AcDbLine
 10
2.4686475177
 20
-2.3737988579
 30
0.0
 11
2.4686475177
 21
-2.5643364532
 31
0.0
  0
LINE
  5
1E3
330
1F
100
AcDbEntity
  8
0
  6
Continuous
 62
     7
370
    25
100
AcDbLine
 10
2.4686475177
 20
-2.5643364532
 30
0.0
 11
3.3639582854
 21
-2.5643364532
 31
0.0
  0
LINE
  5
1E4
330
1F
100
AcDbEntity
  8
0
  6
Continuous
 62
     7
370
    25
100
AcDbLine
 10
3.3639582854
 20
-2.5643364532
 30
0.0
 11
3.3639582854
 21
-2.3737988579
 31
0.0
  0
LINE
  5
1E5
330
1F
100
AcDbEntity
  8
0
  6
Continuous
 62
     7
370
    25
100
AcDbLine
 10
3.6095494854
 20
-2.5805274363
 30
0.0
 11
3.6096695612
 21
-2.5805558512
 31
0.0
  0
LINE
  5
1E6
330
1F
100
AcDbEntity
  8
0
  6
Continuous
 62
     7
370
    25
100
AcDbLine
 10
3.2575715922
 20
-1.5912349047
 30
0.0
 11
3.2576804396
 21
-1.5881844296
 31
0.0
  0
LINE
  5
1E7
330
1F
100
AcDbEntity
  8
0
  6
Continuous
 62
     7
370
    25
100
AcDbLine
 10
3.2576804396
 20
-1.5881844296
 30
0.0
 11
3.779084129
 21
-1.5881844296
 31
0.0
  0
LINE
  5
1E8
330
1F
100
AcDbEntity
  8
0
  6
Continuous
 62
     7
370
    25
100
AcDbLine
 10
3.779084129
 20
-1.5881844296
 30
0.0
 11
3.779084129
 21
-1.3976468343
 31
0.0
  0
LINE
  5
1E9
330
1F
100
AcDbEntity
  8
0
  6
Continuous
 62
     7
370
    25
100
AcDbLine
 10
3.779084129
 20
-1.3976468343
 30
0.0
 11
2.4863981111
 21
-1.3976468343
 31
0.0
  0
LINE
  5
1EA
330
1F
100
AcDbEntity
  8
0
  6
Continuous
 62
     7
370
    25
100
AcDbLine
 10
2.4863981111
 20
-1.3976468343
 30
0.0
 11
2.4863981111
 21
-1.5881844296
 31
0.0
  0
LINE
  5
1EB
330
1F
100
AcDbEntity
  8
0
  6
Continuous
 62
     7
370
    25
100
AcDbLine
 10
2.4863981111
 20
-1.5881844296
 30
0.0
 11
3.0329918226
 21
-1.5881844296
 31
0.0
  0
LINE
  5
1EC
330
1F
100
AcDbEntity
  8
0
  6
Continuous
 62
     7
370
    25
100
AcDbLine
 10
3.0086058958
 20
-1.9380504554
 30
0.0
 11
2.4863981111
 21
-1.9382848782
 31
0.0
  0
LINE
  5
1ED
330
1F
100
AcDbEntity
  8
0
  6
Continuous
 62
     7
370
    25
100
AcDbLine
 10
2.4863981111
 20
-1.9382848782
 30
0.0
 11
2.4863981111
 21
-2.1288222443
 31
0.0
  0
LINE
  5
1EE
330
1F
100
AcDbEntity
  8
0
  6
Continuous
 62
     7
370
    25
100
AcDbLine
 10
2.4863981111
 20
-2.1288222443
 30
0.0
 11
3.0265040634
 21
-2.1288222443
 31
0.0
  0
LINE
  5
1EF
330
1F
100
AcDbEntity
  8
0
  6
Continuous
 62
     7
370
    25
100
AcDbLine
 10
3.373442898
 20
-4.4917793119
 30
0.0
 11
3.373442898
 21
-4.2695735597
 31
0.0
  0
LINE
  5
1F0
330
1F
100
AcDbEntity
  8
0
  6
Continuous
 62
     7
370
    25
100
AcDbLine
 10
3.373442898
 20
-4.2695735597
 30
0.0
 11
3.0747529913
 21
-4.0473678076
 31
0.0
  0
LINE
  5
1F1
330
1F
100
AcDbEntity
  8
0
  6
Continuous
 62
     7
370
    25
100
AcDbLine
 10
2.9708269353
 20
-3.9790529316
 30
0.0
 11
2.9708608499
 21
-3.9760024566
 31
0.0
  0
LINE
  5
1F2
330
1F
100
AcDbEntity
  8
0
  6
Continuous
 62
     7
370
    25
100
AcDbLine
 10
2.9708608499
 20
-3.9760024566
 30
0.0
 11
3.7808451642
 21
-3.9760024566
 31
0.0
  0
LINE
  5
1F3
330
1F
100
AcDbEntity
  8
0
  6
Continuous
 62
     7
370
    25
100
AcDbLine
 10
3.7808451642
 20
-3.9760024566
 30
0.0
 11
3.7808451642
 21
-3.7854648613
 31
0.0
  0
LINE
  5
1F4
330
1F
100
AcDbEntity
  8
0
  6
Continuous
 62
     7
370
    25
100
AcDbLine
 10
3.7808451642
 20
-3.7854648613
 30
0.0
 11
2.4789964927
 21
-3.7854648613
 31
0.0
  0
LINE
  5
1F5
330
1F
100
AcDbEntity
  8
0
  6
Continuous
 62
     7
370
    25
100
AcDbLine
 10
2.4789964927
 20
-3.7854648613
 30
0.0
 11
2.4789964927
 21
-3.9760024566
 31
0.0
  0
LINE
  5
1F6
330
1F
100
AcDbEntity
  8
0
  6
Continuous
 62
     7
370
    25
100
AcDbLine
 10
2.4789964927
 20
-3.9760024566
 30
0.0
 11
2.8004128053
 21
-3.9760024566
 31
0.0
  0
LINE
  5
1F7
330
1F
100
AcDbEntity
  8
0
  6
Continuous
 62
     7
370
    25
100
AcDbLine
 10
2.8004128053
 20
-3.9760024566
 30
0.0
 11
2.8896951143
 21
-4.0489897474
 31
0.0
  0
LINE
  5
1F8
330
1F
100
AcDbEntity
  8
0
  6
Continuous
 62
     7
370
    25
100
AcDbLine
 10
2.8896951143
 20
-4.0489897474
 30
0.0
 11
2.4789964927
 21
-4.3052562353
 31
0.0
  0
LINE
  5
1F9
330
1F
100
AcDbEntity
  8
0
  6
Continuous
 62
     7
370
    25
100
AcDbLine
 10
2.4789964927
 20
-4.3052562353
 30
0.0
 11
2.4789964927
 21
-4.5323278068
 31
0.0
  0
LINE
  5
1FA
330
1F
100
AcDbEntity
  8
0
  6
Continuous
 62
     7
370
    25
100
AcDbLine
 10
2.4789964927
 20
-4.5323278068
 30
0.0
 11
3.0049504588
 21
-4.1771229913
 31
0.0
  0
LINE
  5
1FB
330
1F
100
AcDbEntity
  8
0
  6
Continuous
 62
     7
370
    25
100
AcDbLine
 10
3.0049504588
 20
-4.1771229913
 30
0.0
 11
3.373442898
 21
-4.4917793119
 31
0.0
  0
LINE
  5
1FC
330
1F
100
AcDbEntity
  8
0
  6
Continuous
 62
     7
370
    25
100
AcDbLine
 10
2.882832462
 20
-4.758331987
 30
0.0
 11
2.8830668848
 21
-5.339159215
 31
0.0
  0
LINE
  5
1FD
330
1F
100
AcDbEntity
  8
0
  6
Continuous
 62
     7
370
    25
100
AcDbLine
 10
2.517479409
 20
-5.298500727
 30
0.0
 11
2.6519567336
 21
-5.267824112
 31
0.0
  0
LINE
  5
1FE
330
1F
100
AcDbEntity
  8
0
  6
Continuous
 62
     7
370
    25
100
AcDbLine
 10
4.6182773084
 20
-5.0735412953
 30
0.0
 11
4.794876708
 21
-5.2519555903
 31
0.0
  0
LINE
  5
1FF
330
1F
100
AcDbEntity
  8
0
  6
Continuous
 62
     7
370
    25
100
AcDbLine
 10
6.2551152535
 20
-4.5523082342
 30
0.0
 11
5.954166315
 21
-4.6685691656
 31
0.0
  0
LINE
  5
200
330
1F
100
AcDbEntity
  8
0
  6
Continuous
 62
     7
370
    25
100
AcDbLine
 10
4.5247501819
 20
-4.5213065729
 30
0.0
 11
4.2749780111
 21
-4.5213065729
 31
0.0
  0
LINE
  5
201
330
1F
100
AcDbEntity
  8
0
  6
Continuous
 62
     7
370
    25
100
AcDbLine
 10
4.2749780111
 20
-4.5213065729
 30
0.0
 11
4.2749780111
 21
-5.8579649895
 31
0.0
  0
LINE
  5
202
330
1F
100
AcDbEntity
  8
0
  6
Continuous
 62
     7
370
    25
100
AcDbLine
 10
4.2749780111
 20
-5.8579649895
 30
0.0
 11
4.6125805536
 21
-5.8579649895
 31
0.0
  0
LINE
  5
203
330
1F
100
AcDbEntity
  8
0
  6
Continuous
 62
     7
370
    25
100
AcDbLine
 10
4.6125805536
 20
-5.8579649895
 30
0.0
 11
4.6125805536
 21
-5.0735412953
 31
0.0
  0
LINE
  5
204
330
1F
100
AcDbEntity
  8
0
  6
Continuous
 62
     7
370
    25
100
AcDbLine
 10
4.6125805536
 20
-5.0735412953
 30
0.0
 11
4.6182773084
 21
-5.0735412953
 31
0.0
  0
LINE
  5
205
330
1F
100
AcDbEntity
  8
0
  6
Continuous
 62
     7
370
    25
100
AcDbLine
 10
-7.8015571476
 20
-8.721187076
 30
0.0
 11
7.9015571476
 21
-8.721187076
 31
0.0
  0
LINE
  5
206
330
1F
100
AcDbEntity
  8
0
  6
Continuous
 62
     7
370
    25
100
AcDbLine
 10
-7.8015571476
 20
8.821187076
 30
0.0
 11
-7.8015571476
 21
-8.721187076
 31
0.0
  0
LINE
  5
207
330
1F
100
AcDbEntity
  8
0
  6
Continuous
 62
     7
370
    25
100
AcDbLine
 10
7.9015571476
 20
8.721187076
 30
0.0
 11
-7.9015571476
 21
8.721187076
 31
0.0
  0
LINE
  5
208
330
1F
100
AcDbEntity
  8
0
  6
Continuous
 62
     7
370
    25
100
AcDbLine
 10
7.8015571476
 20
-8.821187076
 30
0.0
 11
7.8015571476
 21
8.821187076
 31
0.0
  0
LINE
  5
209
330
1F
100
AcDbEntity
  8
0
  6
Continuous
 62
     7
370
    25
100
AcDbLine
 10
5.268119471
 20
-2.669272694
 30
0.0
 11
5.268119471
 21
-1.8908198294
 31
0.0
  0
LINE
  5
20A
330
1F
100
AcDbEntity
  8
0
  6
Continuous
 62
     7
370
    25
100
AcDbLine
 10
4.9829596418
 20
-1.8908198294
 30
0.0
 11
4.9829596418
 21
-2.669272694
 31
0.0
  0
LINE
  5
20B
330
1F
100
AcDbEntity
  8
0
  6
Continuous
 62
     7
370
    25
100
AcDbLine
 10
4.9829596418
 20
-2.669272694
 30
0.0
 11
5.268119471
 21
-2.669272694
 31
0.0
  0
LINE
  5
20C
330
1F
100
AcDbEntity
  8
0
  6
Continuous
 62
     7
370
    25
100
AcDbLine
 10
4.3327473782
 20
-1.7097276036
 30
0.0
 11
4.674033326
 21
-1.6505910634
 31
0.0
  0
LINE
  5
20D
330
1F
100
AcDbEntity
  8
0
  6
Continuous
 62
     7
370
    25
100
AcDbLine
 10
6.0658283911
 20
-1.6474514065
 30
0.0
 11
6.395368333
 21
-1.7298863056
 31
0.0
  0
LINE
  5
20E
330
1F
100
AcDbEntity
  8
0
  6
Continuous
 62
     7
370
    25
100
AcDbLine
 10
4.7150085094
 20
0.7854174008
 30
0.0
 11
4.7150085094
 21
0.7935200122
 31
0.0
  0
LINE
  5
20F
330
1F
100
AcDbEntity
  8
0
  6
Continuous
 62
     7
370
    25
100
AcDbLine
 10
5.4963289566
 20
0.9693780095
 30
0.0
 11
6.4595038377
 21
1.2159609098
 31
0.0
  0
LINE
  5
210
330
1F
100
AcDbEntity
  8
0
  6
Continuous
 62
     7
370
    25
100
AcDbLine
 10
6.4595038377
 20
1.2159609098
 30
0.0
 11
6.4595038377
 21
1.6753114812
 31
0.0
  0
LINE
  5
211
330
1F
100
AcDbEntity
  8
0
  6
Continuous
 62
     7
370
    25
100
AcDbLine
 10
6.4595038377
 20
1.6753114812
 30
0.0
 11
4.277436282
 21
1.0430153074
 31
0.0
  0
LINE
  5
212
330
1F
100
AcDbEntity
  8
0
  6
Continuous
 62
     7
370
    25
100
AcDbLine
 10
4.277436282
 20
1.0430153074
 30
0.0
 11
4.277436282
 21
0.5638709337
 31
0.0
  0
LINE
  5
213
330
1F
100
AcDbEntity
  8
0
  6
Continuous
 62
     7
370
    25
100
AcDbLine
 10
4.277436282
 20
0.5638709337
 30
0.0
 11
6.4595038377
 21
-0.0995597376
 31
0.0
  0
LINE
  5
214
330
1F
100
AcDbEntity
  8
0
  6
Continuous
 62
     7
370
    25
100
AcDbLine
 10
6.4595038377
 20
-0.0995597376
 30
0.0
 11
6.4595038377
 21
0.351232898
 31
0.0
  0
LINE
  5
215
330
1F
100
AcDbEntity
  8
0
  6
Continuous
 62
     7
370
    25
100
AcDbLine
 10
6.4595038377
 20
0.351232898
 30
0.0
 11
5.4873196977
 21
0.603563367
 31
0.0
  0
LINE
  5
216
330
1F
100
AcDbEntity
  8
0
  6
Continuous
 62
     7
370
    25
100
AcDbLine
 10
3.2101719026
 20
-5.6999901771
 30
0.0
 11
3.2102126917
 21
-5.6934199231
 31
0.0
  0
LINE
  5
217
330
1F
100
AcDbEntity
  8
0
  6
Continuous
 62
     7
370
    25
100
AcDbLine
 10
3.2102126917
 20
-5.6934199231
 30
0.0
 11
3.3725086442
 21
-5.6868496691
 31
0.0
  0
LINE
  5
218
330
1F
100
AcDbEntity
  8
0
  6
Continuous
 62
     7
370
    25
100
AcDbLine
 10
3.3725086442
 20
-5.6868496691
 30
0.0
 11
3.3725086442
 21
-5.5210330211
 31
0.0
  0
LINE
  5
219
330
1F
100
AcDbEntity
  8
0
  6
Continuous
 62
     7
370
    25
100
AcDbLine
 10
3.1015280596
 20
-5.5272863575
 30
0.0
 11
2.4803397833
 21
-5.5275207803
 31
0.0
  0
LINE
  5
21A
330
1F
100
AcDbEntity
  8
0
  6
Continuous
 62
     7
370
    25
100
AcDbLine
 10
2.4803397833
 20
-5.5275207803
 30
0.0
 11
2.4803397833
 21
-5.7180583756
 31
0.0
  0
LINE
  5
21B
330
1F
100
AcDbEntity
  8
0
  6
Continuous
 62
     7
370
    25
100
AcDbLine
 10
2.4803397833
 20
-5.7180583756
 30
0.0
 11
2.9539462039
 21
-5.7180583756
 31
0.0
  0
LINE
  5
21C
330
1F
100
AcDbEntity
  8
0
  6
Continuous
 62
     7
370
    25
100
AcDbLine
 10
3.2085293391
 20
-5.9789913203
 30
0.0
 11
3.3869679235
 21
-5.9791906828
 31
0.0
  0
LINE
  5
21D
330
1F
100
AcDbEntity
  8
0
  6
Continuous
 62
     7
370
    25
100
AcDbLine
 10
3.7216200715
 20
1.2277764359
 30
0.0
 11
2.473429009
 21
1.6073057652
 31
0.0
  0
LINE
  5
21E
330
1F
100
AcDbEntity
  8
0
  6
Continuous
 62
     7
370
    25
100
AcDbLine
 10
2.473429009
 20
1.6073057652
 30
0.0
 11
2.473429009
 21
1.4142731599
 31
0.0
  0
LINE
  5
21F
330
1F
100
AcDbEntity
  8
0
  6
Continuous
 62
     7
370
    25
100
AcDbLine
 10
2.473429009
 20
1.4142731599
 30
0.0
 11
2.8383654632
 21
1.3072402574
 31
0.0
  0
LINE
  5
220
330
1F
100
AcDbEntity
  8
0
  6
Continuous
 62
     7
370
    25
100
AcDbLine
 10
2.8383654632
 20
1.3072402574
 30
0.0
 11
2.8383654632
 21
0.9277599667
 31
0.0
  0
LINE
  5
221
330
1F
100
AcDbEntity
  8
0
  6
Continuous
 62
     7
370
    25
100
AcDbLine
 10
2.8383654632
 20
0.9277599667
 30
0.0
 11
2.473429009
 21
0.8158619322
 31
0.0
  0
LINE
  5
222
330
1F
100
AcDbEntity
  8
0
  6
Continuous
 62
     7
370
    25
100
AcDbLine
 10
2.473429009
 20
0.8158619322
 30
0.0
 11
2.473429009
 21
0.6180132336
 31
0.0
  0
LINE
  5
223
330
1F
100
AcDbEntity
  8
0
  6
Continuous
 62
     7
370
    25
100
AcDbLine
 10
2.473429009
 20
0.6180132336
 30
0.0
 11
3.7216200715
 21
0.9974935244
 31
0.0
  0
LINE
  5
224
330
1F
100
AcDbEntity
  8
0
  6
Continuous
 62
     7
370
    25
100
AcDbLine
 10
3.7216200715
 20
0.9974935244
 30
0.0
 11
3.7216200715
 21
1.2277764359
 31
0.0
  0
LINE
  5
225
330
1F
100
AcDbEntity
  8
0
  6
Continuous
 62
     7
370
    25
100
AcDbLine
 10
5.268119471
 20
-1.8908198294
 30
0.0
 11
4.9829596418
 21
-1.8908198294
 31
0.0
  0
LINE
  5
226
330
1F
100
AcDbEntity
  8
0
  6
Continuous
 62
     7
370
    25
100
AcDbLine
 10
4.7776944184
 20
-4.7588029932
 30
0.0
 11
4.5247501819
 21
-4.5213065729
 31
0.0
  0
LINE
  5
227
330
1F
100
AcDbEntity
  8
0
  6
Continuous
 62
     7
370
    25
100
AcDbLine
 10
4.2512147253
 20
-3.5882563138
 30
0.0
 11
4.2512147253
 21
-3.5882975251
 31
0.0
  0
LINE
  5
228
330
1F
100
AcDbEntity
  8
0
  6
Continuous
 62
     7
370
    25
100
AcDbLine
 10
7.9015571476
 20
8.721187076
 30
0.0
 11
7.9015571476
 21
-8.721187076
 31
0.0
  0
LINE
  5
229
330
1F
100
AcDbEntity
  8
0
  6
Continuous
 62
     7
370
    25
100
AcDbLine
 10
4.7313066963
 20
6.1804614036
 30
0.0
 11
4.5211051963
 21
6.1804614036
 31
0.0
  0
LINE
  5
22A
330
1F
100
AcDbEntity
  8
0
  6
Continuous
 62
     7
370
    25
100
AcDbLine
 10
4.5211051963
 20
6.1804614036
 30
0.0
 11
4.5211051963
 21
6.5888851536
 31
0.0
  0
LINE
  5
22B
330
1F
100
AcDbEntity
  8
0
  6
Continuous
 62
     7
370
    25
100
AcDbLine
 10
4.5211051963
 20
6.5888851536
 30
0.0
 11
4.6401446963
 21
6.5748979036
 31
0.0
  0
LINE
  5
22C
330
1F
100
AcDbEntity
  8
0
  6
Continuous
 62
     7
370
    25
100
AcDbLine
 10
-7.8015571476
 20
8.821187076
 30
0.0
 11
7.8015571476
 21
8.821187076
 31
0.0
  0
LINE
  5
22D
330
1F
100
AcDbEntity
  8
0
  6
Continuous
 62
     7
370
    25
100
AcDbLine
 10
-7.8015571476
 20
-8.721187076
 30
0.0
 11
-7.9015571476
 21
-8.821187076
 31
0.0
  0
LINE
  5
22E
330
1F
100
AcDbEntity
  8
0
  6
Continuous
 62
     7
370
    25
100
AcDbLine
 10
-7.9015571476
 20
-8.821187076
 30
0.0
 11
-7.9015571476
 21
8.721187076
 31
0.0
  0
LINE
  5
22F
330
1F
100
AcDbEntity
  8
0
  6
Continuous
 62
     7
370
    25
100
AcDbLine
 10
3.2513496963
 20
6.8660329036
 30
0.0
 11
3.2513496963
 21
6.5287461536
 31
0.0
  0
LINE
  5
230
330
1F
100
AcDbEntity
  8
0
  6
Continuous
 62
     7
370
    25
100
AcDbLine
 10
3.2513496963
 20
6.5287461536
 30
0.0
 11
4.1683951963
 21
6.5439701536
 31
0.0
  0
LINE
  5
231
330
1F
100
AcDbEntity
  8
0
  6
Continuous
 62
     7
370
    25
100
AcDbLine
 10
3.2921501963
 20
6.1148641536
 30
0.0
 11
3.2513496963
 21
6.1226639036
 31
0.0
  0
LINE
  5
232
330
1F
100
AcDbEntity
  8
0
  6
Continuous
 62
     7
370
    25
100
AcDbLine
 10
3.2513496963
 20
6.1226639036
 30
0.0
 11
3.2513496963
 21
5.8595361536
 31
0.0
  0
LINE
  5
233
330
1F
100
AcDbEntity
  8
0
  6
Continuous
 62
     7
370
    25
100
AcDbLine
 10
6.0509841963
 20
6.2007534036
 30
0.0
 11
6.1612061963
 21
6.2209461536
 31
0.0
  0
LINE
  5
234
330
1F
100
AcDbEntity
  8
0
  6
Continuous
 62
     7
370
    25
100
AcDbLine
 10
6.1612061963
 20
6.2209461536
 30
0.0
 11
6.1611871963
 21
6.5419889036
 31
0.0
  0
LINE
  5
235
330
1F
100
AcDbEntity
  8
0
  6
Continuous
 62
     7
370
    25
100
AcDbLine
 10
6.1611871963
 20
6.5419889036
 30
0.0
 11
5.9716149463
 21
6.5838544036
 31
0.0
  0
LINE
  5
236
330
1F
100
AcDbEntity
  8
0
  6
Continuous
 62
     7
370
    25
100
AcDbLine
 10
6.5264346963
 20
4.5770061536
 30
0.0
 11
6.5366671963
 21
4.6990799036
 31
0.0
  0
LINE
  5
237
330
1F
100
AcDbEntity
  8
0
  6
Continuous
 62
     7
370
    25
100
AcDbLine
 10
6.5366671963
 20
4.6990799036
 30
0.0
 11
6.4748416963
 21
4.6990799036
 31
0.0
  0
LINE
  5
238
330
1F
100
AcDbEntity
  8
0
  6
Continuous
 62
     7
370
    25
100
AcDbLine
 10
5.9187181963
 20
4.1394921536
 30
0.0
 11
5.8261316963
 21
4.1298094036
 31
0.0
  0
LINE
  5
239
330
1F
100
AcDbEntity
  8
0
  6
Continuous
 62
     7
370
    25
100
AcDbLine
 10
5.8261316963
 20
4.1298094036
 30
0.0
 11
5.8261316963
 21
4.0617349036
 31
0.0
  0
LINE
  5
23A
330
1F
100
AcDbEntity
  8
0
  6
Continuous
 62
     7
370
    25
100
AcDbLine
 10
3.6701926963
 20
5.0701941536
 30
0.0
 11
3.2513496963
 21
5.0694254036
 31
0.0
  0
LINE
  5
23B
330
1F
100
AcDbEntity
  8
0
  6
Continuous
 62
     7
370
    25
100
AcDbLine
 10
3.2513496963
 20
5.0694254036
 30
0.0
 11
3.2513496963
 21
4.8401639036
 31
0.0
  0
LINE
  5
23C
330
1F
100
AcDbEntity
  8
0
  6
Continuous
 62
     7
370
    25
100
AcDbLine
 10
2.6742304115
 20
6.9647169104
 30
0.0
 11
2.7997249115
 21
7.1322539104
 31
0.0
  0
LINE
  5
23D
330
1F
100
AcDbEntity
  8
0
  6
Continuous
 62
     7
370
    25
100
AcDbLine
 10
6.2488599463
 20
3.6831186536
 30
0.0
 11
6.0813226963
 21
3.5576241536
 31
0.0
  0
LINE
  5
23E
330
1F
100
AcDbEntity
  8
0
  6
Continuous
 62
     7
370
    25
100
AcDbLine
 10
4.1683951963
 20
6.5439701536
 30
0.0
 11
4.1683951963
 21
6.3798511536
 31
0.0
  0
LINE
  5
23F
330
1F
100
AcDbEntity
  8
0
  6
Continuous
 62
     7
370
    25
100
AcDbLine
 10
4.5839007259
 20
-3.5935825675
 30
0.0
 11
4.5839007259
 21
-3.5911138938
 31
0.0
  0
LINE
  5
240
330
1F
100
AcDbEntity
  8
0
  6
Continuous
 62
     7
370
    25
100
AcDbLine
 10
7.8015571476
 20
-8.821187076
 30
0.0
 11
-7.9015571476
 21
-8.821187076
 31
0.0
  0
LINE
  5
241
330
1F
100
AcDbEntity
  8
0
  6
Continuous
 62
     7
370
    25
100
AcDbLine
 10
3.5593339726
 20
1.1208720878
 30
0.0
 11
3.5594260918
 21
1.117500112
 31
0.0
  0
LINE
  5
242
330
1F
100
AcDbEntity
  8
0
  6
Continuous
 62
     7
370
    25
100
AcDbLine
 10
2.9859619847
 20
1.2780494658
 30
0.0
 11
3.3143669834
 21
1.1791251165
 31
0.0
  0
LINE
  5
243
330
1F
100
AcDbEntity
  8
0
  6
Continuous
 62
     7
370
    25
100
AcDbLine
 10
2.9859619847
 20
0.9585724689
 30
0.0
 11
2.9859619847
 21
1.2780494658
 31
0.0
  0
LINE
  5
244
330
1F
100
AcDbEntity
  8
0
  6
Continuous
 62
     7
370
    25
100
AcDbLine
 10
3.3127147955
 20
1.0561081554
 30
0.0
 11
2.9859619847
 21
0.9585724689
 31
0.0
  0
LINE
  5
245
330
1F
100
AcDbEntity
  8
0
  6
Continuous
 62
     7
370
    25
100
AcDbLine
 10
3.0013316861
 20
-5.1654530834
 30
0.0
 11
3.0013316861
 21
-4.7600352759
 31
0.0
  0
LINE
  5
246
330
1F
100
AcDbEntity
  8
0
  6
Continuous
 62
     7
370
    25
100
AcDbLine
 10
-8.5
 20
9.0
 30
0.0
 11
8.5
 21
9.0
 31
0.0
  0
LINE
  5
247
330
1F
100
AcDbEntity
  8
0
  6
Continuous
 62
     7
370
    25
100
AcDbLine
 10
8.5
 20
8.5099815606
 30
0.0
 11
8.5
 21
9.0
 31
0.0
  0
LINE
  5
248
330
1F
100
AcDbEntity
  8
0
  6
Continuous
 62
     7
370
    25
100
AcDbLine
 10
8.5
 20
6.7099815606
 30
0.0
 11
8.5
 21
7.7041841464
 31
0.0
  0
LINE
  5
249
330
1F
100
AcDbEntity
  8
0
  6
Continuous
 62
     7
370
    25
100
AcDbLine
 10
8.5
 20
4.9099815606
 30
0.0
 11
8.5
 21
5.9041841464
 31
0.0
  0
LINE
  5
24A
330
1F
100
AcDbEntity
  8
0
  6
Continuous
 62
     7
370
    25
100
AcDbLine
 10
8.5
 20
3.1099815606
 30
0.0
 11
8.5
 21
4.1041841464
 31
0.0
  0
LINE
  5
24B
330
1F
100
AcDbEntity
  8
0
  6
Continuous
 62
     7
370
    25
100
AcDbLine
 10
8.5
 20
1.3099815606
 30
0.0
 11
8.5
 21
2.3041841464
 31
0.0
  0
LINE
  5
24C
330
1F
100
AcDbEntity
  8
0
  6
Continuous
 62
     7
370
    25
100
AcDbLine
 10
8.5
 20
-0.4900184394
 30
0.0
 11
8.5
 21
0.5041841464
 31
0.0
  0
LINE
  5
24D
330
1F
100
AcDbEntity
  8
0
  6
Continuous
 62
     7
370
    25
100
AcDbLine
 10
8.5
 20
-2.2900184394
 30
0.0
 11
8.5
 21
-1.2958158536
 31
0.0
  0
LINE
  5
24E
330
1F
100
AcDbEntity
  8
0
  6
Continuous
 62
     7
370
    25
100
AcDbLine
 10
8.5
 20
-4.0900184394
 30
0.0
 11
8.5
 21
-3.0958158536
 31
0.0
  0
LINE
  5
24F
330
1F
100
AcDbEntity
  8
0
  6
Continuous
 62
     7
370
    25
100
AcDbLine
 10
8.5
 20
-5.8900184394
 30
0.0
 11
8.5
 21
-4.8958158536
 31
0.0
  0
LINE
  5
250
330
1F
100
AcDbEntity
  8
0
  6
Continuous
 62
     7
370
    25
100
AcDbLine
 10
8.5
 20
-7.6900184394
 30
0.0
 11
8.5
 21
-6.6958158536
 31
0.0
  0
LINE
  5
251
330
1F
100
AcDbEntity
  8
0
  6
Continuous
 62
     7
370
    25
100
AcDbLine
 10
8.5
 20
-9.0
 30
0.0
 11
8.5
 21
-8.4958158536
 31
0.0
  0
LINE
  5
252
330
1F
100
AcDbEntity
  8
0
  6
Continuous
 62
     7
370
    25
100
AcDbLine
 10
-8.5
 20
-9.0
 30
0.0
 11
8.5
 21
-9.0
 31
0.0
  0
LINE
  5
253
330
1F
100
AcDbEntity
  8
0
  6
Continuous
 62
     7
370
    25
100
AcDbLine
 10
-8.5
 20
-9.0
 30
0.0
 11
-8.5
 21
-8.4958158536
 31
0.0
  0
LINE
  5
254
330
1F
100
AcDbEntity
  8
0
  6
Continuous
 62
     7
370
    25
100
AcDbLine
 10
-8.5
 20
-7.6900184394
 30
0.0
 11
-8.5
 21
-6.6958158536
 31
0.0
  0
LINE
  5
255
330
1F
100
AcDbEntity
  8
0
  6
Continuous
 62
     7
370
    25
100
AcDbLine
 10
-8.5
 20
-5.8900184394
 30
0.0
 11
-8.5
 21
-4.8958158536
 31
0.0
  0
LINE
  5
256
330
1F
100
AcDbEntity
  8
0
  6
Continuous
 62
     7
370
    25
100
AcDbLine
 10
-8.5
 20
-4.0900184394
 30
0.0
 11
-8.5
 21
-3.0958158536
 31
0.0
  0
LINE
  5
257
330
1F
100
AcDbEntity
  8
0
  6
Continuous
 62
     7
370
    25
100
AcDbLine
 10
-8.5
 20
-2.2900184394
 30
0.0
 11
-8.5
 21
-1.2958158536
 31
0.0
  0
LINE
  5
258
330
1F
100
AcDbEntity
  8
0
  6
Continuous
 62
     7
370
    25
100
AcDbLine
 10
-8.5
 20
-0.4900184394
 30
0.0
 11
-8.5
 21
0.5041841464
 31
0.0
  0
LINE
  5
259
330
1F
100
AcDbEntity
  8
0
  6
Continuous
 62
     7
370
    25
100
AcDbLine
 10
-8.5
 20
1.3099815606
 30
0.0
 11
-8.5
 21
2.3041841464
 31
0.0
  0
LINE
  5
25A
330
1F
100
AcDbEntity
  8
0
  6
Continuous
 62
     7
370
    25
100
AcDbLine
 10
-8.5
 20
3.1099815606
 30
0.0
 11
-8.5
 21
4.1041841464
 31
0.0
  0
LINE
  5
25B
330
1F
100
AcDbEntity
  8
0
  6
Continuous
 62
     7
370
    25
100
AcDbLine
 10
-8.5
 20
4.9099815606
 30
0.0
 11
-8.5
 21
5.9041841464
 31
0.0
  0
LINE
  5
25C
330
1F
100
AcDbEntity
  8
0
  6
Continuous
 62
     7
370
    25
100
AcDbLine
 10
-8.5
 20
6.7099815606
 30
0.0
 11
-8.5
 21
7.7041841464
 31
0.0
  0
LINE
  5
25D
330
1F
100
AcDbEntity
  8
0
  6
Continuous
 62
     7
370
    25
100
AcDbLine
 10
-8.5
 20
8.5099815606
 30
0.0
 11
-8.5
 21
9.0
 31
0.0
  0
ARC
  5
25E
330
1F
100
AcDbEntity
  8
0
  6
Continuous
 62
     7
370
    25
100
AcDbCircle
 10
7.8015571476
 20
8.721187076
 30
0.0
 40
0.0999999999999979
100
AcDbArc
 50
0.0
 51
90.0
  0
ARC
  5
25F
330
1F
100
AcDbEntity
  8
0
  6
Continuous
 62
     7
370
    25
100
AcDbCircle
 10
-7.8015571476
 20
8.721187076
 30
0.0
 40
0.1000000000000041
100
AcDbArc
 50
90.0
 51
180.0
  0
ARC
  5
260
330
1F
100
AcDbEntity
  8
0
  6
Continuous
 62
     7
370
    25
100
AcDbCircle
 10
7.8015571476
 20
-8.721187076
 30
0.0
 40
0.0999999999999996
100
AcDbArc
 50
270.0
 51
0.0
  0
ARC
  5
261
330
1F
100
AcDbEntity
  8
0
  6
Continuous
 62
     7
370
    25
100
AcDbCircle
 10
8.6100137154
 20
8.1070828535
 30
0.0
 40
0.4176486390997398
100
AcDbArc
 50
105.2726223126
 51
254.7273776874
  0
ARC
  5
262
330
1F
100
AcDbEntity
  8
0
  6
Continuous
 62
     7
370
    25
100
AcDbCircle
 10
8.6100137154
 20
6.3070828535
 30
0.0
 40
0.4176486390997402
100
AcDbArc
 50
105.2726223126
 51
254.7273776874
  0
ARC
  5
263
330
1F
100
AcDbEntity
  8
0
  6
Continuous
 62
     7
370
    25
100
AcDbCircle
 10
8.6100137154
 20
4.5070828535
 30
0.0
 40
0.4176486390997384
100
AcDbArc
 50
105.2726223126
 51
254.7273776874
  0
ARC
  5
264
330
1F
100
AcDbEntity
  8
0
  6
Continuous
 62
     7
370
    25
100
AcDbCircle
 10
8.6100137154
 20
2.7070828535
 30
0.0
 40
0.4176486390997385
100
AcDbArc
 50
105.2726223126
 51
254.7273776874
  0
ARC
  5
265
330
1F
100
AcDbEntity
  8
0
  6
Continuous
 62
     7
370
    25
100
AcDbCircle
 10
8.6100137154
 20
0.9070828535
 30
0.0
 40
0.4176486390997386
100
AcDbArc
 50
105.2726223126
 51
254.7273776874
  0
ARC
  5
266
330
1F
100
AcDbEntity
  8
0
  6
Continuous
 62
     7
370
    25
100
AcDbCircle
 10
8.6100137154
 20
-0.8929171465
 30
0.0
 40
0.417648639099739
100
AcDbArc
 50
105.2726223126
 51
254.7273776874
  0
ARC
  5
267
330
1F
100
AcDbEntity
  8
0
  6
Continuous
 62
     7
370
    25
100
AcDbCircle
 10
8.6100137154
 20
-2.6929171465
 30
0.0
 40
0.4176486390997385
100
AcDbArc
 50
105.2726223126
 51
254.7273776874
  0
ARC
  5
268
330
1F
100
AcDbEntity
  8
0
  6
Continuous
 62
     7
370
    25
100
AcDbCircle
 10
8.6100137154
 20
-4.4929171465
 30
0.0
 40
0.4176486390997406
100
AcDbArc
 50
105.2726223126
 51
254.7273776874
  0
ARC
  5
269
330
1F
100
AcDbEntity
  8
0
  6
Continuous
 62
     7
370
    25
100
AcDbCircle
 10
8.6100137154
 20
-6.2929171465
 30
0.0
 40
0.4176486390997384
100
AcDbArc
 50
105.2726223126
 51
254.7273776874
  0
ARC
  5
26A
330
1F
100
AcDbEntity
  8
0
  6
Continuous
 62
     7
370
    25
100
AcDbCircle
 10
8.6100137154
 20
-8.0929171465
 30
0.0
 40
0.4176486390997398
100
AcDbArc
 50
105.2726223126
 51
254.7273776874
  0
ARC
  5
26B
330
1F
100
AcDbEntity
  8
0
  6
Continuous
 62
     7
370
    25
100
AcDbCircle
 10
-8.6100137154
 20
-8.0929171465
 30
0.0
 40
0.4176486390997394
100
AcDbArc
 50
285.2726223126
 51
74.7273776874
  0
ARC
  5
26C
330
1F
100
AcDbEntity
  8
0
  6
Continuous
 62
     7
370
    25
100
AcDbCircle
 10
-8.6100137154
 20
-6.2929171465
 30
0.0
 40
0.4176486390997381
100
AcDbArc
 50
285.2726223126
 51
74.7273776874
  0
ARC
  5
26D
330
1F
100
AcDbEntity
  8
0
  6
Continuous
 62
     7
370
    25
100
AcDbCircle
 10
-8.6100137154
 20
-4.4929171465
 30
0.0
 40
0.4176486390997394
100
AcDbArc
 50
285.2726223126
 51
74.7273776874
  0
ARC
  5
26E
330
1F
100
AcDbEntity
  8
0
  6
Continuous
 62
     7
370
    25
100
AcDbCircle
 10
-8.6100137154
 20
-2.6929171465
 30
0.0
 40
0.4176486390997385
100
AcDbArc
 50
285.2726223126
 51
74.7273776874
  0
ARC
  5
26F
330
1F
100
AcDbEntity
  8
0
  6
Continuous
 62
     7
370
    25
100
AcDbCircle
 10
-8.6100137154
 20
-0.8929171465
 30
0.0
 40
0.4176486390997389
100
AcDbArc
 50
285.2726223126
 51
74.7273776874
  0
ARC
  5
270
330
1F
100
AcDbEntity
  8
0
  6
Continuous
 62
     7
370
    25
100
AcDbCircle
 10
-8.6100137154
 20
0.9070828535
 30
0.0
 40
0.4176486390997388
100
AcDbArc
 50
285.2726223126
 51
74.7273776874
  0
ARC
  5
271
330
1F
100
AcDbEntity
  8
0
  6
Continuous
 62
     7
370
    25
100
AcDbCircle
 10
-8.6100137154
 20
2.7070828535
 30
0.0
 40
0.4176486390997391
100
AcDbArc
 50
285.2726223126
 51
74.7273776874
  0
ARC
  5
272
330
1F
100
AcDbEntity
  8
0
  6
Continuous
 62
     7
370
    25
100
AcDbCircle
 10
-8.6100137154
 20
4.5070828535
 30
0.0
 40
0.4176486390997381
100
AcDbArc
 50
285.2726223126
 51
74.7273776874
  0
ARC
  5
273
330
1F
100
AcDbEntity
  8
0
  6
Continuous
 62
     7
370
    25
100
AcDbCircle
 10
-8.6100137154
 20
6.3070828535
 30
0.0
 40
0.4176486390997399
100
AcDbArc
 50
285.2726223126
 51
74.7273776874
  0
ARC
  5
274
330
1F
100
AcDbEntity
  8
0
  6
Continuous
 62
     7
370
    25
100
AcDbCircle
 10
-8.6100137154
 20
8.1070828535
 30
0.0
 40
0.4176486390997394
100
AcDbArc
 50
285.2726223126
 51
74.7273776874
  0
ENDSEC
  0
SECTION
  2
OBJECTS
  0
DICTIONARY
  5
C
330
0
100
AcDbDictionary
281
     1
  3
ACAD_GROUP
350
D
  3
ACAD_LAYOUT
350
1A
  3
ACAD_MLINESTYLE
350
17
  3
ACAD_PLOTSETTINGS
350
19
  3
ACAD_PLOTSTYLENAME
350
E
  3
ACAD_SCALELIST
350
47
  3
DWGPROPS
350
275
  0
DICTIONARY
  5
D
102
{ACAD_REACTORS
330
C
102
}
330
C
100
AcDbDictionary
281
     1
  0
DICTIONARY
  5
1A
102
{ACAD_REACTORS
330
C
102
}
330
C
100
AcDbDictionary
281
     1
  3
Layout1
350
1E
  3
Layout2
350
26
  3
Model
350
22
  0
DICTIONARY
  5
17
102
{ACAD_REACTORS
330
C
102
}
330
C
100
AcDbDictionary
281
     1
  3
Standard
350
18
  0
DICTIONARY
  5
19
102
{ACAD_REACTORS
330
C
102
}
330
C
100
AcDbDictionary
281
     1
  0
ACDBDICTIONARYWDFLT
  5
E
102
{ACAD_REACTORS
330
C
102
}
330
C
100
AcDbDictionary
281
     1
  3
Normal
350
F
100
AcDbDictionaryWithDefault
340
F
  0
DICTIONARY
  5
47
102
{ACAD_REACTORS
330
C
102
}
330
C
100
AcDbDictionary
281
     1
  3
A0
350
48
  3
A1
350
49
  3
A2
350
4A
  3
A3
350
4B
  3
A4
350
4C
  3
A5
350
4D
  3
A6
350
4E
  3
A7
350
4F
  3
A8
350
50
  3
A9
350
51
  3
B0
350
52
  3
B1
350
53
  3
B2
350
54
  3
B3
350
55
  3
B4
350
56
  3
B5
350
57
  3
B6
350
58
  3
B7
350
59
  3
B8
350
5A
  3
B9
350
5B
  3
C0
350
5C
  3
C1
350
5D
  3
C2
350
5E
  3
C3
350
5F
  3
C4
350
60
  3
C5
350
61
  3
C6
350
62
  3
C7
350
63
  3
C8
350
64
  3
C9
350
65
  3
D0
350
66
  3
D1
350
67
  3
D2
350
68
  0
XRECORD
  5
275
102
{ACAD_REACTORS
330
C
102
}
330
C
100
AcDbXrecord
280
     1
  1
DWGPROPS COOKIE
  2

  3

  4

  6

  7

  8
ccadic
  9

300
=
301
=
302
=
303
=
304
=
305
=
306
=
307
=
308
=
309
=
 40
0.0
 41
2459753.504595463
 42
2459753.504686215
  1

 90
        0
  0
LAYOUT
  5
1E
102
{ACAD_REACTORS
330
1A
102
}
330
1A
100
AcDbPlotSettings
  1

  2
none_device
  4

  6

 40
0.0
 41
0.0
 42
0.0
 43
0.0
 44
0.0
 45
0.0
 46
0.0
 47
0.0
 48
0.0
 49
0.0
140
0.0
141
0.0
142
1.0
143
1.0
 70
   688
 72
     1
 73
     0
 74
     5
  7

 75
    16
147
1.0
148
0.0
149
0.0
100
AcDbLayout
  1
Layout1
 70
     1
 71
     1
 10
0.0
 20
0.0
 11
420.0
 21
297.0
 12
0.0
 22
0.0
 32
0.0
 14
1.0000000000E+20
 24
1.0000000000E+20
 34
1.0000000000E+20
 15
-1.0000000000E+20
 25
-1.0000000000E+20
 35
-1.0000000000E+20
146
0.0
 13
0.0
 23
0.0
 33
0.0
 16
1.0
 26
0.0
 36
0.0
 17
0.0
 27
1.0
 37
0.0
 76
     0
330
1B
  0
LAYOUT
  5
26
102
{ACAD_REACTORS
330
1A
102
}
330
1A
100
AcDbPlotSettings
  1

  2
none_device
  4

  6

 40
0.0
 41
0.0
 42
0.0
 43
0.0
 44
0.0
 45
0.0
 46
0.0
 47
0.0
 48
0.0
 49
0.0
140
0.0
141
0.0
142
1.0
143
1.0
 70
   688
 72
     1
 73
     0
 74
     5
  7

 75
    16
147
1.0
148
0.0
149
0.0
100
AcDbLayout
  1
Layout2
 70
     1
 71
     2
 10
0.0
 20
0.0
 11
0.0
 21
0.0
 12
0.0
 22
0.0
 32
0.0
 14
0.0
 24
0.0
 34
0.0
 15
0.0
 25
0.0
 35
0.0
146
0.0
 13
0.0
 23
0.0
 33
0.0
 16
1.0
 26
0.0
 36
0.0
 17
0.0
 27
1.0
 37
0.0
 76
     0
330
23
  0
LAYOUT
  5
22
102
{ACAD_REACTORS
330
1A
102
}
330
1A
100
AcDbPlotSettings
  1

  2
none_device
  4
ANSI_A_(11.00_x_8.50_Inches)
  6

 40
6.35
 41
19.05
 42
6.35000508
 43
19.05000254
 44
279.4
 45
215.9
 46
133.34999746
 47
88.89999873
 48
0.0
 49
0.0
140
0.0
141
0.0
142
0.4675
143
1.0
 70
  1696
 72
     0
 73
     0
 74
     0
  7

 75
     0
147
0.0179189148
148
-1300.4909072572
149
0.0
100
AcDbLayout
  1
Model
 70
     1
 71
     0
 10
0.0
 20
0.0
 11
420.0
 21
297.0
 12
0.0
 22
0.0
 32
0.0
 14
-8.5
 24
-9.0
 34
0.0
 15
8.5
 25
9.0
 35
0.0
146
0.0
 13
0.0
 23
0.0
 33
0.0
 16
1.0
 26
0.0
 36
0.0
 17
0.0
 27
1.0
 37
0.0
 76
     0
330
1F
331
29
  0
MLINESTYLE
  5
18
102
{ACAD_REACTORS
330
17
102
}
330
17
100
AcDbMlineStyle
  2
Standard
 70
     0
  3

 62
   256
 51
90.0
 52
90.0
 71
     2
 49
0.5
 62
   256
  6
BYLAYER
 49
-0.5
 62
   256
  6
BYLAYER
  0
ACDBPLACEHOLDER
  5
F
102
{ACAD_REACTORS
330
E
102
}
330
E
  0
SCALE
  5
48
102
{ACAD_REACTORS
330
47
102
}
330
47
100
AcDbScale
 70
     0
300
1:1
140
1.0
141
1.0
290
     1
  0
SCALE
  5
49
102
{ACAD_REACTORS
330
47
102
}
330
47
100
AcDbScale
 70
     0
300
1:2
140
1.0
141
2.0
290
     0
  0
SCALE
  5
4A
102
{ACAD_REACTORS
330
47
102
}
330
47
100
AcDbScale
 70
     0
300
1:4
140
1.0
141
4.0
290
     0
  0
SCALE
  5
4B
102
{ACAD_REACTORS
330
47
102
}
330
47
100
AcDbScale
 70
     0
300
1:5
140
1.0
141
5.0
290
     0
  0
SCALE
  5
4C
102
{ACAD_REACTORS
330
47
102
}
330
47
100
AcDbScale
 70
     0
300
1:8
140
1.0
141
8.0
290
     0
  0
SCALE
  5
4D
102
{ACAD_REACTORS
330
47
102
}
330
47
100
AcDbScale
 70
     0
300
1:10
140
1.0
141
10.0
290
     0
  0
SCALE
  5
4E
102
{ACAD_REACTORS
330
47
102
}
330
47
100
AcDbScale
 70
     0
300
1:16
140
1.0
141
16.0
290
     0
  0
SCALE
  5
4F
102
{ACAD_REACTORS
330
47
102
}
330
47
100
AcDbScale
 70
     0
300
1:20
140
1.0
141
20.0
290
     0
  0
SCALE
  5
50
102
{ACAD_REACTORS
330
47
102
}
330
47
100
AcDbScale
 70
     0
300
1:30
140
1.0
141
30.0
290
     0
  0
SCALE
  5
51
102
{ACAD_REACTORS
330
47
102
}
330
47
100
AcDbScale
 70
     0
300
1:40
140
1.0
141
40.0
290
     0
  0
SCALE
  5
52
102
{ACAD_REACTORS
330
47
102
}
330
47
100
AcDbScale
 70
     0
300
1:50
140
1.0
141
50.0
290
     0
  0
SCALE
  5
53
102
{ACAD_REACTORS
330
47
102
}
330
47
100
AcDbScale
 70
     0
300
1:100
140
1.0
141
100.0
290
     0
  0
SCALE
  5
54
102
{ACAD_REACTORS
330
47
102
}
330
47
100
AcDbScale
 70
     0
300
2:1
140
2.0
141
1.0
290
     0
  0
SCALE
  5
55
102
{ACAD_REACTORS
330
47
102
}
330
47
100
AcDbScale
 70
     0
300
4:1
140
4.0
141
1.0
290
     0
  0
SCALE
  5
56
102
{ACAD_REACTORS
330
47
102
}
330
47
100
AcDbScale
 70
     0
300
8:1
140
8.0
141
1.0
290
     0
  0
SCALE
  5
57
102
{ACAD_REACTORS
330
47
102
}
330
47
100
AcDbScale
 70
     0
300
10:1
140
10.0
141
1.0
290
     0
  0
SCALE
  5
58
102
{ACAD_REACTORS
330
47
102
}
330
47
100
AcDbScale
 70
     0
300
100:1
140
100.0
141
1.0
290
     0
  0
SCALE
  5
59
102
{ACAD_REACTORS
330
47
102
}
330
47
100
AcDbScale
 70
     0
300
1/128" = 1'-0"
140
0.0078125
141
12.0
290
     0
  0
SCALE
  5
5A
102
{ACAD_REACTORS
330
47
102
}
330
47
100
AcDbScale
 70
     0
300
1/64" = 1'-0"
140
0.015625
141
12.0
290
     0
  0
SCALE
  5
5B
102
{ACAD_REACTORS
330
47
102
}
330
47
100
AcDbScale
 70
     0
300
1/32" = 1'-0"
140
0.03125
141
12.0
290
     0
  0
SCALE
  5
5C
102
{ACAD_REACTORS
330
47
102
}
330
47
100
AcDbScale
 70
     0
300
1/16" = 1'-0"
140
0.0625
141
12.0
290
     0
  0
SCALE
  5
5D
102
{ACAD_REACTORS
330
47
102
}
330
47
100
AcDbScale
 70
     0
300
3/32" = 1'-0"
140
0.09375
141
12.0
290
     0
  0
SCALE
  5
5E
102
{ACAD_REACTORS
330
47
102
}
330
47
100
AcDbScale
 70
     0
300
1/8" = 1'-0"
140
0.125
141
12.0
290
     0
  0
SCALE
  5
5F
102
{ACAD_REACTORS
330
47
102
}
330
47
100
AcDbScale
 70
     0
300
3/16" = 1'-0"
140
0.1875
141
12.0
290
     0
  0
SCALE
  5
60
102
{ACAD_REACTORS
330
47
102
}
330
47
100
AcDbScale
 70
     0
300
1/4" = 1'-0"
140
0.25
141
12.0
290
     0
  0
SCALE
  5
61
102
{ACAD_REACTORS
330
47
102
}
330
47
100
AcDbScale
 70
     0
300
3/8" = 1'-0"
140
0.375
141
12.0
290
     0
  0
SCALE
  5
62
102
{ACAD_REACTORS
330
47
102
}
330
47
100
AcDbScale
 70
     0
300
1/2" = 1'-0"
140
0.5
141
12.0
290
     0
  0
SCALE
  5
63
102
{ACAD_REACTORS
330
47
102
}
330
47
100
AcDbScale
 70
     0
300
3/4" = 1'-0"
140
0.75
141
12.0
290
     0
  0
SCALE
  5
64
102
{ACAD_REACTORS
330
47
102
}
330
47
100
AcDbScale
 70
     0
300
1" = 1'-0"
140
1.0
141
12.0
290
     0
  0
SCALE
  5
65
102
{ACAD_REACTORS
330
47
102
}
330
47
100
AcDbScale
 70
     0
300
1-1/2" = 1'-0"
140
1.5
141
12.0
290
     0
  0
SCALE
  5
66
102
{ACAD_REACTORS
330
47
102
}
330
47
100
AcDbScale
 70
     0
300
3" = 1'-0"
140
3.0
141
12.0
290
     0
  0
SCALE
  5
67
102
{ACAD_REACTORS
330
47
102
}
330
47
100
AcDbScale
 70
     0
300
6" = 1'-0"
140
6.0
141
12.0
290
     0
  0
SCALE
  5
68
102
{ACAD_REACTORS
330
47
102
}
330
47
100
AcDbScale
 70
     0
300
1'-0" = 1'-0"
140
12.0
141
12.0
290
     0
  0
ENDSEC
  0
EOF
